SplineFontDB: 3.2
FontName: SingScript.sg_core
FullName: SingScript.sg "core" module
FamilyName: SingScript.sg
Weight: Regular
Copyright: Copyright (c) 2025, 05524F.sg (Singapore)
UComments: "2025-7-14: Created with FontForge (http://fontforge.org)"
Version: v2
StrokeWidth: 40
ItalicAngle: 0
UnderlinePosition: -90
UnderlineWidth: 45
Ascent: 600
Descent: 300
InvalidEm: 0
LayerCount: 2
Layer: 0 0 "Back" 1
Layer: 1 0 "Fore" 0
XUID: [1021 768 647112374 17012]
FSType: 0
OS2Version: 0
OS2_WeightWidthSlopeOnly: 0
OS2_UseTypoMetrics: 1
CreationTime: 1752436236
ModificationTime: 1753049335
PfmFamily: 17
TTFWeight: 400
TTFWidth: 5
LineGap: 73
VLineGap: 0
OS2TypoAscent: 0
OS2TypoAOffset: 1
OS2TypoDescent: 0
OS2TypoDOffset: 1
OS2TypoLinegap: 73
OS2WinAscent: 0
OS2WinAOffset: 1
OS2WinDescent: 0
OS2WinDOffset: 1
HheadAscent: 0
HheadAOffset: 1
HheadDescent: 0
HheadDOffset: 1
OS2Vendor: 'PfEd'
Lookup: 258 0 0 "kernGPOS" { "kernGPOS-1"  } ['kern' ('DFLT' <'dflt' > ) ]
MarkAttachClasses: 1
DEI: 91125
LangName: 1033
Encoding: ISO8859-1
UnicodeInterp: none
NameList: AGL For New Fonts
DisplaySize: -48
AntiAlias: 1
FitToEm: 0
WidthSeparation: 50
WinInfo: 27 27 9
BeginPrivate: 0
EndPrivate
Grid
0 20 m 24
 390 20 610 20 1000 20 c 1048
0 -210 m 28
 390 -210 610 -210 1000 -210 c 1052
  Spiro
    0 -210 {
    1000 -210 o
    0 0 z
  EndSpiro
0 233 m 24
 390 233 610 233 1000 233 c 1048
  Spiro
    0 233 {
    1000 233 o
    0 0 z
  EndSpiro
0 253 m 24
 390 253 610 253 1000 253 c 1048
  Spiro
    0 253 {
    1000 253 o
    0 0 z
  EndSpiro
0 447 m 24
 390 447 610 447 1000 447 c 1048
  Spiro
    0 447 {
    1000 447 o
    0 0 z
  EndSpiro
0 -230 m 28
 390 -230 610 -230 1000 -230 c 1052
  Spiro
    0 -230 {
    1000 -230 o
    0 0 z
  EndSpiro
0 467 m 24
 390 467 610 467 1000 467 c 1048
  Spiro
    0 467 {
    1000 467 o
    0 0 z
  EndSpiro
EndSplineSet

StartChar: exclam
Encoding: 33 33 0
Width: 117
Flags: W
HStem: 0 65<29.5837 88.8244> 447 20G<48.5 59.5>
VStem: 25 67<3.94003 60.039> 31 40<197.563 466.686>
LayerCount: 2
Fore
SplineSet
63 65 m 0xe0
 79 65 92 52 92 34 c 0
 92 11 72 0 56 0 c 0
 43 0 25 9 25 29 c 0
 25 48 42 65 63 65 c 0xe0
71 315 m 0xd0
 71 244 75 218 75 217 c 0
 75 206 66 197 55 197 c 0
 45 197 36 205 35 215 c 0
 32 241 31 275 31 315 c 0
 31 354 33 403 34 447 c 0
 34 458 43 467 54 467 c 0
 65 467 74 458 74 447 c 0
 74 443 71 368 71 315 c 0xd0
EndSplineSet
Validated: 1
EndChar

StartChar: quotedbl
Encoding: 34 34 2
Width: 248
Flags: W
HStem: 295 148
VStem: 25 38<295.033 347.17> 127 38<295.033 347.17>
LayerCount: 2
Fore
SplineSet
203 443 m 0
 214 443 223 434 223 423 c 0
 223 419 222 416 220 413 c 0
 194 370 184 350 165 307 c 0
 162 300 155 295 147 295 c 0
 136 295 127 304 127 315 c 0
 127 318 128 321 129 323 c 0
 148 366 160 390 186 433 c 0
 189 439 196 443 203 443 c 0
84 433 m 1
 84 433 89 443 101 443 c 0
 112 443 121 434 121 423 c 0
 121 419 120 416 118 413 c 0
 92 370 82 350 63 307 c 0
 60 300 53 295 45 295 c 0
 34 295 25 304 25 315 c 0
 25 318 26 321 27 323 c 0
 46 366 58 390 84 433 c 1
EndSplineSet
Validated: 1
EndChar

StartChar: numbersign
Encoding: 35 35 3
Width: 336
Flags: W
HStem: 165 40<33.0066 84> 253 21G<39.5 45.5> 284 40<245 297.45>
VStem: 69 40<43.0066 164.084> 112 40<314 397.686> 170 47<40.5781 170.85> 178 39<39.0066 124.416> 198 30<217.404 279.46> 209 40<324 408.993>
LayerCount: 2
Fore
SplineSet
136 208 m 1xf9
 154 209 170 211 187 213 c 1
 189 225 198 279 198 280 c 1
 182 278 165 276 148 273 c 1
 145 251 141 229 136 208 c 1xf9
298 276 m 0
 286 276 292 284 255 284 c 0
 250 284 244 284 239 284 c 1
 238 275 228 218 228 217 c 1xf9
 246 219 264 220 286 221 c 2
 288 221 l 2
 299 221 301 242 301 231 c 0
 301 220 299 182 289 181 c 0
 264 179 242 178 222 176 c 1
 219 149 216 122 216 95 c 0
 216 84 216 72 217 61 c 0
 217 60 217 60 217 59 c 0xfc
 217 48 208 39 197 39 c 0
 186 39 179 48 178 58 c 0xfa
 177 71 170 113 170 125 c 0xfc
 170 152 178 147 181 172 c 1
 163 170 146 169 126 168 c 1
 117 131 109 96 109 63 c 0
 109 52 100 43 89 43 c 0
 78 43 69 52 69 63 c 0
 69 92 74 125 84 166 c 1
 74 166 65 165 54 165 c 2
 53 165 l 2
 42 165 33 174 33 185 c 0
 33 196 42 205 53 205 c 0
 68 205 82 206 94 206 c 1
 99 225 103 245 106 265 c 1
 87 261 68 258 50 254 c 0
 49 254 46 253 45 253 c 0
 34 253 25 262 25 273 c 0
 25 283 32 291 41 293 c 0
 63 298 87 303 111 307 c 1
 112 316 112 325 112 334 c 0
 112 348 112 362 110 376 c 0
 110 377 109 377 109 378 c 0
 109 389 118 398 129 398 c 0
 139 398 148 391 149 381 c 0
 151 365 152 349 152 334 c 0
 152 327 152 320 152 314 c 1
 170 317 187 319 204 321 c 1
 207 344 209 367 209 390 c 0
 209 401 218 409 229 409 c 0
 240 409 249 400 249 389 c 0xf880
 249 376 248 353 245 324 c 1
 248 324 252 324 255 324 c 0
 284 324 311 349 311 326 c 0
 311 315 309 276 298 276 c 0
EndSplineSet
Validated: 33
EndChar

StartChar: dollar
Encoding: 36 36 4
Width: 276
Flags: W
HStem: 91 40<25.0066 132.546> 323 40<205.327 250.993> 447 20G<182.5 193.5>
VStem: 99 40<257.707 304.301> 133 40<0.00656509 98.5559> 167 40<362 466.941>
LayerCount: 2
Fore
SplineSet
159 305 m 1xf0
 139 294 139 288 139 283 c 0
 139 278 140 269 152 257 c 1
 154 273 157 289 159 305 c 1xf0
182 182 m 1
 181 171 179 161 178 150 c 1
 191 154 201 157 205 160 c 1
 203 167 188 177 182 182 c 1
145 209 m 1
 122 227 99 251 99 283 c 0
 99 294 99 327 164 351 c 1
 166 376 167 402 167 428 c 0
 167 433 168 442 168 447 c 0
 168 458 177 467 188 467 c 0
 199 467 208 458 208 447 c 0
 208 442 207 433 207 428 c 0xf4
 207 405 207 383 205 362 c 1
 212 363 218 363 224 363 c 0
 227 363 230 363 233 363 c 0
 243 362 251 354 251 343 c 0
 251 332 242 323 231 323 c 0
 229 323 228 323 224 323 c 0
 217 323 209 322 201 320 c 1
 198 295 196 285 188 227 c 1
 221 204 245 187 245 159 c 0
 245 133 227 119 175 107 c 1
 174 92 173 77 173 61 c 0
 173 28 173 21 173 20 c 0
 173 9 164 0 153 0 c 0
 143 0 134 8 133 18 c 0
 131 39 133 41 133 61 c 0xe8
 133 74 133 86 134 99 c 1
 103 94 71 91 45 91 c 0
 34 91 25 100 25 111 c 0
 25 122 34 131 45 131 c 0
 70 131 105 134 137 140 c 1
 139 163 142 186 145 209 c 1
EndSplineSet
Validated: 33
EndChar

StartChar: percent
Encoding: 37 37 5
Width: 384
Flags: W
HStem: 27 40<255.055 291.797> 228 40<71.8208 108.046> 398 40<94.7678 151.401> 447 20G<326.5 336.5>
VStem: 25 40<269.282 363.809> 62 40<0.00656509 60.4685> 152 40<324.422 397.905> 215 40<67.3883 116.217> 312 39<415.769 466.985> 319 40<97.3401 154>
LayerCount: 2
Fore
SplineSet
255 77 m 0xf340
 255 71 255 71 258 70 c 0
 264 68 268 67 270 67 c 0
 276 67 281 72 295 91 c 0
 297 93 299 96 301 99 c 0
 311 113 319 137 319 151 c 0
 319 152 319 153 319 154 c 1
 305 148 283 128 266 106 c 0
 259 97 255 84 255 77 c 0xf340
324 195 m 0
 331 195 359 193 359 151 c 0
 359 126 349 97 333 75 c 0
 331 73 330 70 328 68 c 0
 317 52 301 27 270 27 c 0
 261 27 251 30 242 34 c 0
 222 42 215 61 215 77 c 0
 215 97 223 116 234 130 c 0
 250 151 290 195 324 195 c 0
331 467 m 0
 342 467 351 458 351 447 c 0
 351 445 351 442 350 440 c 0
 311 329 118 88 102 16 c 0
 100 7 92 0 82 0 c 0
 71 0 62 9 62 20 c 0
 62 26 66 47 99 104 c 0
 159 206 284 375 312 454 c 0xf780
 315 462 322 467 331 467 c 0
132 438 m 0
 164 438 192 415 192 379 c 0
 192 353 180 328 168 307 c 0
 147 270 120 228 81 228 c 0
 56 228 25 247 25 299 c 0xfb
 25 329 35 360 48 382 c 0
 66 413 97 438 132 438 c 0
132 398 m 0
 117 398 95 384 82 362 c 0
 73 346 65 320 65 299 c 0
 65 279 71 271 77 269 c 0
 79 268 80 268 81 268 c 0
 85 268 93 272 103 282 c 0
 115 294 126 313 134 327 c 0
 144 345 152 366 152 379 c 0
 152 388 149 392 143 395 c 0
 139 397 136 398 132 398 c 0
EndSplineSet
Validated: 1
EndChar

StartChar: ampersand
Encoding: 38 38 6
Width: 386
Flags: W
HStem: -1 40<67.5732 152.013> 426 40<175.67 227.951>
VStem: 25 40<47.2542 117.174> 100 40<281.021 388.313> 231 40<305.745 425.664>
LayerCount: 2
Fore
SplineSet
65 60 m 0
 65 56 65 55 69 51 c 0
 75 45 89 39 102 39 c 0
 128 39 160 63 186 82 c 0
 191 86 196 90 201 94 c 1
 189 113 199 126 186 146 c 0
 178 158 167 179 155 201 c 1
 143 191 132 181 125 172 c 0
 89 125 86 122 77 104 c 0
 69 89 65 74 65 60 c 0
102 -1 m 0
 68 -1 25 17 25 60 c 0
 25 107 57 149 85 185 c 0
 101 206 108 215 136 237 c 1
 101 306 100 317 100 336 c 0
 100 397 144 434 167 451 c 0
 180 460 194 466 209 466 c 0
 231 466 251 453 261 430 c 0
 268 414 271 397 271 381 c 0
 271 344 258 310 245 283 c 0
 235 261 214 244 188 225 c 1
 201 201 213 180 220 168 c 0
 236 142 233 118 235 115 c 0
 237 116 238 117 240 118 c 0
 277 136 292 155 330 179 c 0
 333 181 337 182 341 182 c 0
 352 182 361 173 361 162 c 0
 361 155 358 149 352 145 c 0
 320 125 302 106 269 88 c 1
 287 74 308 57 332 35 c 0
 336 31 338 26 338 20 c 0
 338 9 329 0 318 0 c 0
 313 0 308 2 304 5 c 0
 276 31 253 49 232 66 c 1
 225 61 218 56 210 50 c 0
 177 25 142 -1 102 -1 c 0
231 381 m 0
 231 393 230 404 225 414 c 0
 221 423 215 426 209 426 c 0
 204 426 198 424 191 419 c 0
 171 405 140 375 140 336 c 0
 140 326 140 319 167 265 c 0
 168 264 168 262 169 261 c 0
 182 271 202 287 209 301 c 0
 221 325 231 355 231 381 c 0
EndSplineSet
Validated: 1
EndChar

StartChar: quotesingle
Encoding: 39 39 7
Width: 146
Flags: W
HStem: 295 148
VStem: 25 38<295.033 347.17>
LayerCount: 2
Fore
SplineSet
84 433 m 1
 84 433 89 443 101 443 c 0
 112 443 121 434 121 423 c 0
 121 419 120 416 118 413 c 0
 92 370 82 350 63 307 c 0
 60 300 53 295 45 295 c 0
 34 295 25 304 25 315 c 0
 25 318 26 321 27 323 c 0
 46 366 58 390 84 433 c 1
EndSplineSet
Validated: 1
EndChar

StartChar: parenleft
Encoding: 40 40 8
Width: 187
Flags: W
VStem: 25 40<-45.7493 305.331>
LayerCount: 2
Fore
SplineSet
142 448 m 0
 153 448 162 439 162 428 c 0
 162 423 160 418 156 414 c 0
 80 336 65 265 65 186 c 0
 65 173 65 174 67 126 c 0
 71 18 75 -90 138 -139 c 0
 143 -143 146 -149 146 -155 c 0
 146 -166 137 -175 126 -175 c 0
 121 -175 117 -174 114 -171 c 0
 36 -110 31 11 27 124 c 0
 25 173 25 172 25 186 c 0
 25 272 42 354 128 442 c 0
 132 446 136 448 142 448 c 0
EndSplineSet
Validated: 1
EndChar

StartChar: parenright
Encoding: 41 41 9
Width: 187
Flags: W
VStem: 122 40<-45.7493 306.331>
LayerCount: 2
Fore
SplineSet
45 449 m 0
 51 449 55 447 59 443 c 0
 145 355 162 273 162 187 c 0
 162 173 162 174 160 125 c 0
 156 12 151 -109 73 -170 c 0
 70 -173 66 -174 61 -174 c 0
 50 -174 41 -165 41 -154 c 0
 41 -148 44 -143 49 -139 c 0
 112 -90 116 18 120 126 c 0
 122 174 122 174 122 187 c 0
 122 266 107 337 31 415 c 0
 27 419 25 424 25 429 c 0
 25 440 34 449 45 449 c 0
EndSplineSet
Validated: 1
EndChar

StartChar: asterisk
Encoding: 42 42 10
Width: 282
Flags: W
HStem: 305 40<25.0066 87.9775>
VStem: 111 40<335 393.648> 120 40<336.026 433.941>
LayerCount: 2
Fore
SplineSet
120 395 m 0xa0
 120 405 119 411 119 414 c 0
 119 425 128 434 139 434 c 0
 149 434 158 427 159 417 c 0
 160 409 160 402 160 395 c 0xa0
 160 366 151 347 151 331 c 0
 151 330 151 330 151 329 c 1
 207 345 223 368 237 368 c 0
 248 368 257 359 257 348 c 0
 257 341 254 335 248 331 c 0
 224 316 203 305 178 296 c 1
 198 280 214 262 233 248 c 1
 233 248 241 243 241 232 c 0
 241 221 232 212 221 212 c 0
 213 212 208 215 177 244 c 0
 160 260 145 273 126 281 c 1
 107 257 92 238 67 214 c 0
 63 211 58 208 53 208 c 0
 42 208 33 217 33 228 c 0
 33 244 43 240 89 298 c 1
 67 301 57 303 42 305 c 0
 32 306 25 315 25 325 c 0
 25 336 34 345 45 345 c 0
 46 345 47 345 48 345 c 0
 66 342 110 335 111 335 c 0xc0
 112 357 120 372 120 395 c 0xa0
EndSplineSet
Validated: 1
EndChar

StartChar: comma
Encoding: 44 44 11
Width: 146
Flags: W
HStem: -68 148
VStem: 25 38<-67.9674 -15.8302>
LayerCount: 2
Fore
SplineSet
84 70 m 1
 84 70 89 80 101 80 c 0
 112 80 121 71 121 60 c 0
 121 56 120 53 118 50 c 0
 92 7 82 -13 63 -56 c 0
 60 -63 53 -68 45 -68 c 0
 34 -68 25 -59 25 -48 c 0
 25 -45 26 -42 27 -40 c 0
 46 3 58 27 84 70 c 1
EndSplineSet
Validated: 1
EndChar

StartChar: hyphen
Encoding: 45 45 12
Width: 293
Flags: W
HStem: 116 40<25.0066 205.927 209.384 267.238> 129 40<39.0816 252.894>
VStem: 25 243<129.142 155.982>
LayerCount: 2
Fore
SplineSet
208 129 m 0x60
 169 129 108 116 45 116 c 0
 34 116 25 125 25 136 c 0
 25 147 34 156 45 156 c 0xa0
 106 156 164 169 208 169 c 0
 226 169 244 167 259 158 c 0
 265 154 268 148 268 141 c 0
 268 130 259 121 248 121 c 0
 237 121 238 129 208 129 c 0x60
EndSplineSet
Validated: 1
EndChar

StartChar: period
Encoding: 46 46 13
Width: 117
Flags: W
HStem: 0 65<29.5837 88.8244>
VStem: 25 67<3.94003 60.039>
LayerCount: 2
Fore
SplineSet
63 65 m 0
 79 65 92 52 92 34 c 0
 92 11 72 0 56 0 c 0
 43 0 25 9 25 29 c 0
 25 48 42 65 63 65 c 0
EndSplineSet
Validated: 1
EndChar

StartChar: slash
Encoding: 47 47 14
Width: 287
Flags: W
HStem: 447 20G<236.5 247.5>
VStem: 25 237
LayerCount: 2
Fore
SplineSet
226 459 m 1
 226 459 231 467 242 467 c 0
 253 467 262 458 262 447 c 0
 262 443 260 438 258 435 c 0
 193 345 142 111 61 8 c 0
 57 3 51 0 45 0 c 0
 34 0 25 9 25 20 c 0
 25 25 26 29 29 32 c 0
 104 127 157 363 226 459 c 1
EndSplineSet
Validated: 1
EndChar

StartChar: at
Encoding: 64 64 15
Width: 482
Flags: W
HStem: 1 40<175.464 315.865> 126 40<196.631 243.513> 148 40<337.231 380.826> 313 40<236.609 296.952> 427 40<196.09 341.959>
VStem: 25 40<156.176 313.313> 154 40<170.333 268.72> 279 52<213.01 311.04> 417 40<238.426 360.365>
LayerCount: 2
Fore
SplineSet
300 190 m 1xbf80
 278 162 249 126 212 126 c 0xdf80
 196 126 180 134 168 148 c 0
 158 159 154 175 154 195 c 0
 154 231 167 281 194 310 c 0
 223 342 259 353 294 353 c 0
 303 353 312 352 320 351 c 0
 325 350 327 349 333 344 c 0
 338 340 341 334 341 328 c 0
 341 326 340 325 340 323 c 2
 340 323 331 285 331 248 c 0
 331 233 333 200 349 191 c 0
 353 189 355 188 357 188 c 0
 373 188 395 223 407 265 c 0
 415 292 417 303 417 315 c 0
 417 330 413 345 390 369 c 0
 347 414 308 427 273 427 c 0
 229 427 187 405 152 382 c 0
 112 357 65 319 65 219 c 0
 65 207 65 172 108 121 c 0
 125 101 144 84 159 72 c 0
 171 63 182 56 184 55 c 0
 209 45 230 41 248 41 c 0
 308 41 341 83 379 97 c 0
 381 98 384 98 386 98 c 0
 397 98 406 89 406 78 c 0
 406 69 401 62 393 59 c 0
 364 48 321 1 248 1 c 0
 224 1 197 7 168 19 c 0
 141 30 27 117 25 213 c 0
 25 215 25 217 25 219 c 0
 25 341 88 389 130 416 c 0
 167 440 216 467 273 467 c 0
 320 467 369 448 418 397 c 0
 445 368 457 342 457 315 c 0
 457 298 455 289 445 255 c 0
 438 231 412 148 357 148 c 0
 343 148 314 154 300 190 c 1xbf80
294 313 m 0
 195 313 194 199 194 195 c 0
 194 181 198 174 198 174 c 1
 205 167 209 166 212 166 c 0
 230 166 256 198 268 213 c 2
 268 213 279 227 279 228 c 0
 286 241 290 271 297 313 c 1
 296 313 295 313 294 313 c 0
EndSplineSet
Validated: 1
EndChar

StartChar: asciicircum
Encoding: 94 94 16
Width: 270
Flags: W
HStem: 364 40<110.384 163.904>
VStem: 25 38<260.026 304.639>
LayerCount: 2
Fore
SplineSet
45 260 m 0
 34 260 25 269 25 280 c 0
 25 283 26 286 27 289 c 0
 49 335 88 399 133 404 c 0
 136 404 138 404 141 404 c 0
 203 404 206 327 239 294 c 0
 243 290 245 286 245 280 c 0
 245 269 236 260 225 260 c 0
 219 260 215 262 211 266 c 0
 173 304 169 364 141 364 c 0
 118 364 86 319 63 271 c 0
 60 264 53 260 45 260 c 0
EndSplineSet
Validated: 1
EndChar

StartChar: question
Encoding: 63 63 17
Width: 229
Flags: W
HStem: 2 65<29.5837 88.8244> 427 40<97.7884 163.251>
VStem: 25 67<5.94003 62.039> 164 40<330.493 426.873>
LayerCount: 2
Fore
SplineSet
143 427 m 0
 120 427 68 385 50 385 c 0
 39 385 30 394 30 405 c 0
 30 413 35 420 42 423 c 0
 77 438 109 467 143 467 c 0
 161 467 179 458 192 442 c 0
 202 430 204 415 204 401 c 0
 204 335 145 224 74 186 c 0
 71 185 68 184 65 184 c 0
 54 184 45 193 45 204 c 0
 45 212 50 219 56 222 c 0
 115 253 164 353 164 401 c 0
 164 411 161 415 160 416 c 0
 153 425 148 427 143 427 c 0
63 67 m 0
 79 67 92 54 92 36 c 0
 92 13 72 2 56 2 c 0
 43 2 25 11 25 31 c 0
 25 50 42 67 63 67 c 0
EndSplineSet
Validated: 1
EndChar

StartChar: colon
Encoding: 58 58 18
Width: 117
Flags: W
HStem: 0 65<29.5837 88.8244> 188 65<30.3518 89.1375>
VStem: 25 67<3.94003 60.039 191.667 248.039>
LayerCount: 2
Fore
SplineSet
63 65 m 0
 79 65 92 52 92 34 c 0
 92 11 72 0 56 0 c 0
 43 0 25 9 25 29 c 0
 25 48 42 65 63 65 c 0
63 253 m 0
 79 253 92 239 92 221 c 0
 92 198 72 188 56 188 c 0
 43 188 26 197 26 217 c 0
 26 236 42 253 63 253 c 0
EndSplineSet
Validated: 1
EndChar

StartChar: semicolon
Encoding: 59 59 19
Width: 146
Flags: W
HStem: 188 65<50.3518 109.138>
VStem: 25 38<-72.9674 -20.8302> 46 66<191.667 248.477>
LayerCount: 2
Fore
SplineSet
83 253 m 0xa0
 99 253 112 239 112 221 c 0
 112 198 92 188 76 188 c 0
 63 188 46 197 46 217 c 0
 46 236 62 253 83 253 c 0xa0
84 65 m 1
 84 65 89 75 101 75 c 0
 112 75 121 66 121 55 c 0
 121 51 120 48 118 45 c 0
 92 2 82 -18 63 -61 c 0
 60 -68 53 -73 45 -73 c 0
 34 -73 25 -64 25 -53 c 0xc0
 25 -50 26 -47 27 -45 c 0
 46 -2 58 22 84 65 c 1
EndSplineSet
Validated: 1
EndChar

StartChar: equal
Encoding: 61 61 20
Width: 291
Flags: W
HStem: 61 40<25.0066 194.109> 75 40<47.4461 226.626> 167 40<41.0586 213.347> 179 40<87.1148 245.607>
VStem: 25 240
LayerCount: 2
Fore
SplineSet
196 75 m 0x48
 161 75 97 62 45 61 c 0
 34 61 25 70 25 81 c 0
 25 92 34 101 45 101 c 0x88
 94 102 156 115 196 115 c 0
 209 115 220 115 232 108 c 1
 232 108 247 98 247 84 c 0
 247 73 238 64 227 64 c 0
 219 64 213 68 210 74 c 0
 208 74 203 75 196 75 c 0x48
215 179 m 0x18
 185 179 132 167 85 167 c 0
 76 167 67 167 58 168 c 0
 48 169 41 178 41 188 c 0
 41 199 50 208 61 208 c 0
 64 208 70 207 85 207 c 0x28
 128 207 180 219 215 219 c 0x18
 225 219 255 218 265 194 c 0
 266 192 266 190 266 187 c 0
 266 176 257 167 246 167 c 0x28
 238 167 232 171 229 177 c 0
 227 178 222 179 215 179 c 0x18
EndSplineSet
Validated: 1
EndChar

StartChar: bracketleft
Encoding: 91 91 21
Width: 233
Flags: W
HStem: -143 40<66.9629 189.116> 422 40<66.1328 174.797>
VStem: 27.1328 39<-109 58.992>
LayerCount: 2
Fore
SplineSet
53.1328125 -151 m 0
 32.1328125 -151 27.1328125 -134 27.1328125 -130 c 0
 27.1328125 -129 27.1328125 -129 27.1328125 -128 c 0
 20.1328125 122 40.1328125 256 25.1328125 435 c 0
 23.1328125 454 44.1328125 457 57.1328125 459 c 0
 71.1328125 461 91.1328125 462 112.1328125 462 c 0
 176.1328125 462 195.1328125 449 203.1328125 440 c 0
 206.1328125 437 207.1328125 433 208.1328125 428 c 0
 209.1328125 417 202.1328125 408 191.1328125 408 c 0
 185.1328125 408 179.1328125 411 175.1328125 415 c 0
 168.1328125 418 150.1328125 422 117.1328125 422 c 0
 98.1328125 422 78.1328125 421 66.1328125 419 c 1
 78.1328125 253 61.1328125 112 66.1328125 -109 c 1
 96.1328125 -105 113.1328125 -103 135.1328125 -103 c 0
 155.1328125 -103 175.1328125 -104 193.1328125 -115 c 0
 199.1328125 -119 203.1328125 -125 204.1328125 -132 c 0
 205.1328125 -143 197.1328125 -152 186.1328125 -152 c 0
 182.1328125 -152 178.1328125 -151 175.1328125 -149 c 0
 170.1328125 -146 157.1328125 -143 140.1328125 -143 c 0
 106.1328125 -143 69.1328125 -151 53.1328125 -151 c 0
EndSplineSet
Validated: 33
EndChar

StartChar: bracketright
Encoding: 93 93 22
Width: 233
Flags: W
HStem: -143 40<44.1111 166.265> 422 40<45.5469 166.695>
VStem: 167.095 39<-109 420.997>
LayerCount: 2
Fore
SplineSet
180.094726562 -151 m 0
 164.094726562 -151 127.094726562 -143 93.0947265625 -143 c 0
 76.0947265625 -143 63.0947265625 -146 58.0947265625 -149 c 0
 55.0947265625 -151 51.0947265625 -152 47.0947265625 -152 c 0
 36.0947265625 -152 28.0947265625 -143 29.0947265625 -132 c 0
 30.0947265625 -125 34.0947265625 -119 40.0947265625 -115 c 0
 58.0947265625 -104 78.0947265625 -103 98.0947265625 -103 c 0
 120.094726562 -103 137.094726562 -105 167.094726562 -109 c 1
 172.094726562 112 155.094726562 253 167.094726562 419 c 1
 155.094726562 421 135.094726562 422 116.094726562 422 c 0
 83.0947265625 422 65.0947265625 418 58.0947265625 415 c 0
 54.0947265625 411 48.0947265625 408 42.0947265625 408 c 0
 31.0947265625 408 24.0947265625 417 25.0947265625 428 c 0
 26.0947265625 433 27.0947265625 437 30.0947265625 440 c 0
 38.0947265625 449 57.0947265625 462 121.094726562 462 c 0
 142.094726562 462 162.094726562 461 176.094726562 459 c 0
 189.094726562 457 210.094726562 454 208.094726562 435 c 0
 193.094726562 256 213.094726562 122 206.094726562 -128 c 0
 206.094726562 -129 206.094726562 -129 206.094726562 -130 c 0
 206.094726562 -134 201.094726562 -151 180.094726562 -151 c 0
EndSplineSet
Validated: 33
EndChar

StartChar: backslash
Encoding: 92 92 23
Width: 285
Flags: W
HStem: 447 20G<39.5 48.5>
VStem: 25 235
LayerCount: 2
Fore
SplineSet
25 447 m 0
 25 458 34 467 45 467 c 0
 52 467 57 464 61 459 c 0
 183 298 222 88 257 31 c 0
 259 28 260 24 260 20 c 0
 260 9 251 0 240 0 c 0
 233 0 227 3 223 9 c 0
 182 74 147 280 29 435 c 0
 26 438 25 442 25 447 c 0
EndSplineSet
Validated: 1
EndChar

StartChar: underscore
Encoding: 95 95 24
Width: 354
Flags: W
HStem: -25 40<25.0066 229.415 233.591 328.892> -11 40<44.4905 313.842>
LayerCount: 2
Fore
SplineSet
232 -11 m 0x40
 182 -11 76 -25 45 -25 c 0
 34 -25 25 -16 25 -5 c 0
 25 6 33 15 44 15 c 0x80
 112 18 177 29 232 29 c 0
 266 29 296 25 320 10 c 0
 326 6 329 0 329 -7 c 0
 329 -18 320 -27 309 -27 c 0
 305 -27 301 -26 298 -24 c 0
 285 -16 263 -11 232 -11 c 0x40
EndSplineSet
Validated: 1
EndChar

StartChar: grave
Encoding: 96 96 25
Width: 146
Flags: W
HStem: 295 148
VStem: 83 38<295.033 347.17>
LayerCount: 2
Fore
SplineSet
62 433 m 1
 88 390 100 366 119 323 c 0
 120 321 121 318 121 315 c 0
 121 304 112 295 101 295 c 0
 93 295 86 300 83 307 c 0
 64 350 54 370 28 413 c 0
 26 416 25 419 25 423 c 0
 25 434 34 443 45 443 c 0
 57 443 62 433 62 433 c 1
EndSplineSet
Validated: 1
EndChar

StartChar: braceleft
Encoding: 123 123 26
Width: 268
Flags: W
HStem: -181 40<140.739 227.32> 92 40<25.0066 99.5636> 416 40<159.05 238.993>
VStem: 96 40<-96 71.1003 136 276.564> 112 40<-93.2676 80 144.311 278 355 407.821>
LayerCount: 2
Fore
SplineSet
109 278 m 0xe8
 109 299 105 329 105 355 c 0
 105 381 110 406 127 429 c 0
 145 455 181 455 209 456 c 0
 215 456 219 456 219 456 c 2
 230 456 239 447 239 436 c 0
 239 425 231 416 220 416 c 0
 181 414 181 414 173 412 c 0
 165 410 160 407 159 405 c 0
 147 389 145 376 145 355 c 0
 145 331 149 301 149 278 c 0
 149 248 147 177 139 136 c 0
 137 129 133 123 129 118 c 1
 152 104 152 83 152 73 c 0xe8
 152 33 136 -41 136 -96 c 1
 136 -96 136 -126 142 -130 c 0
 154 -138 165 -141 177 -141 c 0
 201 -141 212 -128 223 -128 c 0
 234 -128 243 -137 243 -148 c 0
 243 -155 239 -162 233 -166 c 0
 215 -176 196 -181 177 -181 c 0
 157 -181 138 -174 120 -162 c 0
 98 -147 96 -117 96 -96 c 0xf0
 96 -38 112 39 112 73 c 0
 112 76 112 79 112 80 c 0
 109 86 89 92 59 92 c 0
 56 92 45 92 45 92 c 2
 34 92 25 101 25 112 c 0
 25 122 33 131 43 132 c 0
 62 133 91 136 100 145 c 1
 107 180 109 251 109 278 c 0xe8
EndSplineSet
Validated: 1
EndChar

StartChar: braceright
Encoding: 125 125 27
Width: 268
Flags: W
HStem: -181 40<40.6801 127.261> 92 40<168.436 242.993> 416 40<29.0066 108.95>
VStem: 119 40<-93.2676 89.4269 143.298 353.825> 132 40<-96 71.1003>
LayerCount: 2
Fore
SplineSet
159 278 m 0xf0
 159 251 161 180 168 145 c 1
 177 136 206 133 225 132 c 0
 235 131 243 122 243 112 c 0
 243 101 234 92 223 92 c 2
 223 92 212 92 209 92 c 0
 179 92 159 86 156 80 c 0
 156 79 156 76 156 73 c 0
 156 39 172 -38 172 -96 c 0
 172 -117 170 -147 148 -162 c 0
 130 -174 111 -181 91 -181 c 0
 72 -181 53 -176 35 -166 c 0
 29 -162 25 -155 25 -148 c 0
 25 -137 34 -128 45 -128 c 0
 56 -128 67 -141 91 -141 c 0
 103 -141 114 -138 126 -130 c 0
 132 -126 132 -96 132 -96 c 1xe8
 132 -41 116 33 116 73 c 0
 116 83 116 104 139 118 c 1
 135 123 131 129 129 136 c 0
 121 177 119 248 119 278 c 0
 119 301 123 331 123 355 c 0
 123 376 121 389 109 405 c 0
 108 407 103 410 95 412 c 0
 87 414 87 414 48 416 c 0
 37 416 29 425 29 436 c 0
 29 447 38 456 49 456 c 2
 49 456 53 456 59 456 c 0
 87 455 123 455 141 429 c 0
 158 406 163 381 163 355 c 0
 163 329 159 299 159 278 c 0xf0
EndSplineSet
Validated: 1
EndChar

StartChar: bar
Encoding: 124 124 28
Width: 120
Flags: W
HStem: 447 20G<69.5 80.5>
VStem: 25 40<0.00656509 204.525> 55 40<242.902 466.993>
LayerCount: 2
Fore
SplineSet
55 431 m 0xa0
 55 440 55 446 55 447 c 0
 55 458 64 467 75 467 c 0
 86 467 95 459 95 448 c 0
 95 442 95 437 95 431 c 0xa0
 95 316 67 198 65 20 c 0
 65 9 56 0 45 0 c 0
 34 0 25 9 25 20 c 0xc0
 25 170 55 327 55 431 c 0xa0
EndSplineSet
Validated: 1
EndChar

StartChar: asciitilde
Encoding: 126 126 29
Width: 379
Flags: W
HStem: 106 40<226.937 275.886> 166 40<96.8672 189.558>
LayerCount: 2
Fore
SplineSet
45 114 m 0
 34 114 25 123 25 134 c 0
 25 141 28 147 34 151 c 0
 62 169 79 186 107 197 c 0
 122 203 139 206 161 206 c 0
 189 206 200 198 223 170 c 0
 237 153 245 146 253 146 c 0
 258 146 271 159 279 169 c 0
 291 185 305 205 317 225 c 0
 321 231 327 235 334 235 c 0
 345 235 354 226 354 215 c 0
 354 211 353 208 351 205 c 0
 314 144 286 106 253 106 c 0
 221 106 204 130 192 144 c 0
 174 166 173 166 161 166 c 0
 123 166 108 155 84 137 c 0
 53 114 51 114 45 114 c 0
EndSplineSet
Validated: 1
EndChar

StartChar: zero
Encoding: 48 48 30
Width: 321
Flags: W
HStem: 0 40<109.99 162.288> 427 40<122.048 230.416>
VStem: 25 40<106.033 313.509> 256 40<200.136 397.85>
LayerCount: 2
Fore
SplineSet
135 0 m 0
 74 0 25 112 25 204 c 0
 25 228 26 235 35 276 c 0
 62 402 76 467 191 467 c 0
 258 467 296 402 296 307 c 0
 296 286 294 266 291 247 c 0
 280 186 232 68 182 22 c 0
 169 10 154 0 135 0 c 0
256 307 m 0
 256 332 252 427 191 427 c 0
 110 427 102 397 74 268 c 0
 65 228 65 224 65 204 c 0
 65 141 93 69 122 46 c 0
 128 41 133 40 135 40 c 0
 143 40 165 55 193 103 c 0
 221 152 246 218 252 254 c 0
 255 271 256 289 256 307 c 0
EndSplineSet
Validated: 1
EndChar

StartChar: one
Encoding: 49 49 31
Width: 124
Flags: W
HStem: 447 20G<73.5 84.5>
VStem: 25 40<0.00656509 205.577> 59 40<258.75 466.993>
LayerCount: 2
Fore
SplineSet
79 467 m 0xa0
 90 467 99 458 99 447 c 2
 99 446 l 1xa0
 93 278 69 250 65 20 c 0
 65 9 56 0 45 0 c 0
 34 0 25 9 25 20 c 0xc0
 29 250 53 284 59 448 c 0
 59 459 68 467 79 467 c 0xa0
EndSplineSet
Validated: 1
EndChar

StartChar: two
Encoding: 50 50 32
Width: 355
Flags: W
HStem: 28 40<108.9 329.941> 427 40<157.839 248.29>
VStem: 249 40<330.962 426.581>
LayerCount: 2
Fore
SplineSet
49 1 m 0
 25 1 25 21 25 22 c 0
 25 27 26 32 33 38 c 0
 46 49 152 185 175 225 c 0
 177 229 179 233 182 238 c 0
 205 278 249 354 249 403 c 0
 249 418 247 427 227 427 c 0
 218 427 208 425 198 422 c 0
 140 405 119 387 60 336 c 0
 56 333 52 331 47 331 c 0
 36 331 27 340 27 351 c 0
 27 360 32 364 36 367 c 0
 90 414 120 441 186 460 c 0
 198 463 212 467 227 467 c 0
 247 467 289 460 289 403 c 0
 289 346 248 272 217 218 c 0
 214 213 211 209 209 205 c 0
 187 167 114 73 93 47 c 1
 180 61 231 68 284 68 c 0
 294 68 303 68 312 67 c 0
 322 66 330 57 330 47 c 0
 330 36 321 27 310 27 c 0
 308 27 300 28 284 28 c 0
 201 28 77 1 49 1 c 0
EndSplineSet
Validated: 1
EndChar

StartChar: G
Encoding: 71 71 33
Width: 375
Flags: W
HStem: 9 40<106.72 200.744> 447 20G<234 240.5>
VStem: 25 40<92.6793 256.84> 310 40<0.0312195 99.2969 144 203.67>
LayerCount: 2
Fore
SplineSet
330 0 m 0
 304 0 304 43 304 57 c 0
 304 70 305 85 306 100 c 1
 298 93 289 86 280 79 c 0
 234 41 195 9 157 9 c 0
 155 9 39 13 27 147 c 0
 26 162 25 174 25 185 c 0
 25 226 36 248 50 276 c 0
 52 280 55 285 57 290 c 0
 97 371 151 443 229 466 c 0
 231 467 233 467 235 467 c 0
 246 467 255 458 255 447 c 0
 255 438 249 430 241 428 c 0
 181 410 131 350 93 272 c 0
 90 267 87 262 85 258 c 0
 71 230 65 220 65 185 c 0
 65 115 83 88 103 71 c 0
 126 51 155 49 157 49 c 0
 181 49 222 83 255 110 c 0
 268 121 280 131 293 141 c 0
 296 144 300 145 305 145 c 0
 306 145 308 144 309 144 c 0
 310 156 310 167 310 177 c 0
 310 187 310 197 308 204 c 1
 306 203 303 201 299 199 c 0
 283 190 256 175 207 161 c 0
 205 160 203 160 201 160 c 0
 190 160 181 169 181 180 c 0
 181 189 188 197 196 199 c 0
 277 223 286 246 310 246 c 0
 318 246 326 243 331 239 c 0
 345 230 350 212 350 177 c 0
 350 140 344 90 344 57 c 0
 344 23 350 32 350 20 c 0
 350 9 341 0 330 0 c 0
EndSplineSet
Validated: 513
PairPos2: "kernGPOS-1" } dx=0 dy=0 dh=0 dv=0 dx=0 dy=0 dh=0 dv=0
PairPos2: "kernGPOS-1" ` dx=0 dy=0 dh=0 dv=0 dx=0 dy=0 dh=0 dv=0
PairPos2: "kernGPOS-1" ] dx=0 dy=0 dh=0 dv=0 dx=0 dy=0 dh=0 dv=0
PairPos2: "kernGPOS-1" \ dx=0 dy=0 dh=0 dv=0 dx=0 dy=0 dh=0 dv=0
PairPos2: "kernGPOS-1" 7 dx=0 dy=0 dh=0 dv=0 dx=0 dy=0 dh=0 dv=0
PairPos2: "kernGPOS-1" * dx=0 dy=0 dh=0 dv=0 dx=0 dy=0 dh=0 dv=0
PairPos2: "kernGPOS-1" ) dx=0 dy=0 dh=0 dv=0 dx=0 dy=0 dh=0 dv=0
PairPos2: "kernGPOS-1" ' dx=0 dy=0 dh=0 dv=0 dx=0 dy=0 dh=0 dv=0
PairPos2: "kernGPOS-1" " dx=0 dy=0 dh=0 dv=0 dx=0 dy=0 dh=0 dv=0
EndChar

StartChar: three
Encoding: 51 51 34
Width: 391
Flags: W
HStem: 394 39<100.015 176.209> 428 40<168.631 325.212>
VStem: 239 40<85.5909 183.224> 326 40<389.535 426.821>
LayerCount: 2
Fore
SplineSet
120 394 m 0xb0
 109 394 100 403 100 414 c 0
 100 423 105 430 113 433 c 0xb0
 182 457 240 468 288 468 c 0
 312 468 338 466 355 447 c 0
 361 440 366 429 366 418 c 0
 366 407 362 396 355 385 c 0
 311 315 219 296 196 248 c 1
 199 245 206 240 214 235 c 0
 247 214 279 194 279 138 c 0
 279 135 279 96 262 72 c 0
 227 24 169 17 108 9 c 0
 74 4 46 0 45 0 c 0
 34 0 25 9 25 20 c 0
 25 30 32 38 41 40 c 0
 62 44 83 46 102 49 c 0
 166 58 207 66 229 96 c 0
 232 101 239 117 239 138 c 0
 239 149 238 160 234 167 c 0
 224 188 185 204 168 220 c 0
 162 225 154 234 154 247 c 0
 154 251 155 255 156 258 c 0
 182 329 281 344 321 407 c 0
 325 414 326 417 326 418 c 0
 326 422 313 426 306 427 c 0
 300 427 294 428 288 428 c 0x70
 247 428 192 418 126 395 c 0
 124 394 122 394 120 394 c 0xb0
EndSplineSet
Validated: 1
EndChar

StartChar: four
Encoding: 52 52 35
Width: 361
Flags: W
HStem: 227 40<65.6443 136.457> 282 40<203.66 320.04> 446 20G<60.5 71.5>
VStem: 25 40<267.242 404.681> 46 40<292.354 465.993> 122 40<35.6518 187.809> 178 40<312.668 449.993>
LayerCount: 2
Fore
SplineSet
46 436 m 0xee
 46 441 46 446 46 446 c 2
 46 457 55 466 66 466 c 0
 77 466 86 458 86 447 c 0
 86 443 86 440 86 436 c 0xee
 86 369 65 301 65 274 c 0
 65 272 66 271 66 270 c 0
 68 268 70 267 75 267 c 0
 87 267 109 275 135 286 c 0
 143 289 152 293 160 296 c 1
 170 356 178 409 178 428 c 2
 178 430 l 2
 178 441 187 450 198 450 c 0
 200 450 218 448 218 428 c 0
 218 405 212 361 203 310 c 1
 223 315 220 313 249 318 c 0
 260 320 271 322 283 322 c 0
 324 322 336 290 336 282 c 0
 336 271 327 262 316 262 c 0
 308 262 301 267 298 274 c 0
 296 279 294 282 283 282 c 0
 271 282 251 277 232 275 c 0
 220 274 208 271 195 267 c 1
 179 172 169 112 165 74 c 0
 164 64 162 54 162 49 c 0
 162 46 162 44 174 39 c 1
 174 38 l 1
 181 35 186 28 186 20 c 0
 186 9 177 0 166 0 c 0
 159 0 122 12 122 49 c 0
 122 60 124 69 125 78 c 0
 127 101 130 120 152 250 c 1
 115 235 98 227 75 227 c 0
 61 227 47 232 36 243 c 0
 26 253 25 265 25 274 c 0xf6
 25 309 46 372 46 436 c 0xee
EndSplineSet
Validated: 1
EndChar

StartChar: five
Encoding: 53 53 36
Width: 386
Flags: W
HStem: 0 39<45.3274 154.693> 428 40<149.625 329.938>
VStem: 236 40<95.8976 200.566>
LayerCount: 2
Fore
SplineSet
361 425 m 0
 361 414 352 405 341 405 c 0
 322 405 324 428 299 428 c 0
 298 428 298 428 276 427 c 0
 215 424 175 422 128 400 c 1
 146 330 242 246 262 215 c 0
 272 200 276 179 276 156 c 0
 276 126 269 91 243 65 c 0
 202 24 146 11 78 0 c 0
 60 -3 42 -1 28 20 c 0
 26 23 25 27 25 31 c 0
 25 42 34 51 45 51 c 0
 52 51 58 47 62 42 c 0
 64 39 64 39 66 39 c 0
 67 39 69 40 72 40 c 0
 140 50 183 62 214 93 c 0
 229 108 236 133 236 156 c 0
 236 174 232 189 229 193 c 0
 212 219 107 311 88 392 c 0
 83 396 80 401 80 408 c 0
 80 413 82 417 85 421 c 0
 87 430 95 438 105 438 c 0
 107 438 110 437 112 436 c 0
 166 461 210 464 283 467 c 0
 296 468 297 468 299 468 c 0
 319 468 336 462 356 439 c 0
 359 435 361 430 361 425 c 0
EndSplineSet
Validated: 33
EndChar

StartChar: six
Encoding: 54 54 37
Width: 271
Flags: W
HStem: -1 40<114.159 189.159> 160 40<115.933 194.972> 447 20G<171 181.5>
VStem: 62 40<49.6329 113.489> 156 40<384.047 466.993> 206 40<64.1186 151.814>
LayerCount: 2
Fore
SplineSet
62 114 m 1
 54 108 51 107 45 107 c 0
 34 107 25 116 25 127 c 0
 25 134 29 139 34 143 c 0
 46 151 57 159 69 166 c 1
 91 276 138 370 156 451 c 0
 158 460 166 467 176 467 c 0
 187 467 196 458 196 447 c 0
 196 446 196 444 196 443 c 0
 179 366 138 283 115 189 c 1
 132 196 149 200 165 200 c 0
 219 200 246 146 246 99 c 0
 246 71 236 37 196 13 c 0
 182 5 166 -1 148 -1 c 0
 114 -1 62 24 62 105 c 0
 62 108 62 111 62 114 c 1
206 99 m 0
 206 116 198 160 165 160 c 0
 155 160 136 156 105 140 c 1
 103 131 102 118 102 105 c 0
 102 80 108 58 126 46 c 0
 134 41 141 39 148 39 c 0
 171 39 192 58 200 72 c 0
 204 79 206 88 206 99 c 0
EndSplineSet
Validated: 1
EndChar

StartChar: seven
Encoding: 55 55 38
Width: 307
Flags: W
HStem: 416 40<25.0066 212.8> 426 40<45.424 241.701>
VStem: 178 40<40.7854 197.475> 242 40<314.371 424.538>
LayerCount: 2
Fore
SplineSet
215 426 m 0x70
 169 426 62 416 45 416 c 0
 34 416 25 425 25 436 c 0
 25 447 33 455 44 456 c 0xb0
 65 457 88 458 111 460 c 0
 149 463 186 466 215 466 c 0
 261 466 282 460 282 419 c 0
 282 349 218 160 218 79 c 0
 218 76 218 73 218 70 c 0
 219 58 229 43 241 38 c 0
 248 35 253 28 253 20 c 0
 253 9 244 0 233 0 c 0
 219 0 181 26 178 67 c 0
 178 71 178 75 178 79 c 0
 178 168 242 359 242 419 c 0
 242 421 242 423 242 424 c 0
 237 425 227 426 215 426 c 0x70
EndSplineSet
Validated: 1
EndChar

StartChar: eight
Encoding: 56 56 39
Width: 303
Flags: W
HStem: -3 40<67.4321 165.251> 430 40<121.545 235.352>
VStem: 73 40<361.788 423.25> 200 40<79.1238 168>
LayerCount: 2
Fore
SplineSet
258 464 m 0
 269 464 278 455 278 444 c 0
 278 441 277 438 276 435 c 0
 247 372 220 324 193 276 c 1
 231 233 235 218 238 202 c 0
 240 192 240 181 240 168 c 0
 240 143 236 113 226 86 c 0
 212 49 199 17 141 1 c 0
 131 -2 121 -3 110 -3 c 0
 87 -3 62 1 44 13 c 0
 35 19 25 28 25 44 c 0
 25 50 27 55 29 60 c 0
 69 141 97 189 144 270 c 1
 120 296 95 326 79 358 c 0
 75 367 73 376 73 385 c 0
 73 404 80 444 105 458 c 0
 124 468 145 470 166 470 c 0
 195 470 224 465 247 464 c 0
 249 464 251 463 252 463 c 0
 254 464 256 464 258 464 c 0
227 425 m 1
 179 430 180 430 166 430 c 0
 148 430 133 427 124 422 c 0
 120 418 113 401 113 385 c 0
 113 379 115 376 115 376 c 1
 126 354 145 330 165 307 c 1
 186 343 206 381 227 425 c 1
67 46 m 0
 69 45 83 37 110 37 c 0
 118 37 126 38 131 39 c 0
 168 49 175 63 189 100 c 0
 197 120 200 146 200 168 c 2
 200 168 200 197 196 206 c 0
 191 215 183 226 172 239 c 1
 129 166 102 117 67 46 c 0
EndSplineSet
Validated: 1
EndChar

StartChar: nine
Encoding: 57 57 40
Width: 296
Flags: W
HStem: 230 40<65.2895 111.623> 428 40<144.61 199.205>
VStem: 25 40<271.212 287> 164 40<13.7642 207.788> 204 67<362.637 412.762>
LayerCount: 2
Fore
SplineSet
176 468 m 0xf0
 192 468 229 455 240 413 c 1
 243 415 247 416 251 416 c 0
 262 416 271 407 271 396 c 0xe8
 271 392 269 388 267 385 c 0
 259 374 252 363 244 353 c 1
 242 295 241 279 223 207 c 0
 213 168 204 132 204 80 c 0
 204 53 203 51 216 30 c 0
 218 27 219 24 219 20 c 0
 219 9 210 0 199 0 c 0
 192 0 185 4 182 10 c 0
 167 35 164 42 164 80 c 0
 164 177 193 225 201 306 c 1
 173 280 140 257 98 236 c 0
 90 232 81 230 73 230 c 0
 46 230 25 255 25 287 c 0
 25 288 25 319 41 350 c 0
 51 369 65 382 77 394 c 0
 83 400 89 406 94 412 c 0
 137 463 162 468 176 468 c 0xf0
65 287 m 2
 65 282 68 270 73 270 c 0
 74 270 76 270 80 272 c 0
 136 300 172 329 204 368 c 0
 204 370 204 373 204 375 c 0
 204 413 194 422 177 428 c 1
 177 428 177 428 176 428 c 0
 175 428 158 428 124 387 c 0
 106 366 88 352 77 331 c 0
 66 310 65 287 65 287 c 2
EndSplineSet
Validated: 33
EndChar

StartChar: A
Encoding: 65 65 41
Width: 297
Flags: W
HStem: 447 20G<201.5 211.5>
VStem: 25 39<0.0174561 66.1143> 232 40<0.00656509 163.804>
LayerCount: 2
Fore
SplineSet
199 356 m 1
 181 303 160 257 140 209 c 0
 136 199 131 189 127 178 c 1
 160 190 191 200 224 207 c 1
 219 258 212 303 199 356 c 1
226 447 m 0
 226 444 226 444 221 427 c 0
 221 426 222 426 222 425 c 0
 262 281 268 198 272 20 c 0
 272 9 263 0 252 0 c 0
 241 0 232 9 232 20 c 0
 231 78 230 124 227 166 c 1
 189 158 155 146 113 130 c 0
 111 129 109 129 107 129 c 0
 93 94 78 57 64 14 c 0
 61 6 54 0 45 0 c 0
 34 0 25 9 25 20 c 0
 25 22 25 24 26 26 c 0
 85 204 143 290 187 452 c 0
 189 461 197 467 206 467 c 0
 217 467 226 458 226 447 c 0
EndSplineSet
Validated: 513
PairPos2: "kernGPOS-1" } dx=0 dy=0 dh=0 dv=0 dx=0 dy=0 dh=0 dv=0
PairPos2: "kernGPOS-1" ` dx=0 dy=0 dh=0 dv=0 dx=0 dy=0 dh=0 dv=0
PairPos2: "kernGPOS-1" ^ dx=0 dy=0 dh=0 dv=0 dx=0 dy=0 dh=0 dv=0
PairPos2: "kernGPOS-1" ] dx=0 dy=0 dh=0 dv=0 dx=0 dy=0 dh=0 dv=0
PairPos2: "kernGPOS-1" \ dx=0 dy=0 dh=0 dv=0 dx=0 dy=0 dh=0 dv=0
PairPos2: "kernGPOS-1" 9 dx=0 dy=0 dh=0 dv=0 dx=0 dy=0 dh=0 dv=0
PairPos2: "kernGPOS-1" 7 dx=0 dy=0 dh=0 dv=0 dx=0 dy=0 dh=0 dv=0
PairPos2: "kernGPOS-1" 4 dx=0 dy=0 dh=0 dv=0 dx=0 dy=0 dh=0 dv=0
PairPos2: "kernGPOS-1" * dx=0 dy=0 dh=0 dv=0 dx=0 dy=0 dh=0 dv=0
PairPos2: "kernGPOS-1" ) dx=0 dy=0 dh=0 dv=0 dx=0 dy=0 dh=0 dv=0
PairPos2: "kernGPOS-1" ' dx=0 dy=0 dh=0 dv=0 dx=0 dy=0 dh=0 dv=0
PairPos2: "kernGPOS-1" % dx=0 dy=0 dh=0 dv=0 dx=0 dy=0 dh=0 dv=0
PairPos2: "kernGPOS-1" # dx=0 dy=0 dh=0 dv=0 dx=0 dy=0 dh=0 dv=0
PairPos2: "kernGPOS-1" " dx=0 dy=0 dh=0 dv=0 dx=0 dy=0 dh=0 dv=0
EndChar

StartChar: B
Encoding: 66 66 42
Width: 347
Flags: W
HStem: 11 39<25.0175 90.2024> 376 40<177.309 280.432> 447 20G<149.5 160>
VStem: 136 39<231.548 369.532 406 411.984 412 466.974> 208 40<97.9323 137.104> 281 41<337.41 373.976>
LayerCount: 2
Fore
SplineSet
208 112 m 0
 208 116 206 123 199 129 c 0
 191 137 161 155 145 168 c 1
 140 140 135 108 132 76 c 1
 151 81 167 85 180 90 c 0
 194 95 203 101 204 102 c 0
 208 106 208 109 208 112 c 0
281 370 m 0
 268 375 236 376 230 376 c 0
 212 376 195 371 175 362 c 0
 175 361 168 262 158 230 c 1
 209 278 271 340 279 363 c 0
 280 366 281 368 281 370 c 0
137 412 m 2
 137 437 135 443 135 447 c 0
 135 458 144 467 155 467 c 0
 165 467 173 459 175 450 c 0
 177 439 177 427 177 412 c 0
 177 410 177 408 177 406 c 1
 193 412 211 416 230 416 c 0
 235 416 269 415 290 409 c 0
 306 404 322 394 322 373 c 0
 322 336 281 290 178 193 c 1
 200 177 216 170 227 159 c 0
 240 147 248 130 248 112 c 0
 248 98 242 85 232 74 c 0
 219 61 199 53 140 37 c 1
 144 31 147 27 147 20 c 0
 147 9 138 0 127 0 c 0
 115 0 110 9 110 9 c 2
 106 15 102 20 98 26 c 1
 82 22 66 17 51 12 c 0
 49 11 47 11 45 11 c 0
 34 11 25 20 25 31 c 0
 25 40 31 47 39 50 c 0
 56 56 74 60 91 65 c 1
 97 138 112 218 121 245 c 0
 121 246 132 299 136 375 c 1
 136 377 l 2
 137 390 137 412 137 412 c 2
EndSplineSet
Validated: 513
PairPos2: "kernGPOS-1" ~ dx=0 dy=0 dh=0 dv=0 dx=0 dy=0 dh=0 dv=0
PairPos2: "kernGPOS-1" | dx=0 dy=0 dh=0 dv=0 dx=0 dy=0 dh=0 dv=0
PairPos2: "kernGPOS-1" { dx=0 dy=0 dh=0 dv=0 dx=0 dy=0 dh=0 dv=0
PairPos2: "kernGPOS-1" _ dx=0 dy=0 dh=0 dv=0 dx=0 dy=0 dh=0 dv=0
PairPos2: "kernGPOS-1" ^ dx=0 dy=0 dh=0 dv=0 dx=0 dy=0 dh=0 dv=0
PairPos2: "kernGPOS-1" @ dx=0 dy=0 dh=0 dv=0 dx=0 dy=0 dh=0 dv=0
PairPos2: "kernGPOS-1" ? dx=0 dy=0 dh=0 dv=0 dx=0 dy=0 dh=0 dv=0
PairPos2: "kernGPOS-1" > dx=0 dy=0 dh=0 dv=0 dx=0 dy=0 dh=0 dv=0
PairPos2: "kernGPOS-1" = dx=0 dy=0 dh=0 dv=0 dx=0 dy=0 dh=0 dv=0
PairPos2: "kernGPOS-1" < dx=0 dy=0 dh=0 dv=0 dx=0 dy=0 dh=0 dv=0
PairPos2: "kernGPOS-1" ; dx=0 dy=0 dh=0 dv=0 dx=0 dy=0 dh=0 dv=0
PairPos2: "kernGPOS-1" : dx=0 dy=0 dh=0 dv=0 dx=0 dy=0 dh=0 dv=0
PairPos2: "kernGPOS-1" 8 dx=0 dy=0 dh=0 dv=0 dx=0 dy=0 dh=0 dv=0
PairPos2: "kernGPOS-1" 6 dx=0 dy=0 dh=0 dv=0 dx=0 dy=0 dh=0 dv=0
PairPos2: "kernGPOS-1" 5 dx=0 dy=0 dh=0 dv=0 dx=0 dy=0 dh=0 dv=0
PairPos2: "kernGPOS-1" 3 dx=0 dy=0 dh=0 dv=0 dx=0 dy=0 dh=0 dv=0
PairPos2: "kernGPOS-1" 1 dx=0 dy=0 dh=0 dv=0 dx=0 dy=0 dh=0 dv=0
PairPos2: "kernGPOS-1" 0 dx=0 dy=0 dh=0 dv=0 dx=0 dy=0 dh=0 dv=0
PairPos2: "kernGPOS-1" / dx=0 dy=0 dh=0 dv=0 dx=0 dy=0 dh=0 dv=0
PairPos2: "kernGPOS-1" . dx=0 dy=0 dh=0 dv=0 dx=0 dy=0 dh=0 dv=0
PairPos2: "kernGPOS-1" - dx=0 dy=0 dh=0 dv=0 dx=0 dy=0 dh=0 dv=0
PairPos2: "kernGPOS-1" , dx=0 dy=0 dh=0 dv=0 dx=0 dy=0 dh=0 dv=0
PairPos2: "kernGPOS-1" + dx=0 dy=0 dh=0 dv=0 dx=0 dy=0 dh=0 dv=0
PairPos2: "kernGPOS-1" ( dx=0 dy=0 dh=0 dv=0 dx=0 dy=0 dh=0 dv=0
PairPos2: "kernGPOS-1" & dx=0 dy=0 dh=0 dv=0 dx=0 dy=0 dh=0 dv=0
PairPos2: "kernGPOS-1" $ dx=0 dy=0 dh=0 dv=0 dx=0 dy=0 dh=0 dv=0
PairPos2: "kernGPOS-1" # dx=0 dy=0 dh=0 dv=0 dx=0 dy=0 dh=0 dv=0
PairPos2: "kernGPOS-1" ! dx=0 dy=0 dh=0 dv=0 dx=0 dy=0 dh=0 dv=0
EndChar

StartChar: C
Encoding: 67 67 43
Width: 333
Flags: W
HStem: 42 39<250.155 307.985> 428 39<176.596 246.98>
VStem: 25 40<83.0384 249.657>
LayerCount: 2
Fore
SplineSet
157 40 m 0
 202 40 274 81 288 81 c 0
 299 81 308 72 308 61 c 0
 308 53 303 45 296 42 c 0
 287 39 278 35 268 31 c 0
 214 8 156 -16 107 13 c 0
 42 52 25 99 25 142 c 0
 25 158 28 174 31 189 c 0
 32 193 32 198 33 204 c 0
 39 240 50 299 111 401 c 0
 137 444 183 455 222 466 c 0
 224 466 225 467 227 467 c 0
 238 467 247 458 247 447 c 0
 247 438 240 430 232 428 c 0
 191 417 161 407 146 381 c 0
 87 283 79 232 73 197 c 0
 72 191 71 186 70 181 c 0
 67 167 65 154 65 142 c 0
 65 107 79 75 127 47 c 0
 136 42 146 40 157 40 c 0
EndSplineSet
Validated: 545
PairPos2: "kernGPOS-1" } dx=0 dy=0 dh=0 dv=0 dx=0 dy=0 dh=0 dv=0
PairPos2: "kernGPOS-1" ` dx=0 dy=0 dh=0 dv=0 dx=0 dy=0 dh=0 dv=0
PairPos2: "kernGPOS-1" ^ dx=0 dy=0 dh=0 dv=0 dx=0 dy=0 dh=0 dv=0
PairPos2: "kernGPOS-1" ] dx=0 dy=0 dh=0 dv=0 dx=0 dy=0 dh=0 dv=0
PairPos2: "kernGPOS-1" \ dx=0 dy=0 dh=0 dv=0 dx=0 dy=0 dh=0 dv=0
PairPos2: "kernGPOS-1" @ dx=0 dy=0 dh=0 dv=0 dx=0 dy=0 dh=0 dv=0
PairPos2: "kernGPOS-1" ; dx=0 dy=0 dh=0 dv=0 dx=0 dy=0 dh=0 dv=0
PairPos2: "kernGPOS-1" 9 dx=0 dy=0 dh=0 dv=0 dx=0 dy=0 dh=0 dv=0
PairPos2: "kernGPOS-1" 7 dx=0 dy=0 dh=0 dv=0 dx=0 dy=0 dh=0 dv=0
PairPos2: "kernGPOS-1" 4 dx=0 dy=0 dh=0 dv=0 dx=0 dy=0 dh=0 dv=0
PairPos2: "kernGPOS-1" , dx=0 dy=0 dh=0 dv=0 dx=0 dy=0 dh=0 dv=0
PairPos2: "kernGPOS-1" * dx=0 dy=0 dh=0 dv=0 dx=0 dy=0 dh=0 dv=0
PairPos2: "kernGPOS-1" ) dx=0 dy=0 dh=0 dv=0 dx=0 dy=0 dh=0 dv=0
PairPos2: "kernGPOS-1" ' dx=0 dy=0 dh=0 dv=0 dx=0 dy=0 dh=0 dv=0
PairPos2: "kernGPOS-1" % dx=0 dy=0 dh=0 dv=0 dx=0 dy=0 dh=0 dv=0
PairPos2: "kernGPOS-1" # dx=0 dy=0 dh=0 dv=0 dx=0 dy=0 dh=0 dv=0
PairPos2: "kernGPOS-1" " dx=0 dy=0 dh=0 dv=0 dx=0 dy=0 dh=0 dv=0
EndChar

StartChar: D
Encoding: 68 68 44
Width: 312
Flags: W
HStem: 447 20G<120.5 174.5>
VStem: 95 40<215.013 425> 247 40<282.935 405.406>
LayerCount: 2
Fore
SplineSet
135 386 m 0
 135 309 124 251 112 192 c 0
 106 161 99 130 94 95 c 1
 159 163 205 230 235 299 c 0
 243 317 247 338 247 357 c 0
 247 359 246 393 233 405 c 0
 222 411 187 417 134 425 c 1
 135 412 135 398 135 386 c 0
95 386 m 0
 95 416 93 444 93 445 c 0
 93 456 102 465 113 465 c 0
 116 466 119 467 122 467 c 0
 123 467 124 467 125 467 c 0
 224 451 226 451 242 445 c 0
 250 442 268 435 279 405 c 0
 284 390 287 375 287 357 c 0
 287 333 282 307 272 283 c 0
 230 187 160 97 58 5 c 0
 54 2 50 0 45 0 c 0
 34 0 25 9 25 20 c 0
 25 26 28 31 32 35 c 0
 38 41 44 46 50 52 c 0
 49 54 49 55 49 57 c 0
 49 58 49 58 49 59 c 0
 63 189 95 261 95 386 c 0
EndSplineSet
Validated: 513
PairPos2: "kernGPOS-1" ~ dx=0 dy=0 dh=0 dv=0 dx=0 dy=0 dh=0 dv=0
PairPos2: "kernGPOS-1" | dx=0 dy=0 dh=0 dv=0 dx=0 dy=0 dh=0 dv=0
PairPos2: "kernGPOS-1" { dx=0 dy=0 dh=0 dv=0 dx=0 dy=0 dh=0 dv=0
PairPos2: "kernGPOS-1" _ dx=0 dy=0 dh=0 dv=0 dx=0 dy=0 dh=0 dv=0
PairPos2: "kernGPOS-1" @ dx=0 dy=0 dh=0 dv=0 dx=0 dy=0 dh=0 dv=0
PairPos2: "kernGPOS-1" ? dx=0 dy=0 dh=0 dv=0 dx=0 dy=0 dh=0 dv=0
PairPos2: "kernGPOS-1" > dx=0 dy=0 dh=0 dv=0 dx=0 dy=0 dh=0 dv=0
PairPos2: "kernGPOS-1" = dx=0 dy=0 dh=0 dv=0 dx=0 dy=0 dh=0 dv=0
PairPos2: "kernGPOS-1" < dx=0 dy=0 dh=0 dv=0 dx=0 dy=0 dh=0 dv=0
PairPos2: "kernGPOS-1" ; dx=0 dy=0 dh=0 dv=0 dx=0 dy=0 dh=0 dv=0
PairPos2: "kernGPOS-1" : dx=0 dy=0 dh=0 dv=0 dx=0 dy=0 dh=0 dv=0
PairPos2: "kernGPOS-1" 8 dx=0 dy=0 dh=0 dv=0 dx=0 dy=0 dh=0 dv=0
PairPos2: "kernGPOS-1" 6 dx=0 dy=0 dh=0 dv=0 dx=0 dy=0 dh=0 dv=0
PairPos2: "kernGPOS-1" 5 dx=0 dy=0 dh=0 dv=0 dx=0 dy=0 dh=0 dv=0
PairPos2: "kernGPOS-1" 3 dx=0 dy=0 dh=0 dv=0 dx=0 dy=0 dh=0 dv=0
PairPos2: "kernGPOS-1" 1 dx=0 dy=0 dh=0 dv=0 dx=0 dy=0 dh=0 dv=0
PairPos2: "kernGPOS-1" 0 dx=0 dy=0 dh=0 dv=0 dx=0 dy=0 dh=0 dv=0
PairPos2: "kernGPOS-1" / dx=0 dy=0 dh=0 dv=0 dx=0 dy=0 dh=0 dv=0
PairPos2: "kernGPOS-1" . dx=0 dy=0 dh=0 dv=0 dx=0 dy=0 dh=0 dv=0
PairPos2: "kernGPOS-1" - dx=0 dy=0 dh=0 dv=0 dx=0 dy=0 dh=0 dv=0
PairPos2: "kernGPOS-1" , dx=0 dy=0 dh=0 dv=0 dx=0 dy=0 dh=0 dv=0
PairPos2: "kernGPOS-1" + dx=0 dy=0 dh=0 dv=0 dx=0 dy=0 dh=0 dv=0
PairPos2: "kernGPOS-1" ( dx=0 dy=0 dh=0 dv=0 dx=0 dy=0 dh=0 dv=0
PairPos2: "kernGPOS-1" & dx=0 dy=0 dh=0 dv=0 dx=0 dy=0 dh=0 dv=0
PairPos2: "kernGPOS-1" $ dx=0 dy=0 dh=0 dv=0 dx=0 dy=0 dh=0 dv=0
PairPos2: "kernGPOS-1" ! dx=0 dy=0 dh=0 dv=0 dx=0 dy=0 dh=0 dv=0
EndChar

StartChar: E
Encoding: 69 69 45
Width: 300
Flags: W
HStem: -1 41<65.25 203.642> 19 40<96.7758 252.839> 232 40<90 268.839> 416 40<94.0577 251.952> 447 20G<57.5 67.5>
VStem: 25 40<48.7485 225.453> 43 39<439.323 466.985> 56 40<228.442 401.624>
LayerCount: 2
Fore
SplineSet
212 19 m 0x64
 174 19 135 -1 87 -1 c 0
 79 -1 71 -1 63 0 c 0
 53 1 46 10 46 20 c 0
 46 24 47 29 50 32 c 1
 49 32 l 2
 39 32 31 39 29 48 c 0
 26 64 25 78 25 93 c 0xa4
 25 138 37 173 41 207 c 0
 49 264 56 314 56 358 c 0xa1
 56 419 43 438 43 447 c 0
 43 458 52 467 63 467 c 0
 72 467 79 462 82 454 c 0xaa
 84 449 85 444 86 439 c 1
 125 449 166 456 199 456 c 0
 225 456 258 452 272 429 c 0
 274 426 275 423 275 419 c 0
 275 408 266 399 255 399 c 0
 248 399 241 403 238 409 c 1
 238 409 230 416 199 416 c 0
 170 416 131 410 93 400 c 1
 94 387 96 372 96 358 c 0x31
 96 332 93 305 90 276 c 1
 110 273 126 272 139 272 c 0
 171 272 190 278 216 278 c 0
 227 278 240 277 254 273 c 0
 263 271 269 263 269 254 c 0
 269 243 260 234 249 234 c 0
 243 234 234 238 216 238 c 0
 195 238 174 232 139 232 c 0
 124 232 107 233 86 236 c 1
 80 191 80 190 74 164 c 0
 69 141 65 118 65 93 c 0
 65 69 69 57 69 52 c 0
 69 48 68 43 65 40 c 1
 66 40 l 2xb4
 69 40 75 39 87 39 c 0
 129 39 167 59 212 59 c 0
 220 59 229 58 237 57 c 0
 246 55 253 47 253 37 c 0
 253 26 244 17 233 17 c 0
 229 17 224 19 212 19 c 0x64
EndSplineSet
Validated: 513
PairPos2: "kernGPOS-1" ~ dx=0 dy=0 dh=0 dv=0 dx=0 dy=0 dh=0 dv=0
PairPos2: "kernGPOS-1" | dx=0 dy=0 dh=0 dv=0 dx=0 dy=0 dh=0 dv=0
PairPos2: "kernGPOS-1" { dx=0 dy=0 dh=0 dv=0 dx=0 dy=0 dh=0 dv=0
PairPos2: "kernGPOS-1" _ dx=0 dy=0 dh=0 dv=0 dx=0 dy=0 dh=0 dv=0
PairPos2: "kernGPOS-1" ^ dx=0 dy=0 dh=0 dv=0 dx=0 dy=0 dh=0 dv=0
PairPos2: "kernGPOS-1" @ dx=0 dy=0 dh=0 dv=0 dx=0 dy=0 dh=0 dv=0
PairPos2: "kernGPOS-1" ? dx=0 dy=0 dh=0 dv=0 dx=0 dy=0 dh=0 dv=0
PairPos2: "kernGPOS-1" > dx=0 dy=0 dh=0 dv=0 dx=0 dy=0 dh=0 dv=0
PairPos2: "kernGPOS-1" = dx=0 dy=0 dh=0 dv=0 dx=0 dy=0 dh=0 dv=0
PairPos2: "kernGPOS-1" < dx=0 dy=0 dh=0 dv=0 dx=0 dy=0 dh=0 dv=0
PairPos2: "kernGPOS-1" ; dx=0 dy=0 dh=0 dv=0 dx=0 dy=0 dh=0 dv=0
PairPos2: "kernGPOS-1" : dx=0 dy=0 dh=0 dv=0 dx=0 dy=0 dh=0 dv=0
PairPos2: "kernGPOS-1" 9 dx=0 dy=0 dh=0 dv=0 dx=0 dy=0 dh=0 dv=0
PairPos2: "kernGPOS-1" 8 dx=0 dy=0 dh=0 dv=0 dx=0 dy=0 dh=0 dv=0
PairPos2: "kernGPOS-1" 6 dx=0 dy=0 dh=0 dv=0 dx=0 dy=0 dh=0 dv=0
PairPos2: "kernGPOS-1" 5 dx=0 dy=0 dh=0 dv=0 dx=0 dy=0 dh=0 dv=0
PairPos2: "kernGPOS-1" 4 dx=0 dy=0 dh=0 dv=0 dx=0 dy=0 dh=0 dv=0
PairPos2: "kernGPOS-1" 3 dx=0 dy=0 dh=0 dv=0 dx=0 dy=0 dh=0 dv=0
PairPos2: "kernGPOS-1" 1 dx=0 dy=0 dh=0 dv=0 dx=0 dy=0 dh=0 dv=0
PairPos2: "kernGPOS-1" 0 dx=0 dy=0 dh=0 dv=0 dx=0 dy=0 dh=0 dv=0
PairPos2: "kernGPOS-1" / dx=0 dy=0 dh=0 dv=0 dx=0 dy=0 dh=0 dv=0
PairPos2: "kernGPOS-1" . dx=0 dy=0 dh=0 dv=0 dx=0 dy=0 dh=0 dv=0
PairPos2: "kernGPOS-1" - dx=0 dy=0 dh=0 dv=0 dx=0 dy=0 dh=0 dv=0
PairPos2: "kernGPOS-1" , dx=0 dy=0 dh=0 dv=0 dx=0 dy=0 dh=0 dv=0
PairPos2: "kernGPOS-1" + dx=0 dy=0 dh=0 dv=0 dx=0 dy=0 dh=0 dv=0
PairPos2: "kernGPOS-1" * dx=0 dy=0 dh=0 dv=0 dx=0 dy=0 dh=0 dv=0
PairPos2: "kernGPOS-1" ( dx=0 dy=0 dh=0 dv=0 dx=0 dy=0 dh=0 dv=0
PairPos2: "kernGPOS-1" ' dx=0 dy=0 dh=0 dv=0 dx=0 dy=0 dh=0 dv=0
PairPos2: "kernGPOS-1" & dx=0 dy=0 dh=0 dv=0 dx=0 dy=0 dh=0 dv=0
PairPos2: "kernGPOS-1" % dx=0 dy=0 dh=0 dv=0 dx=0 dy=0 dh=0 dv=0
PairPos2: "kernGPOS-1" $ dx=0 dy=0 dh=0 dv=0 dx=0 dy=0 dh=0 dv=0
PairPos2: "kernGPOS-1" # dx=0 dy=0 dh=0 dv=0 dx=0 dy=0 dh=0 dv=0
PairPos2: "kernGPOS-1" " dx=0 dy=0 dh=0 dv=0 dx=0 dy=0 dh=0 dv=0
PairPos2: "kernGPOS-1" ! dx=0 dy=0 dh=0 dv=0 dx=0 dy=0 dh=0 dv=0
EndChar

StartChar: F
Encoding: 70 70 46
Width: 311
Flags: W
HStem: 206 40<96 210.31 213.34 273.839> 216 40<96.0469 257.892> 429 40<112.583 269.845> 447 20G<75.5 86.5>
VStem: 25 40<0.432961 149.75> 62 40<247.971 410.687>
LayerCount: 2
Fore
SplineSet
62 382 m 0x84
 62 417 61 446 61 447 c 0
 61 458 70 467 81 467 c 0x94
 92 467 100 459 101 448 c 1
 143 453 181 469 221 469 c 0
 239 469 257 466 275 457 c 0
 282 454 286 447 286 439 c 0
 286 428 277 419 266 419 c 0
 256 419 250 429 221 429 c 0
 187 429 147 413 102 408 c 1
 102 399 102 390 102 382 c 0
 102 333 100 288 96 246 c 1
 97 246 98 246 99 246 c 0xa4
 137 246 176 256 212 256 c 0x44
 229 256 247 254 263 246 c 0x84
 270 243 274 236 274 228 c 0
 274 217 265 208 254 208 c 0
 244 208 241 216 212 216 c 0x44
 180 216 141 206 99 206 c 0
 97 206 94 206 92 206 c 0
 86 152 76 102 66 50 c 0
 65 48 65 45 65 42 c 0
 65 30 69 27 69 20 c 0
 69 9 60 0 49 0 c 0
 40 0 33 5 30 13 c 0
 27 22 25 32 25 42 c 0x88
 25 72 62 186 62 382 c 0x84
EndSplineSet
Validated: 513
PairPos2: "kernGPOS-1" ~ dx=0 dy=0 dh=0 dv=0 dx=0 dy=0 dh=0 dv=0
PairPos2: "kernGPOS-1" | dx=0 dy=0 dh=0 dv=0 dx=0 dy=0 dh=0 dv=0
PairPos2: "kernGPOS-1" { dx=0 dy=0 dh=0 dv=0 dx=0 dy=0 dh=0 dv=0
PairPos2: "kernGPOS-1" _ dx=0 dy=0 dh=0 dv=0 dx=0 dy=0 dh=0 dv=0
PairPos2: "kernGPOS-1" ^ dx=0 dy=0 dh=0 dv=0 dx=0 dy=0 dh=0 dv=0
PairPos2: "kernGPOS-1" @ dx=0 dy=0 dh=0 dv=0 dx=0 dy=0 dh=0 dv=0
PairPos2: "kernGPOS-1" ? dx=0 dy=0 dh=0 dv=0 dx=0 dy=0 dh=0 dv=0
PairPos2: "kernGPOS-1" > dx=0 dy=0 dh=0 dv=0 dx=0 dy=0 dh=0 dv=0
PairPos2: "kernGPOS-1" = dx=0 dy=0 dh=0 dv=0 dx=0 dy=0 dh=0 dv=0
PairPos2: "kernGPOS-1" < dx=0 dy=0 dh=0 dv=0 dx=0 dy=0 dh=0 dv=0
PairPos2: "kernGPOS-1" ; dx=0 dy=0 dh=0 dv=0 dx=0 dy=0 dh=0 dv=0
PairPos2: "kernGPOS-1" : dx=0 dy=0 dh=0 dv=0 dx=0 dy=0 dh=0 dv=0
PairPos2: "kernGPOS-1" 9 dx=0 dy=0 dh=0 dv=0 dx=0 dy=0 dh=0 dv=0
PairPos2: "kernGPOS-1" 8 dx=0 dy=0 dh=0 dv=0 dx=0 dy=0 dh=0 dv=0
PairPos2: "kernGPOS-1" 6 dx=0 dy=0 dh=0 dv=0 dx=0 dy=0 dh=0 dv=0
PairPos2: "kernGPOS-1" 5 dx=0 dy=0 dh=0 dv=0 dx=0 dy=0 dh=0 dv=0
PairPos2: "kernGPOS-1" 4 dx=0 dy=0 dh=0 dv=0 dx=0 dy=0 dh=0 dv=0
PairPos2: "kernGPOS-1" 3 dx=0 dy=0 dh=0 dv=0 dx=0 dy=0 dh=0 dv=0
PairPos2: "kernGPOS-1" 2 dx=0 dy=0 dh=0 dv=0 dx=0 dy=0 dh=0 dv=0
PairPos2: "kernGPOS-1" 1 dx=0 dy=0 dh=0 dv=0 dx=0 dy=0 dh=0 dv=0
PairPos2: "kernGPOS-1" 0 dx=0 dy=0 dh=0 dv=0 dx=0 dy=0 dh=0 dv=0
PairPos2: "kernGPOS-1" / dx=0 dy=0 dh=0 dv=0 dx=0 dy=0 dh=0 dv=0
PairPos2: "kernGPOS-1" . dx=0 dy=0 dh=0 dv=0 dx=0 dy=0 dh=0 dv=0
PairPos2: "kernGPOS-1" - dx=0 dy=0 dh=0 dv=0 dx=0 dy=0 dh=0 dv=0
PairPos2: "kernGPOS-1" , dx=0 dy=0 dh=0 dv=0 dx=0 dy=0 dh=0 dv=0
PairPos2: "kernGPOS-1" + dx=0 dy=0 dh=0 dv=0 dx=0 dy=0 dh=0 dv=0
PairPos2: "kernGPOS-1" * dx=0 dy=0 dh=0 dv=0 dx=0 dy=0 dh=0 dv=0
PairPos2: "kernGPOS-1" ( dx=0 dy=0 dh=0 dv=0 dx=0 dy=0 dh=0 dv=0
PairPos2: "kernGPOS-1" ' dx=0 dy=0 dh=0 dv=0 dx=0 dy=0 dh=0 dv=0
PairPos2: "kernGPOS-1" & dx=0 dy=0 dh=0 dv=0 dx=0 dy=0 dh=0 dv=0
PairPos2: "kernGPOS-1" % dx=0 dy=0 dh=0 dv=0 dx=0 dy=0 dh=0 dv=0
PairPos2: "kernGPOS-1" $ dx=0 dy=0 dh=0 dv=0 dx=0 dy=0 dh=0 dv=0
PairPos2: "kernGPOS-1" # dx=0 dy=0 dh=0 dv=0 dx=0 dy=0 dh=0 dv=0
PairPos2: "kernGPOS-1" " dx=0 dy=0 dh=0 dv=0 dx=0 dy=0 dh=0 dv=0
PairPos2: "kernGPOS-1" ! dx=0 dy=0 dh=0 dv=0 dx=0 dy=0 dh=0 dv=0
EndChar

StartChar: H
Encoding: 72 72 47
Width: 266
Flags: W
HStem: 216 40<81.6188 171> 445 20G<215.5 226.5>
VStem: 25 40<22.8818 192.11> 65 40<284.668 430.993> 162 40<67.2934 245.235> 201 40<285.128 464.993>
LayerCount: 2
Fore
SplineSet
241 439 m 0xd4
 241 368 202 193 202 112 c 0
 202 109 202 90 205 83 c 0
 209 79 211 75 211 69 c 0
 211 58 202 49 191 49 c 0
 179 49 162 58 162 112 c 0
 162 140 166 175 171 213 c 1
 162 216 154 216 147 216 c 0
 131 216 117 211 95 202 c 0
 88 199 81 196 73 193 c 1
 68 158 65 124 65 96 c 0xe8
 65 76 67 60 70 49 c 0
 73 40 75 37 76 36 c 0
 81 32 85 27 85 20 c 0
 85 9 76 0 65 0 c 0xd0
 54 0 40 12 32 38 c 0
 27 55 25 74 25 96 c 0xe0
 25 198 63 362 65 412 c 0
 65 423 74 431 85 431 c 0
 96 431 105 422 105 411 c 0
 105 395 100 360 91 308 c 0
 87 286 83 263 79 239 c 1
 100 248 121 256 147 256 c 0
 156 256 166 255 177 252 c 1
 179 266 181 280 183 294 c 0
 192 353 201 410 201 439 c 0
 201 442 201 445 201 445 c 2
 201 456 210 465 221 465 c 0
 232 465 241 457 241 446 c 0
 241 444 241 441 241 439 c 0xd4
EndSplineSet
Validated: 513
PairPos2: "kernGPOS-1" ~ dx=0 dy=0 dh=0 dv=0 dx=0 dy=0 dh=0 dv=0
PairPos2: "kernGPOS-1" | dx=0 dy=0 dh=0 dv=0 dx=0 dy=0 dh=0 dv=0
PairPos2: "kernGPOS-1" { dx=0 dy=0 dh=0 dv=0 dx=0 dy=0 dh=0 dv=0
PairPos2: "kernGPOS-1" _ dx=0 dy=0 dh=0 dv=0 dx=0 dy=0 dh=0 dv=0
PairPos2: "kernGPOS-1" ^ dx=0 dy=0 dh=0 dv=0 dx=0 dy=0 dh=0 dv=0
PairPos2: "kernGPOS-1" @ dx=0 dy=0 dh=0 dv=0 dx=0 dy=0 dh=0 dv=0
PairPos2: "kernGPOS-1" ? dx=0 dy=0 dh=0 dv=0 dx=0 dy=0 dh=0 dv=0
PairPos2: "kernGPOS-1" > dx=0 dy=0 dh=0 dv=0 dx=0 dy=0 dh=0 dv=0
PairPos2: "kernGPOS-1" = dx=0 dy=0 dh=0 dv=0 dx=0 dy=0 dh=0 dv=0
PairPos2: "kernGPOS-1" < dx=0 dy=0 dh=0 dv=0 dx=0 dy=0 dh=0 dv=0
PairPos2: "kernGPOS-1" ; dx=0 dy=0 dh=0 dv=0 dx=0 dy=0 dh=0 dv=0
PairPos2: "kernGPOS-1" : dx=0 dy=0 dh=0 dv=0 dx=0 dy=0 dh=0 dv=0
PairPos2: "kernGPOS-1" 9 dx=0 dy=0 dh=0 dv=0 dx=0 dy=0 dh=0 dv=0
PairPos2: "kernGPOS-1" 8 dx=0 dy=0 dh=0 dv=0 dx=0 dy=0 dh=0 dv=0
PairPos2: "kernGPOS-1" 6 dx=0 dy=0 dh=0 dv=0 dx=0 dy=0 dh=0 dv=0
PairPos2: "kernGPOS-1" 5 dx=0 dy=0 dh=0 dv=0 dx=0 dy=0 dh=0 dv=0
PairPos2: "kernGPOS-1" 4 dx=0 dy=0 dh=0 dv=0 dx=0 dy=0 dh=0 dv=0
PairPos2: "kernGPOS-1" 3 dx=0 dy=0 dh=0 dv=0 dx=0 dy=0 dh=0 dv=0
PairPos2: "kernGPOS-1" 1 dx=0 dy=0 dh=0 dv=0 dx=0 dy=0 dh=0 dv=0
PairPos2: "kernGPOS-1" 0 dx=0 dy=0 dh=0 dv=0 dx=0 dy=0 dh=0 dv=0
PairPos2: "kernGPOS-1" / dx=0 dy=0 dh=0 dv=0 dx=0 dy=0 dh=0 dv=0
PairPos2: "kernGPOS-1" . dx=0 dy=0 dh=0 dv=0 dx=0 dy=0 dh=0 dv=0
PairPos2: "kernGPOS-1" - dx=0 dy=0 dh=0 dv=0 dx=0 dy=0 dh=0 dv=0
PairPos2: "kernGPOS-1" , dx=0 dy=0 dh=0 dv=0 dx=0 dy=0 dh=0 dv=0
PairPos2: "kernGPOS-1" + dx=0 dy=0 dh=0 dv=0 dx=0 dy=0 dh=0 dv=0
PairPos2: "kernGPOS-1" ( dx=0 dy=0 dh=0 dv=0 dx=0 dy=0 dh=0 dv=0
PairPos2: "kernGPOS-1" & dx=0 dy=0 dh=0 dv=0 dx=0 dy=0 dh=0 dv=0
PairPos2: "kernGPOS-1" % dx=0 dy=0 dh=0 dv=0 dx=0 dy=0 dh=0 dv=0
PairPos2: "kernGPOS-1" $ dx=0 dy=0 dh=0 dv=0 dx=0 dy=0 dh=0 dv=0
PairPos2: "kernGPOS-1" # dx=0 dy=0 dh=0 dv=0 dx=0 dy=0 dh=0 dv=0
PairPos2: "kernGPOS-1" ! dx=0 dy=0 dh=0 dv=0 dx=0 dy=0 dh=0 dv=0
EndChar

StartChar: I
Encoding: 73 73 48
Width: 447
Flags: W
HStem: -3 40<71.0938 125.069> 23 39<325.54 421.98> 74 40<71.5647 132.678 185 261.156> 401 40<76.563 215.217> 430 40<259.892 369.725>
LayerCount: 2
Fore
SplineSet
113 74 m 0xa0
 98 74 83 74 71 64 c 0
 66 60 65 57 65 57 c 1
 65 57 67 46 71 41 c 0
 73 39 75 37 85 37 c 0
 90 37 98 38 107 40 c 0
 115 42 124 47 133 74 c 1
 126 74 120 74 113 74 c 0xa0
85 -3 m 0
 26 -3 25 56 25 57 c 0
 25 88 60 112 93 114 c 0
 100 114 106 114 113 114 c 0
 123 114 134 114 145 113 c 1
 148 124 152 137 157 148 c 0
 176 191 204 325 216 408 c 1
 209 406 202 405 195 404 c 0
 176 403 162 401 148 401 c 0
 132 401 116 403 94 405 c 0
 84 406 76 415 76 425 c 0
 76 436 85 445 96 445 c 0
 100 445 123 441 148 441 c 0xb0
 161 441 174 443 192 444 c 0
 211 446 263 470 319 470 c 0
 331 470 343 469 355 466 c 0
 364 464 370 457 370 447 c 0
 370 436 361 427 350 427 c 0
 345 427 338 430 319 430 c 0
 299 430 278 425 259 420 c 1
 254 381 242 316 229 255 c 0
 218 204 205 158 193 131 c 0
 190 124 188 117 185 109 c 1
 240 102 298 87 360 73 c 0
 375 69 390 66 406 62 c 0
 415 60 422 53 422 43 c 0
 422 32 413 23 402 23 c 0x68
 399 23 399 23 351 34 c 0
 287 49 227 63 174 70 c 1
 167 48 153 8 115 0 c 0
 104 -2 94 -3 85 -3 c 0
EndSplineSet
Validated: 513
PairPos2: "kernGPOS-1" ~ dx=0 dy=0 dh=0 dv=0 dx=0 dy=0 dh=0 dv=0
PairPos2: "kernGPOS-1" } dx=0 dy=0 dh=0 dv=0 dx=0 dy=0 dh=0 dv=0
PairPos2: "kernGPOS-1" ` dx=0 dy=0 dh=0 dv=0 dx=0 dy=0 dh=0 dv=0
PairPos2: "kernGPOS-1" ^ dx=0 dy=0 dh=0 dv=0 dx=0 dy=0 dh=0 dv=0
PairPos2: "kernGPOS-1" ] dx=0 dy=0 dh=0 dv=0 dx=0 dy=0 dh=0 dv=0
PairPos2: "kernGPOS-1" \ dx=0 dy=0 dh=0 dv=0 dx=0 dy=0 dh=0 dv=0
PairPos2: "kernGPOS-1" @ dx=0 dy=0 dh=0 dv=0 dx=0 dy=0 dh=0 dv=0
PairPos2: "kernGPOS-1" < dx=0 dy=0 dh=0 dv=0 dx=0 dy=0 dh=0 dv=0
PairPos2: "kernGPOS-1" ; dx=0 dy=0 dh=0 dv=0 dx=0 dy=0 dh=0 dv=0
PairPos2: "kernGPOS-1" 9 dx=0 dy=0 dh=0 dv=0 dx=0 dy=0 dh=0 dv=0
PairPos2: "kernGPOS-1" 7 dx=0 dy=0 dh=0 dv=0 dx=0 dy=0 dh=0 dv=0
PairPos2: "kernGPOS-1" 4 dx=0 dy=0 dh=0 dv=0 dx=0 dy=0 dh=0 dv=0
PairPos2: "kernGPOS-1" 0 dx=0 dy=0 dh=0 dv=0 dx=0 dy=0 dh=0 dv=0
PairPos2: "kernGPOS-1" - dx=0 dy=0 dh=0 dv=0 dx=0 dy=0 dh=0 dv=0
PairPos2: "kernGPOS-1" , dx=0 dy=0 dh=0 dv=0 dx=0 dy=0 dh=0 dv=0
PairPos2: "kernGPOS-1" * dx=0 dy=0 dh=0 dv=0 dx=0 dy=0 dh=0 dv=0
PairPos2: "kernGPOS-1" ) dx=0 dy=0 dh=0 dv=0 dx=0 dy=0 dh=0 dv=0
PairPos2: "kernGPOS-1" ( dx=0 dy=0 dh=0 dv=0 dx=0 dy=0 dh=0 dv=0
PairPos2: "kernGPOS-1" ' dx=0 dy=0 dh=0 dv=0 dx=0 dy=0 dh=0 dv=0
PairPos2: "kernGPOS-1" % dx=0 dy=0 dh=0 dv=0 dx=0 dy=0 dh=0 dv=0
PairPos2: "kernGPOS-1" # dx=0 dy=0 dh=0 dv=0 dx=0 dy=0 dh=0 dv=0
PairPos2: "kernGPOS-1" " dx=0 dy=0 dh=0 dv=0 dx=0 dy=0 dh=0 dv=0
EndChar

StartChar: J
Encoding: 74 74 49
Width: 282
Flags: W
HStem: -2 21G<115.5 143> 447 20G<232 242.5>
VStem: 217 40<262.662 466.993>
LayerCount: 2
Fore
SplineSet
237 467 m 0
 248 467 257 458 257 447 c 0
 257 445 253 428 246 276 c 0
 244 230 242 190 239 168 c 0
 235 138 188 39 164 12 c 0
 161 8 151 -2 135 -2 c 0
 96 -2 76 60 32 99 c 0
 28 103 25 108 25 114 c 0
 25 125 34 134 45 134 c 0
 50 134 54 132 58 129 c 0
 93 97 117 53 134 39 c 1
 157 68 197 155 199 174 c 0
 205 217 207 366 217 449 c 0
 218 459 227 467 237 467 c 0
EndSplineSet
Validated: 513
PairPos2: "kernGPOS-1" ~ dx=0 dy=0 dh=0 dv=0 dx=0 dy=0 dh=0 dv=0
PairPos2: "kernGPOS-1" | dx=0 dy=0 dh=0 dv=0 dx=0 dy=0 dh=0 dv=0
PairPos2: "kernGPOS-1" { dx=0 dy=0 dh=0 dv=0 dx=0 dy=0 dh=0 dv=0
PairPos2: "kernGPOS-1" _ dx=0 dy=0 dh=0 dv=0 dx=0 dy=0 dh=0 dv=0
PairPos2: "kernGPOS-1" ^ dx=0 dy=0 dh=0 dv=0 dx=0 dy=0 dh=0 dv=0
PairPos2: "kernGPOS-1" @ dx=0 dy=0 dh=0 dv=0 dx=0 dy=0 dh=0 dv=0
PairPos2: "kernGPOS-1" ? dx=0 dy=0 dh=0 dv=0 dx=0 dy=0 dh=0 dv=0
PairPos2: "kernGPOS-1" > dx=0 dy=0 dh=0 dv=0 dx=0 dy=0 dh=0 dv=0
PairPos2: "kernGPOS-1" = dx=0 dy=0 dh=0 dv=0 dx=0 dy=0 dh=0 dv=0
PairPos2: "kernGPOS-1" < dx=0 dy=0 dh=0 dv=0 dx=0 dy=0 dh=0 dv=0
PairPos2: "kernGPOS-1" ; dx=0 dy=0 dh=0 dv=0 dx=0 dy=0 dh=0 dv=0
PairPos2: "kernGPOS-1" : dx=0 dy=0 dh=0 dv=0 dx=0 dy=0 dh=0 dv=0
PairPos2: "kernGPOS-1" 9 dx=0 dy=0 dh=0 dv=0 dx=0 dy=0 dh=0 dv=0
PairPos2: "kernGPOS-1" 8 dx=0 dy=0 dh=0 dv=0 dx=0 dy=0 dh=0 dv=0
PairPos2: "kernGPOS-1" 6 dx=0 dy=0 dh=0 dv=0 dx=0 dy=0 dh=0 dv=0
PairPos2: "kernGPOS-1" 5 dx=0 dy=0 dh=0 dv=0 dx=0 dy=0 dh=0 dv=0
PairPos2: "kernGPOS-1" 4 dx=0 dy=0 dh=0 dv=0 dx=0 dy=0 dh=0 dv=0
PairPos2: "kernGPOS-1" 3 dx=0 dy=0 dh=0 dv=0 dx=0 dy=0 dh=0 dv=0
PairPos2: "kernGPOS-1" 2 dx=0 dy=0 dh=0 dv=0 dx=0 dy=0 dh=0 dv=0
PairPos2: "kernGPOS-1" 1 dx=0 dy=0 dh=0 dv=0 dx=0 dy=0 dh=0 dv=0
PairPos2: "kernGPOS-1" 0 dx=0 dy=0 dh=0 dv=0 dx=0 dy=0 dh=0 dv=0
PairPos2: "kernGPOS-1" / dx=0 dy=0 dh=0 dv=0 dx=0 dy=0 dh=0 dv=0
PairPos2: "kernGPOS-1" . dx=0 dy=0 dh=0 dv=0 dx=0 dy=0 dh=0 dv=0
PairPos2: "kernGPOS-1" - dx=0 dy=0 dh=0 dv=0 dx=0 dy=0 dh=0 dv=0
PairPos2: "kernGPOS-1" , dx=0 dy=0 dh=0 dv=0 dx=0 dy=0 dh=0 dv=0
PairPos2: "kernGPOS-1" + dx=0 dy=0 dh=0 dv=0 dx=0 dy=0 dh=0 dv=0
PairPos2: "kernGPOS-1" * dx=0 dy=0 dh=0 dv=0 dx=0 dy=0 dh=0 dv=0
PairPos2: "kernGPOS-1" ( dx=0 dy=0 dh=0 dv=0 dx=0 dy=0 dh=0 dv=0
PairPos2: "kernGPOS-1" ' dx=0 dy=0 dh=0 dv=0 dx=0 dy=0 dh=0 dv=0
PairPos2: "kernGPOS-1" & dx=0 dy=0 dh=0 dv=0 dx=0 dy=0 dh=0 dv=0
PairPos2: "kernGPOS-1" % dx=0 dy=0 dh=0 dv=0 dx=0 dy=0 dh=0 dv=0
PairPos2: "kernGPOS-1" $ dx=0 dy=0 dh=0 dv=0 dx=0 dy=0 dh=0 dv=0
PairPos2: "kernGPOS-1" # dx=0 dy=0 dh=0 dv=0 dx=0 dy=0 dh=0 dv=0
PairPos2: "kernGPOS-1" " dx=0 dy=0 dh=0 dv=0 dx=0 dy=0 dh=0 dv=0
PairPos2: "kernGPOS-1" ! dx=0 dy=0 dh=0 dv=0 dx=0 dy=0 dh=0 dv=0
EndChar

StartChar: K
Encoding: 75 75 50
Width: 312
Flags: W
HStem: 447 20G<66.5 77.5>
VStem: 25 40<32.5031 205.632> 53 40<237.428 446.989 447 466.941>
LayerCount: 2
Fore
SplineSet
53 414 m 0xa0
 53 432 52 447 52 447 c 2
 52 458 61 467 72 467 c 0
 83 467 92 459 92 448 c 0
 92 436 93 425 93 414 c 0xa0
 93 356 88 314 78 233 c 1
 89 244 99 255 109 266 c 0
 172 332 224 388 250 434 c 0
 253 440 259 445 267 445 c 0
 278 445 287 436 287 425 c 0
 287 422 287 418 285 415 c 0
 255 361 201 304 138 238 c 0
 125 224 112 211 98 196 c 1
 136 175 170 164 207 156 c 0
 239 149 253 122 264 103 c 0
 270 93 275 84 281 78 c 0
 284 74 286 70 286 65 c 0
 286 54 277 45 266 45 c 0
 256 45 251 52 251 52 c 1
 229 77 220 113 199 117 c 0
 158 126 115 138 70 165 c 1
 67 132 65 98 65 60 c 0
 65 53 66 50 77 40 c 0
 86 32 89 29 89 20 c 0
 89 9 80 0 69 0 c 0
 61 0 59 2 49 11 c 0
 38 22 25 35 25 60 c 0xc0
 25 200 53 289 53 414 c 0xa0
EndSplineSet
Validated: 513
PairPos2: "kernGPOS-1" ^ dx=0 dy=0 dh=0 dv=0 dx=0 dy=0 dh=0 dv=0
PairPos2: "kernGPOS-1" @ dx=0 dy=0 dh=0 dv=0 dx=0 dy=0 dh=0 dv=0
PairPos2: "kernGPOS-1" ; dx=0 dy=0 dh=0 dv=0 dx=0 dy=0 dh=0 dv=0
PairPos2: "kernGPOS-1" 9 dx=0 dy=0 dh=0 dv=0 dx=0 dy=0 dh=0 dv=0
PairPos2: "kernGPOS-1" 4 dx=0 dy=0 dh=0 dv=0 dx=0 dy=0 dh=0 dv=0
PairPos2: "kernGPOS-1" , dx=0 dy=0 dh=0 dv=0 dx=0 dy=0 dh=0 dv=0
PairPos2: "kernGPOS-1" * dx=0 dy=0 dh=0 dv=0 dx=0 dy=0 dh=0 dv=0
PairPos2: "kernGPOS-1" ' dx=0 dy=0 dh=0 dv=0 dx=0 dy=0 dh=0 dv=0
PairPos2: "kernGPOS-1" % dx=0 dy=0 dh=0 dv=0 dx=0 dy=0 dh=0 dv=0
PairPos2: "kernGPOS-1" # dx=0 dy=0 dh=0 dv=0 dx=0 dy=0 dh=0 dv=0
PairPos2: "kernGPOS-1" " dx=0 dy=0 dh=0 dv=0 dx=0 dy=0 dh=0 dv=0
EndChar

StartChar: L
Encoding: 76 76 51
Width: 260
Flags: W
HStem: 0 40<72.1045 182.651> 447 20G<80.5 91.5>
VStem: 25 40<43.9068 216.499> 68 40<238.106 447.204>
LayerCount: 2
Fore
SplineSet
68 398 m 0
 68 425 66 447 66 447 c 2
 66 458 75 467 86 467 c 0
 97 467 105 458 106 448 c 0
 107 431 108 415 108 398 c 0
 108 342 101 290 93 256 c 0
 86 226 65 125 65 76 c 0
 65 53 69 47 77 44 c 0
 83 42 92 40 104 40 c 0
 153 40 202 71 215 71 c 0
 226 71 235 62 235 51 c 0
 235 43 230 35 223 32 c 0
 177 13 145 0 104 0 c 0
 87 0 36 0 26 53 c 0
 25 60 25 68 25 76 c 0
 25 134 47 234 55 266 c 0
 62 296 68 345 68 398 c 0
EndSplineSet
Validated: 513
PairPos2: "kernGPOS-1" } dx=0 dy=0 dh=0 dv=0 dx=0 dy=0 dh=0 dv=0
PairPos2: "kernGPOS-1" ` dx=0 dy=0 dh=0 dv=0 dx=0 dy=0 dh=0 dv=0
PairPos2: "kernGPOS-1" ^ dx=0 dy=0 dh=0 dv=0 dx=0 dy=0 dh=0 dv=0
PairPos2: "kernGPOS-1" ] dx=0 dy=0 dh=0 dv=0 dx=0 dy=0 dh=0 dv=0
PairPos2: "kernGPOS-1" \ dx=0 dy=0 dh=0 dv=0 dx=0 dy=0 dh=0 dv=0
PairPos2: "kernGPOS-1" @ dx=0 dy=0 dh=0 dv=0 dx=0 dy=0 dh=0 dv=0
PairPos2: "kernGPOS-1" ; dx=0 dy=0 dh=0 dv=0 dx=0 dy=0 dh=0 dv=0
PairPos2: "kernGPOS-1" 9 dx=0 dy=0 dh=0 dv=0 dx=0 dy=0 dh=0 dv=0
PairPos2: "kernGPOS-1" 7 dx=0 dy=0 dh=0 dv=0 dx=0 dy=0 dh=0 dv=0
PairPos2: "kernGPOS-1" 4 dx=0 dy=0 dh=0 dv=0 dx=0 dy=0 dh=0 dv=0
PairPos2: "kernGPOS-1" 0 dx=0 dy=0 dh=0 dv=0 dx=0 dy=0 dh=0 dv=0
PairPos2: "kernGPOS-1" , dx=0 dy=0 dh=0 dv=0 dx=0 dy=0 dh=0 dv=0
PairPos2: "kernGPOS-1" * dx=0 dy=0 dh=0 dv=0 dx=0 dy=0 dh=0 dv=0
PairPos2: "kernGPOS-1" ) dx=0 dy=0 dh=0 dv=0 dx=0 dy=0 dh=0 dv=0
PairPos2: "kernGPOS-1" ' dx=0 dy=0 dh=0 dv=0 dx=0 dy=0 dh=0 dv=0
PairPos2: "kernGPOS-1" % dx=0 dy=0 dh=0 dv=0 dx=0 dy=0 dh=0 dv=0
PairPos2: "kernGPOS-1" # dx=0 dy=0 dh=0 dv=0 dx=0 dy=0 dh=0 dv=0
PairPos2: "kernGPOS-1" " dx=0 dy=0 dh=0 dv=0 dx=0 dy=0 dh=0 dv=0
EndChar

StartChar: M
Encoding: 77 77 52
Width: 398
Flags: W
HStem: 450 20G<347.5 354.5>
VStem: 25 40<0.00656509 98.7495> 169 40<121.667 399.255> 297 40<20.6101 245.866> 313 39<0.0174255 55.5745>
LayerCount: 2
Fore
SplineSet
316 254 m 1xf0
 286 128 266 80 229 80 c 0
 219 80 209 84 202 90 c 0
 175 114 172 172 169 238 c 0
 169 250 168 261 167 268 c 0
 163 312 157 364 150 401 c 1
 132 336 105 207 65 16 c 0
 63 7 55 0 45 0 c 0
 34 0 25 9 25 20 c 0
 25 21 25 23 25 24 c 0
 113 448 123 458 135 468 c 0
 139 471 144 473 151 473 c 0
 174 473 182 447 190 403 c 0
 190 401 206 316 209 239 c 0
 210 215 211 186 215 162 c 0
 220 131 226 123 228 121 c 0
 238 130 249 161 254 177 c 0
 272 234 294 340 308 395 c 0
 312 410 325 452 336 463 c 0
 338 465 343 470 352 470 c 0xe8
 357 470 373 467 373 447 c 0
 373 445 367 385 358 275 c 0
 345 113 337 58 337 56 c 0xf0
 337 47 352 33 352 20 c 0
 352 9 343 0 332 0 c 0
 324 0 316 6 313 13 c 0xe8
 312 16 310 19 308 23 c 0
 304 30 297 41 297 56 c 0
 297 58 297 61 297 63 c 0
 306 141 311 198 316 254 c 1xf0
EndSplineSet
Validated: 513
PairPos2: "kernGPOS-1" ~ dx=0 dy=0 dh=0 dv=0 dx=0 dy=0 dh=0 dv=0
PairPos2: "kernGPOS-1" | dx=0 dy=0 dh=0 dv=0 dx=0 dy=0 dh=0 dv=0
PairPos2: "kernGPOS-1" { dx=0 dy=0 dh=0 dv=0 dx=0 dy=0 dh=0 dv=0
PairPos2: "kernGPOS-1" _ dx=0 dy=0 dh=0 dv=0 dx=0 dy=0 dh=0 dv=0
PairPos2: "kernGPOS-1" ^ dx=0 dy=0 dh=0 dv=0 dx=0 dy=0 dh=0 dv=0
PairPos2: "kernGPOS-1" @ dx=0 dy=0 dh=0 dv=0 dx=0 dy=0 dh=0 dv=0
PairPos2: "kernGPOS-1" ? dx=0 dy=0 dh=0 dv=0 dx=0 dy=0 dh=0 dv=0
PairPos2: "kernGPOS-1" > dx=0 dy=0 dh=0 dv=0 dx=0 dy=0 dh=0 dv=0
PairPos2: "kernGPOS-1" = dx=0 dy=0 dh=0 dv=0 dx=0 dy=0 dh=0 dv=0
PairPos2: "kernGPOS-1" < dx=0 dy=0 dh=0 dv=0 dx=0 dy=0 dh=0 dv=0
PairPos2: "kernGPOS-1" ; dx=0 dy=0 dh=0 dv=0 dx=0 dy=0 dh=0 dv=0
PairPos2: "kernGPOS-1" : dx=0 dy=0 dh=0 dv=0 dx=0 dy=0 dh=0 dv=0
PairPos2: "kernGPOS-1" 9 dx=0 dy=0 dh=0 dv=0 dx=0 dy=0 dh=0 dv=0
PairPos2: "kernGPOS-1" 8 dx=0 dy=0 dh=0 dv=0 dx=0 dy=0 dh=0 dv=0
PairPos2: "kernGPOS-1" 6 dx=0 dy=0 dh=0 dv=0 dx=0 dy=0 dh=0 dv=0
PairPos2: "kernGPOS-1" 5 dx=0 dy=0 dh=0 dv=0 dx=0 dy=0 dh=0 dv=0
PairPos2: "kernGPOS-1" 4 dx=0 dy=0 dh=0 dv=0 dx=0 dy=0 dh=0 dv=0
PairPos2: "kernGPOS-1" 3 dx=0 dy=0 dh=0 dv=0 dx=0 dy=0 dh=0 dv=0
PairPos2: "kernGPOS-1" 2 dx=0 dy=0 dh=0 dv=0 dx=0 dy=0 dh=0 dv=0
PairPos2: "kernGPOS-1" 1 dx=0 dy=0 dh=0 dv=0 dx=0 dy=0 dh=0 dv=0
PairPos2: "kernGPOS-1" 0 dx=0 dy=0 dh=0 dv=0 dx=0 dy=0 dh=0 dv=0
PairPos2: "kernGPOS-1" / dx=0 dy=0 dh=0 dv=0 dx=0 dy=0 dh=0 dv=0
PairPos2: "kernGPOS-1" . dx=0 dy=0 dh=0 dv=0 dx=0 dy=0 dh=0 dv=0
PairPos2: "kernGPOS-1" - dx=0 dy=0 dh=0 dv=0 dx=0 dy=0 dh=0 dv=0
PairPos2: "kernGPOS-1" , dx=0 dy=0 dh=0 dv=0 dx=0 dy=0 dh=0 dv=0
PairPos2: "kernGPOS-1" + dx=0 dy=0 dh=0 dv=0 dx=0 dy=0 dh=0 dv=0
PairPos2: "kernGPOS-1" * dx=0 dy=0 dh=0 dv=0 dx=0 dy=0 dh=0 dv=0
PairPos2: "kernGPOS-1" ( dx=0 dy=0 dh=0 dv=0 dx=0 dy=0 dh=0 dv=0
PairPos2: "kernGPOS-1" ' dx=0 dy=0 dh=0 dv=0 dx=0 dy=0 dh=0 dv=0
PairPos2: "kernGPOS-1" & dx=0 dy=0 dh=0 dv=0 dx=0 dy=0 dh=0 dv=0
PairPos2: "kernGPOS-1" % dx=0 dy=0 dh=0 dv=0 dx=0 dy=0 dh=0 dv=0
PairPos2: "kernGPOS-1" $ dx=0 dy=0 dh=0 dv=0 dx=0 dy=0 dh=0 dv=0
PairPos2: "kernGPOS-1" # dx=0 dy=0 dh=0 dv=0 dx=0 dy=0 dh=0 dv=0
PairPos2: "kernGPOS-1" " dx=0 dy=0 dh=0 dv=0 dx=0 dy=0 dh=0 dv=0
PairPos2: "kernGPOS-1" ! dx=0 dy=0 dh=0 dv=0 dx=0 dy=0 dh=0 dv=0
EndChar

StartChar: N
Encoding: 78 78 53
Width: 354
Flags: W
HStem: 446 20G<303.5 313.5>
VStem: 25 40<0.00656509 205.769> 50 40<161.329 367.69>
LayerCount: 2
Fore
SplineSet
307 466 m 0xa0
 320 466 329 455 329 444 c 0
 329 438 326 432 321 428 c 1
 309 352 307 114 295 36 c 0
 294 32 291 11 271 11 c 0
 266 11 253 13 248 31 c 0
 246 37 245 43 243 50 c 0
 220 134 173 301 89 368 c 1
 90 362 90 355 90 348 c 0xa0
 90 276 66 139 65 20 c 0
 65 9 56 0 45 0 c 0
 34 0 25 9 25 20 c 0xc0
 25 128 50 283 50 348 c 0
 50 365 48 375 47 377 c 0
 43 383 40 389 40 397 c 0
 40 411 51 424 66 424 c 0
 69 424 72 423 75 422 c 0
 157 387 216 278 263 124 c 1
 263 126 275 352 276 371 c 0
 281 446 284 454 292 461 c 0
 295 463 300 466 307 466 c 0xa0
EndSplineSet
Validated: 513
PairPos2: "kernGPOS-1" ~ dx=0 dy=0 dh=0 dv=0 dx=0 dy=0 dh=0 dv=0
PairPos2: "kernGPOS-1" | dx=0 dy=0 dh=0 dv=0 dx=0 dy=0 dh=0 dv=0
PairPos2: "kernGPOS-1" { dx=0 dy=0 dh=0 dv=0 dx=0 dy=0 dh=0 dv=0
PairPos2: "kernGPOS-1" _ dx=0 dy=0 dh=0 dv=0 dx=0 dy=0 dh=0 dv=0
PairPos2: "kernGPOS-1" ^ dx=0 dy=0 dh=0 dv=0 dx=0 dy=0 dh=0 dv=0
PairPos2: "kernGPOS-1" @ dx=0 dy=0 dh=0 dv=0 dx=0 dy=0 dh=0 dv=0
PairPos2: "kernGPOS-1" ? dx=0 dy=0 dh=0 dv=0 dx=0 dy=0 dh=0 dv=0
PairPos2: "kernGPOS-1" > dx=0 dy=0 dh=0 dv=0 dx=0 dy=0 dh=0 dv=0
PairPos2: "kernGPOS-1" = dx=0 dy=0 dh=0 dv=0 dx=0 dy=0 dh=0 dv=0
PairPos2: "kernGPOS-1" < dx=0 dy=0 dh=0 dv=0 dx=0 dy=0 dh=0 dv=0
PairPos2: "kernGPOS-1" ; dx=0 dy=0 dh=0 dv=0 dx=0 dy=0 dh=0 dv=0
PairPos2: "kernGPOS-1" : dx=0 dy=0 dh=0 dv=0 dx=0 dy=0 dh=0 dv=0
PairPos2: "kernGPOS-1" 9 dx=0 dy=0 dh=0 dv=0 dx=0 dy=0 dh=0 dv=0
PairPos2: "kernGPOS-1" 8 dx=0 dy=0 dh=0 dv=0 dx=0 dy=0 dh=0 dv=0
PairPos2: "kernGPOS-1" 6 dx=0 dy=0 dh=0 dv=0 dx=0 dy=0 dh=0 dv=0
PairPos2: "kernGPOS-1" 5 dx=0 dy=0 dh=0 dv=0 dx=0 dy=0 dh=0 dv=0
PairPos2: "kernGPOS-1" 4 dx=0 dy=0 dh=0 dv=0 dx=0 dy=0 dh=0 dv=0
PairPos2: "kernGPOS-1" 3 dx=0 dy=0 dh=0 dv=0 dx=0 dy=0 dh=0 dv=0
PairPos2: "kernGPOS-1" 2 dx=0 dy=0 dh=0 dv=0 dx=0 dy=0 dh=0 dv=0
PairPos2: "kernGPOS-1" 1 dx=0 dy=0 dh=0 dv=0 dx=0 dy=0 dh=0 dv=0
PairPos2: "kernGPOS-1" 0 dx=0 dy=0 dh=0 dv=0 dx=0 dy=0 dh=0 dv=0
PairPos2: "kernGPOS-1" / dx=0 dy=0 dh=0 dv=0 dx=0 dy=0 dh=0 dv=0
PairPos2: "kernGPOS-1" . dx=0 dy=0 dh=0 dv=0 dx=0 dy=0 dh=0 dv=0
PairPos2: "kernGPOS-1" - dx=0 dy=0 dh=0 dv=0 dx=0 dy=0 dh=0 dv=0
PairPos2: "kernGPOS-1" , dx=0 dy=0 dh=0 dv=0 dx=0 dy=0 dh=0 dv=0
PairPos2: "kernGPOS-1" + dx=0 dy=0 dh=0 dv=0 dx=0 dy=0 dh=0 dv=0
PairPos2: "kernGPOS-1" * dx=0 dy=0 dh=0 dv=0 dx=0 dy=0 dh=0 dv=0
PairPos2: "kernGPOS-1" ( dx=0 dy=0 dh=0 dv=0 dx=0 dy=0 dh=0 dv=0
PairPos2: "kernGPOS-1" ' dx=0 dy=0 dh=0 dv=0 dx=0 dy=0 dh=0 dv=0
PairPos2: "kernGPOS-1" & dx=0 dy=0 dh=0 dv=0 dx=0 dy=0 dh=0 dv=0
PairPos2: "kernGPOS-1" % dx=0 dy=0 dh=0 dv=0 dx=0 dy=0 dh=0 dv=0
PairPos2: "kernGPOS-1" $ dx=0 dy=0 dh=0 dv=0 dx=0 dy=0 dh=0 dv=0
PairPos2: "kernGPOS-1" # dx=0 dy=0 dh=0 dv=0 dx=0 dy=0 dh=0 dv=0
PairPos2: "kernGPOS-1" " dx=0 dy=0 dh=0 dv=0 dx=0 dy=0 dh=0 dv=0
PairPos2: "kernGPOS-1" ! dx=0 dy=0 dh=0 dv=0 dx=0 dy=0 dh=0 dv=0
EndChar

StartChar: O
Encoding: 79 79 54
Width: 363
Flags: W
HStem: 0 40<134.59 224.441> 427 40<170.706 269.739>
VStem: 25 40<117.333 288.911> 298 40<149.994 394.25>
LayerCount: 2
Fore
SplineSet
25 198 m 0
 25 313 119 467 224 467 c 0
 249 467 301 459 325 391 c 0
 335 362 338 329 338 297 c 0
 338 253 332 210 328 183 c 0
 316 98 257 0 186 0 c 0
 183 0 181 0 178 0 c 0
 78 11 25 113 25 198 c 0
298 297 m 0
 298 366 282 427 224 427 c 0
 147 427 65 295 65 198 c 0
 65 125 111 48 182 40 c 0
 183 40 185 40 186 40 c 0
 230 40 278 119 288 189 c 0
 292 216 298 256 298 297 c 0
EndSplineSet
Validated: 513
PairPos2: "kernGPOS-1" ~ dx=0 dy=0 dh=0 dv=0 dx=0 dy=0 dh=0 dv=0
PairPos2: "kernGPOS-1" } dx=0 dy=0 dh=0 dv=0 dx=0 dy=0 dh=0 dv=0
PairPos2: "kernGPOS-1" | dx=0 dy=0 dh=0 dv=0 dx=0 dy=0 dh=0 dv=0
PairPos2: "kernGPOS-1" { dx=0 dy=0 dh=0 dv=0 dx=0 dy=0 dh=0 dv=0
PairPos2: "kernGPOS-1" _ dx=0 dy=0 dh=0 dv=0 dx=0 dy=0 dh=0 dv=0
PairPos2: "kernGPOS-1" \ dx=0 dy=0 dh=0 dv=0 dx=0 dy=0 dh=0 dv=0
PairPos2: "kernGPOS-1" [ dx=0 dy=0 dh=0 dv=0 dx=0 dy=0 dh=0 dv=0
PairPos2: "kernGPOS-1" ? dx=0 dy=0 dh=0 dv=0 dx=0 dy=0 dh=0 dv=0
PairPos2: "kernGPOS-1" > dx=0 dy=0 dh=0 dv=0 dx=0 dy=0 dh=0 dv=0
PairPos2: "kernGPOS-1" = dx=0 dy=0 dh=0 dv=0 dx=0 dy=0 dh=0 dv=0
PairPos2: "kernGPOS-1" < dx=0 dy=0 dh=0 dv=0 dx=0 dy=0 dh=0 dv=0
PairPos2: "kernGPOS-1" ; dx=0 dy=0 dh=0 dv=0 dx=0 dy=0 dh=0 dv=0
PairPos2: "kernGPOS-1" 8 dx=0 dy=0 dh=0 dv=0 dx=0 dy=0 dh=0 dv=0
PairPos2: "kernGPOS-1" 6 dx=0 dy=0 dh=0 dv=0 dx=0 dy=0 dh=0 dv=0
PairPos2: "kernGPOS-1" 5 dx=0 dy=0 dh=0 dv=0 dx=0 dy=0 dh=0 dv=0
PairPos2: "kernGPOS-1" 3 dx=0 dy=0 dh=0 dv=0 dx=0 dy=0 dh=0 dv=0
PairPos2: "kernGPOS-1" 1 dx=0 dy=0 dh=0 dv=0 dx=0 dy=0 dh=0 dv=0
PairPos2: "kernGPOS-1" / dx=0 dy=0 dh=0 dv=0 dx=0 dy=0 dh=0 dv=0
PairPos2: "kernGPOS-1" . dx=0 dy=0 dh=0 dv=0 dx=0 dy=0 dh=0 dv=0
PairPos2: "kernGPOS-1" - dx=0 dy=0 dh=0 dv=0 dx=0 dy=0 dh=0 dv=0
PairPos2: "kernGPOS-1" , dx=0 dy=0 dh=0 dv=0 dx=0 dy=0 dh=0 dv=0
PairPos2: "kernGPOS-1" + dx=0 dy=0 dh=0 dv=0 dx=0 dy=0 dh=0 dv=0
PairPos2: "kernGPOS-1" & dx=0 dy=0 dh=0 dv=0 dx=0 dy=0 dh=0 dv=0
PairPos2: "kernGPOS-1" $ dx=0 dy=0 dh=0 dv=0 dx=0 dy=0 dh=0 dv=0
PairPos2: "kernGPOS-1" ! dx=0 dy=0 dh=0 dv=0 dx=0 dy=0 dh=0 dv=0
EndChar

StartChar: P
Encoding: 80 80 55
Width: 300
Flags: W
HStem: 213 40<77 136.986> 426 40<117.377 234.554>
VStem: 25 42<0.161457 208.652> 40 40<254.219 400.633> 235 40<352.836 424.798>
LayerCount: 2
Fore
SplineSet
80 253 m 0xd8
 159 253 235 360 235 406 c 0
 235 418 230 420 225 422 c 0
 218 425 211 426 202 426 c 0
 178 426 146 416 110 404 c 0
 100 401 89 397 78 394 c 1
 79 373 80 353 80 334 c 0
 80 305 79 279 77 253 c 1
 78 253 79 253 80 253 c 0xd8
40 334 m 0
 40 390 35 425 35 429 c 0
 35 440 44 449 55 449 c 0
 64 449 71 443 74 435 c 1
 82 437 90 439 98 442 c 0
 134 454 168 466 202 466 c 0
 219 466 275 462 275 406 c 0
 275 341 185 213 80 213 c 0xd8
 78 213 76 213 74 213 c 0
 66 119 65 105 65 67 c 0
 65 52 66 37 67 21 c 2
 67 20 l 2
 67 9 58 0 47 0 c 0
 36 0 28 9 27 19 c 0
 26 36 25 51 25 67 c 0xe8
 25 155 40 236 40 334 c 0
EndSplineSet
Validated: 513
PairPos2: "kernGPOS-1" ~ dx=0 dy=0 dh=0 dv=0 dx=0 dy=0 dh=0 dv=0
PairPos2: "kernGPOS-1" | dx=0 dy=0 dh=0 dv=0 dx=0 dy=0 dh=0 dv=0
PairPos2: "kernGPOS-1" { dx=0 dy=0 dh=0 dv=0 dx=0 dy=0 dh=0 dv=0
PairPos2: "kernGPOS-1" _ dx=0 dy=0 dh=0 dv=0 dx=0 dy=0 dh=0 dv=0
PairPos2: "kernGPOS-1" ^ dx=0 dy=0 dh=0 dv=0 dx=0 dy=0 dh=0 dv=0
PairPos2: "kernGPOS-1" @ dx=0 dy=0 dh=0 dv=0 dx=0 dy=0 dh=0 dv=0
PairPos2: "kernGPOS-1" ? dx=0 dy=0 dh=0 dv=0 dx=0 dy=0 dh=0 dv=0
PairPos2: "kernGPOS-1" > dx=0 dy=0 dh=0 dv=0 dx=0 dy=0 dh=0 dv=0
PairPos2: "kernGPOS-1" = dx=0 dy=0 dh=0 dv=0 dx=0 dy=0 dh=0 dv=0
PairPos2: "kernGPOS-1" < dx=0 dy=0 dh=0 dv=0 dx=0 dy=0 dh=0 dv=0
PairPos2: "kernGPOS-1" ; dx=0 dy=0 dh=0 dv=0 dx=0 dy=0 dh=0 dv=0
PairPos2: "kernGPOS-1" : dx=0 dy=0 dh=0 dv=0 dx=0 dy=0 dh=0 dv=0
PairPos2: "kernGPOS-1" 9 dx=0 dy=0 dh=0 dv=0 dx=0 dy=0 dh=0 dv=0
PairPos2: "kernGPOS-1" 8 dx=0 dy=0 dh=0 dv=0 dx=0 dy=0 dh=0 dv=0
PairPos2: "kernGPOS-1" 6 dx=0 dy=0 dh=0 dv=0 dx=0 dy=0 dh=0 dv=0
PairPos2: "kernGPOS-1" 5 dx=0 dy=0 dh=0 dv=0 dx=0 dy=0 dh=0 dv=0
PairPos2: "kernGPOS-1" 4 dx=0 dy=0 dh=0 dv=0 dx=0 dy=0 dh=0 dv=0
PairPos2: "kernGPOS-1" 3 dx=0 dy=0 dh=0 dv=0 dx=0 dy=0 dh=0 dv=0
PairPos2: "kernGPOS-1" 1 dx=0 dy=0 dh=0 dv=0 dx=0 dy=0 dh=0 dv=0
PairPos2: "kernGPOS-1" 0 dx=0 dy=0 dh=0 dv=0 dx=0 dy=0 dh=0 dv=0
PairPos2: "kernGPOS-1" / dx=0 dy=0 dh=0 dv=0 dx=0 dy=0 dh=0 dv=0
PairPos2: "kernGPOS-1" . dx=0 dy=0 dh=0 dv=0 dx=0 dy=0 dh=0 dv=0
PairPos2: "kernGPOS-1" - dx=0 dy=0 dh=0 dv=0 dx=0 dy=0 dh=0 dv=0
PairPos2: "kernGPOS-1" , dx=0 dy=0 dh=0 dv=0 dx=0 dy=0 dh=0 dv=0
PairPos2: "kernGPOS-1" + dx=0 dy=0 dh=0 dv=0 dx=0 dy=0 dh=0 dv=0
PairPos2: "kernGPOS-1" ( dx=0 dy=0 dh=0 dv=0 dx=0 dy=0 dh=0 dv=0
PairPos2: "kernGPOS-1" & dx=0 dy=0 dh=0 dv=0 dx=0 dy=0 dh=0 dv=0
PairPos2: "kernGPOS-1" $ dx=0 dy=0 dh=0 dv=0 dx=0 dy=0 dh=0 dv=0
PairPos2: "kernGPOS-1" # dx=0 dy=0 dh=0 dv=0 dx=0 dy=0 dh=0 dv=0
PairPos2: "kernGPOS-1" ! dx=0 dy=0 dh=0 dv=0 dx=0 dy=0 dh=0 dv=0
EndChar

StartChar: Q
Encoding: 81 81 56
Width: 436
Flags: W
HStem: 0 40<96.8773 179.781> 166 38<159.033 209.299> 447 20G<221.5 232>
VStem: 25 40<76.6055 282.666> 260 40<172.36 400.669>
LayerCount: 2
Fore
SplineSet
65 163 m 0
 65 55 122 40 138 40 c 0
 167 40 204 73 232 135 c 1
 214 145 195 155 171 166 c 0
 164 169 159 176 159 184 c 0
 159 195 168 204 179 204 c 0
 182 204 185 203 187 202 c 0
 210 192 229 182 247 172 c 1
 252 187 260 212 260 275 c 0
 260 328 252 368 243 394 c 0
 237 412 229 423 226 427 c 1
 189 417 108 336 88 292 c 0
 82 279 65 220 65 163 c 0
300 275 m 0
 300 255 299 234 297 211 c 0
 295 193 290 173 282 151 c 1
 323 123 357 91 402 49 c 0
 407 45 411 41 411 32 c 0
 411 21 402 12 391 12 c 0
 383 12 379 16 374 20 c 0
 331 60 302 88 267 113 c 1
 248 74 203 0 138 0 c 0
 104 0 25 28 25 163 c 0
 25 227 41 288 51 309 c 0
 75 361 145 430 190 455 c 0
 202 462 215 467 228 467 c 0
 236 467 257 467 277 418 c 0
 290 386 300 339 300 275 c 0
EndSplineSet
Validated: 513
PairPos2: "kernGPOS-1" ~ dx=0 dy=0 dh=0 dv=0 dx=0 dy=0 dh=0 dv=0
PairPos2: "kernGPOS-1" } dx=0 dy=0 dh=0 dv=0 dx=0 dy=0 dh=0 dv=0
PairPos2: "kernGPOS-1" ` dx=0 dy=0 dh=0 dv=0 dx=0 dy=0 dh=0 dv=0
PairPos2: "kernGPOS-1" ^ dx=0 dy=0 dh=0 dv=0 dx=0 dy=0 dh=0 dv=0
PairPos2: "kernGPOS-1" ] dx=0 dy=0 dh=0 dv=0 dx=0 dy=0 dh=0 dv=0
PairPos2: "kernGPOS-1" \ dx=0 dy=0 dh=0 dv=0 dx=0 dy=0 dh=0 dv=0
PairPos2: "kernGPOS-1" @ dx=0 dy=0 dh=0 dv=0 dx=0 dy=0 dh=0 dv=0
PairPos2: "kernGPOS-1" < dx=0 dy=0 dh=0 dv=0 dx=0 dy=0 dh=0 dv=0
PairPos2: "kernGPOS-1" 9 dx=0 dy=0 dh=0 dv=0 dx=0 dy=0 dh=0 dv=0
PairPos2: "kernGPOS-1" 7 dx=0 dy=0 dh=0 dv=0 dx=0 dy=0 dh=0 dv=0
PairPos2: "kernGPOS-1" 6 dx=0 dy=0 dh=0 dv=0 dx=0 dy=0 dh=0 dv=0
PairPos2: "kernGPOS-1" 4 dx=0 dy=0 dh=0 dv=0 dx=0 dy=0 dh=0 dv=0
PairPos2: "kernGPOS-1" 0 dx=0 dy=0 dh=0 dv=0 dx=0 dy=0 dh=0 dv=0
PairPos2: "kernGPOS-1" - dx=0 dy=0 dh=0 dv=0 dx=0 dy=0 dh=0 dv=0
PairPos2: "kernGPOS-1" * dx=0 dy=0 dh=0 dv=0 dx=0 dy=0 dh=0 dv=0
PairPos2: "kernGPOS-1" ) dx=0 dy=0 dh=0 dv=0 dx=0 dy=0 dh=0 dv=0
PairPos2: "kernGPOS-1" ( dx=0 dy=0 dh=0 dv=0 dx=0 dy=0 dh=0 dv=0
PairPos2: "kernGPOS-1" ' dx=0 dy=0 dh=0 dv=0 dx=0 dy=0 dh=0 dv=0
PairPos2: "kernGPOS-1" % dx=0 dy=0 dh=0 dv=0 dx=0 dy=0 dh=0 dv=0
PairPos2: "kernGPOS-1" # dx=0 dy=0 dh=0 dv=0 dx=0 dy=0 dh=0 dv=0
PairPos2: "kernGPOS-1" " dx=0 dy=0 dh=0 dv=0 dx=0 dy=0 dh=0 dv=0
EndChar

StartChar: R
Encoding: 82 82 57
Width: 321
Flags: W
HStem: 413 40<106 231.9> 447 20G<81.5 92>
VStem: 25 40<0.161457 189.938> 67 39<269.158 410> 236 40<356.522 406.434>
LayerCount: 2
Fore
SplineSet
232 404 m 0xb8
 230 405 219 413 171 413 c 0
 150 413 127 411 106 410 c 1
 104 361 97 313 90 267 c 1
 153 292 169 308 226 365 c 0
 232 371 236 382 236 391 c 0
 236 397 235 401 232 404 c 0xb8
65 61 m 0
 65 37 67 22 67 20 c 0
 67 9 58 0 47 0 c 0
 36 0 28 8 27 18 c 0
 26 32 25 47 25 61 c 0
 25 115 33 166 41 218 c 0
 40 221 39 225 39 228 c 0
 39 234 42 240 46 246 c 0
 57 312 67 377 67 443 c 0
 67 444 67 446 67 447 c 0
 67 458 76 467 87 467 c 0x78
 97 467 105 459 107 450 c 1
 127 451 150 453 171 453 c 0
 231 453 251 443 262 430 c 0
 272 418 276 404 276 391 c 0
 276 371 268 351 254 337 c 0
 210 293 196 278 167 260 c 0
 148 248 125 238 96 227 c 1
 184 181 239 131 292 62 c 0
 295 59 296 55 296 50 c 0
 296 39 287 30 276 30 c 0
 270 30 264 33 260 38 c 0
 210 103 160 149 77 192 c 1
 70 148 65 104 65 61 c 0
EndSplineSet
Validated: 513
PairPos2: "kernGPOS-1" } dx=0 dy=0 dh=0 dv=0 dx=0 dy=0 dh=0 dv=0
PairPos2: "kernGPOS-1" ` dx=0 dy=0 dh=0 dv=0 dx=0 dy=0 dh=0 dv=0
PairPos2: "kernGPOS-1" ^ dx=0 dy=0 dh=0 dv=0 dx=0 dy=0 dh=0 dv=0
PairPos2: "kernGPOS-1" ] dx=0 dy=0 dh=0 dv=0 dx=0 dy=0 dh=0 dv=0
PairPos2: "kernGPOS-1" \ dx=0 dy=0 dh=0 dv=0 dx=0 dy=0 dh=0 dv=0
PairPos2: "kernGPOS-1" @ dx=0 dy=0 dh=0 dv=0 dx=0 dy=0 dh=0 dv=0
PairPos2: "kernGPOS-1" ; dx=0 dy=0 dh=0 dv=0 dx=0 dy=0 dh=0 dv=0
PairPos2: "kernGPOS-1" 9 dx=0 dy=0 dh=0 dv=0 dx=0 dy=0 dh=0 dv=0
PairPos2: "kernGPOS-1" 7 dx=0 dy=0 dh=0 dv=0 dx=0 dy=0 dh=0 dv=0
PairPos2: "kernGPOS-1" 4 dx=0 dy=0 dh=0 dv=0 dx=0 dy=0 dh=0 dv=0
PairPos2: "kernGPOS-1" 0 dx=0 dy=0 dh=0 dv=0 dx=0 dy=0 dh=0 dv=0
PairPos2: "kernGPOS-1" , dx=0 dy=0 dh=0 dv=0 dx=0 dy=0 dh=0 dv=0
PairPos2: "kernGPOS-1" * dx=0 dy=0 dh=0 dv=0 dx=0 dy=0 dh=0 dv=0
PairPos2: "kernGPOS-1" ) dx=0 dy=0 dh=0 dv=0 dx=0 dy=0 dh=0 dv=0
PairPos2: "kernGPOS-1" ( dx=0 dy=0 dh=0 dv=0 dx=0 dy=0 dh=0 dv=0
PairPos2: "kernGPOS-1" ' dx=0 dy=0 dh=0 dv=0 dx=0 dy=0 dh=0 dv=0
PairPos2: "kernGPOS-1" % dx=0 dy=0 dh=0 dv=0 dx=0 dy=0 dh=0 dv=0
PairPos2: "kernGPOS-1" # dx=0 dy=0 dh=0 dv=0 dx=0 dy=0 dh=0 dv=0
PairPos2: "kernGPOS-1" " dx=0 dy=0 dh=0 dv=0 dx=0 dy=0 dh=0 dv=0
EndChar

StartChar: S
Encoding: 83 83 58
Width: 283
Flags: W
HStem: 16 39<25.0146 116.318> 427 40<167.301 216.216>
VStem: 88 40<241.031 390.566> 181 40<53.5054 161.323> 219 39<387.015 426.689>
LayerCount: 2
Fore
SplineSet
45 55 m 0xf0
 53 55 82 40 118 40 c 0
 147 40 164 50 171 67 c 0
 178 83 181 97 181 109 c 0xf0
 181 136 166 163 126 204 c 0
 99 232 88 270 88 311 c 0
 88 330 91 387 121 421 c 0
 139 441 161 451 189 463 c 0
 194 465 201 467 207 467 c 0
 237 467 249 435 257 414 c 0
 258 412 258 409 258 407 c 0
 258 396 249 387 238 387 c 0
 229 387 222 392 219 400 c 0xe8
 215 412 210 423 206 427 c 0
 205 427 167 412 151 395 c 0
 143 386 136 373 132 351 c 0
 129 337 128 324 128 311 c 0
 128 277 138 250 155 232 c 0
 196 189 221 152 221 109 c 0
 221 90 216 71 208 51 c 0
 188 2 125 -16 38 16 c 0
 30 19 25 26 25 35 c 0
 25 46 34 55 45 55 c 0xf0
EndSplineSet
Validated: 545
PairPos2: "kernGPOS-1" ~ dx=0 dy=0 dh=0 dv=0 dx=0 dy=0 dh=0 dv=0
PairPos2: "kernGPOS-1" | dx=0 dy=0 dh=0 dv=0 dx=0 dy=0 dh=0 dv=0
PairPos2: "kernGPOS-1" { dx=0 dy=0 dh=0 dv=0 dx=0 dy=0 dh=0 dv=0
PairPos2: "kernGPOS-1" _ dx=0 dy=0 dh=0 dv=0 dx=0 dy=0 dh=0 dv=0
PairPos2: "kernGPOS-1" ^ dx=0 dy=0 dh=0 dv=0 dx=0 dy=0 dh=0 dv=0
PairPos2: "kernGPOS-1" @ dx=0 dy=0 dh=0 dv=0 dx=0 dy=0 dh=0 dv=0
PairPos2: "kernGPOS-1" ? dx=0 dy=0 dh=0 dv=0 dx=0 dy=0 dh=0 dv=0
PairPos2: "kernGPOS-1" > dx=0 dy=0 dh=0 dv=0 dx=0 dy=0 dh=0 dv=0
PairPos2: "kernGPOS-1" = dx=0 dy=0 dh=0 dv=0 dx=0 dy=0 dh=0 dv=0
PairPos2: "kernGPOS-1" < dx=0 dy=0 dh=0 dv=0 dx=0 dy=0 dh=0 dv=0
PairPos2: "kernGPOS-1" ; dx=0 dy=0 dh=0 dv=0 dx=0 dy=0 dh=0 dv=0
PairPos2: "kernGPOS-1" : dx=0 dy=0 dh=0 dv=0 dx=0 dy=0 dh=0 dv=0
PairPos2: "kernGPOS-1" 9 dx=0 dy=0 dh=0 dv=0 dx=0 dy=0 dh=0 dv=0
PairPos2: "kernGPOS-1" 8 dx=0 dy=0 dh=0 dv=0 dx=0 dy=0 dh=0 dv=0
PairPos2: "kernGPOS-1" 6 dx=0 dy=0 dh=0 dv=0 dx=0 dy=0 dh=0 dv=0
PairPos2: "kernGPOS-1" 5 dx=0 dy=0 dh=0 dv=0 dx=0 dy=0 dh=0 dv=0
PairPos2: "kernGPOS-1" 4 dx=0 dy=0 dh=0 dv=0 dx=0 dy=0 dh=0 dv=0
PairPos2: "kernGPOS-1" 3 dx=0 dy=0 dh=0 dv=0 dx=0 dy=0 dh=0 dv=0
PairPos2: "kernGPOS-1" 1 dx=0 dy=0 dh=0 dv=0 dx=0 dy=0 dh=0 dv=0
PairPos2: "kernGPOS-1" 0 dx=0 dy=0 dh=0 dv=0 dx=0 dy=0 dh=0 dv=0
PairPos2: "kernGPOS-1" / dx=0 dy=0 dh=0 dv=0 dx=0 dy=0 dh=0 dv=0
PairPos2: "kernGPOS-1" . dx=0 dy=0 dh=0 dv=0 dx=0 dy=0 dh=0 dv=0
PairPos2: "kernGPOS-1" - dx=0 dy=0 dh=0 dv=0 dx=0 dy=0 dh=0 dv=0
PairPos2: "kernGPOS-1" , dx=0 dy=0 dh=0 dv=0 dx=0 dy=0 dh=0 dv=0
PairPos2: "kernGPOS-1" + dx=0 dy=0 dh=0 dv=0 dx=0 dy=0 dh=0 dv=0
PairPos2: "kernGPOS-1" ( dx=0 dy=0 dh=0 dv=0 dx=0 dy=0 dh=0 dv=0
PairPos2: "kernGPOS-1" ' dx=0 dy=0 dh=0 dv=0 dx=0 dy=0 dh=0 dv=0
PairPos2: "kernGPOS-1" & dx=0 dy=0 dh=0 dv=0 dx=0 dy=0 dh=0 dv=0
PairPos2: "kernGPOS-1" $ dx=0 dy=0 dh=0 dv=0 dx=0 dy=0 dh=0 dv=0
PairPos2: "kernGPOS-1" # dx=0 dy=0 dh=0 dv=0 dx=0 dy=0 dh=0 dv=0
PairPos2: "kernGPOS-1" " dx=0 dy=0 dh=0 dv=0 dx=0 dy=0 dh=0 dv=0
PairPos2: "kernGPOS-1" ! dx=0 dy=0 dh=0 dv=0 dx=0 dy=0 dh=0 dv=0
EndChar

StartChar: T
Encoding: 84 84 59
Width: 319
Flags: W
HStem: 385 40<25.0066 138.78> 405 62<252.429 280.717>
VStem: 109 40<20.5156 210.857> 118 42<0.104645 46.3936 47.596 299.8> 141 40<191.215 397> 252 42<405.137 425.95>
LayerCount: 2
Fore
SplineSet
149 45 m 2x64
 149 42 160 31 160 20 c 0
 160 9 151 0 140 0 c 0
 132 0 125 4 122 11 c 0
 121 14 120 16 118 19 c 0x54
 115 25 109 34 109 47 c 0x64
 109 59 116 117 122 165 c 0
 131 235 141 304 141 378 c 0
 141 384 140 391 140 397 c 1
 114 390 87 385 53 385 c 0
 50 385 48 385 45 385 c 0x8c
 34 385 25 394 25 405 c 0x4c
 25 416 34 425 45 425 c 0
 46 425 49 425 53 425 c 0x8c
 129 425 171 454 252 467 c 0
 254 467 257 467 259 467 c 0x4c
 267 467 275 464 281 458 c 0
 287 451 289 444 290 440 c 0
 291 437 292 434 293 432 c 0
 294 430 294 428 294 425 c 0x8c
 294 414 285 405 274 405 c 0
 259 405 255 417 252 426 c 1
 225 421 203 415 180 408 c 1
 180 398 181 388 181 378 c 0x4c
 181 300 171 229 162 159 c 0
 161 148 149 59 149 47 c 0
 149 46 149 45 149 45 c 2x64
EndSplineSet
Validated: 513
PairPos2: "kernGPOS-1" ~ dx=0 dy=0 dh=0 dv=0 dx=0 dy=0 dh=0 dv=0
PairPos2: "kernGPOS-1" | dx=0 dy=0 dh=0 dv=0 dx=0 dy=0 dh=0 dv=0
PairPos2: "kernGPOS-1" { dx=0 dy=0 dh=0 dv=0 dx=0 dy=0 dh=0 dv=0
PairPos2: "kernGPOS-1" _ dx=0 dy=0 dh=0 dv=0 dx=0 dy=0 dh=0 dv=0
PairPos2: "kernGPOS-1" ^ dx=0 dy=0 dh=0 dv=0 dx=0 dy=0 dh=0 dv=0
PairPos2: "kernGPOS-1" @ dx=0 dy=0 dh=0 dv=0 dx=0 dy=0 dh=0 dv=0
PairPos2: "kernGPOS-1" ? dx=0 dy=0 dh=0 dv=0 dx=0 dy=0 dh=0 dv=0
PairPos2: "kernGPOS-1" > dx=0 dy=0 dh=0 dv=0 dx=0 dy=0 dh=0 dv=0
PairPos2: "kernGPOS-1" = dx=0 dy=0 dh=0 dv=0 dx=0 dy=0 dh=0 dv=0
PairPos2: "kernGPOS-1" < dx=0 dy=0 dh=0 dv=0 dx=0 dy=0 dh=0 dv=0
PairPos2: "kernGPOS-1" ; dx=0 dy=0 dh=0 dv=0 dx=0 dy=0 dh=0 dv=0
PairPos2: "kernGPOS-1" : dx=0 dy=0 dh=0 dv=0 dx=0 dy=0 dh=0 dv=0
PairPos2: "kernGPOS-1" 9 dx=0 dy=0 dh=0 dv=0 dx=0 dy=0 dh=0 dv=0
PairPos2: "kernGPOS-1" 8 dx=0 dy=0 dh=0 dv=0 dx=0 dy=0 dh=0 dv=0
PairPos2: "kernGPOS-1" 6 dx=0 dy=0 dh=0 dv=0 dx=0 dy=0 dh=0 dv=0
PairPos2: "kernGPOS-1" 5 dx=0 dy=0 dh=0 dv=0 dx=0 dy=0 dh=0 dv=0
PairPos2: "kernGPOS-1" 4 dx=0 dy=0 dh=0 dv=0 dx=0 dy=0 dh=0 dv=0
PairPos2: "kernGPOS-1" 3 dx=0 dy=0 dh=0 dv=0 dx=0 dy=0 dh=0 dv=0
PairPos2: "kernGPOS-1" 1 dx=0 dy=0 dh=0 dv=0 dx=0 dy=0 dh=0 dv=0
PairPos2: "kernGPOS-1" 0 dx=0 dy=0 dh=0 dv=0 dx=0 dy=0 dh=0 dv=0
PairPos2: "kernGPOS-1" / dx=0 dy=0 dh=0 dv=0 dx=0 dy=0 dh=0 dv=0
PairPos2: "kernGPOS-1" . dx=0 dy=0 dh=0 dv=0 dx=0 dy=0 dh=0 dv=0
PairPos2: "kernGPOS-1" - dx=0 dy=0 dh=0 dv=0 dx=0 dy=0 dh=0 dv=0
PairPos2: "kernGPOS-1" , dx=0 dy=0 dh=0 dv=0 dx=0 dy=0 dh=0 dv=0
PairPos2: "kernGPOS-1" + dx=0 dy=0 dh=0 dv=0 dx=0 dy=0 dh=0 dv=0
PairPos2: "kernGPOS-1" * dx=0 dy=0 dh=0 dv=0 dx=0 dy=0 dh=0 dv=0
PairPos2: "kernGPOS-1" ( dx=0 dy=0 dh=0 dv=0 dx=0 dy=0 dh=0 dv=0
PairPos2: "kernGPOS-1" ' dx=0 dy=0 dh=0 dv=0 dx=0 dy=0 dh=0 dv=0
PairPos2: "kernGPOS-1" & dx=0 dy=0 dh=0 dv=0 dx=0 dy=0 dh=0 dv=0
PairPos2: "kernGPOS-1" % dx=0 dy=0 dh=0 dv=0 dx=0 dy=0 dh=0 dv=0
PairPos2: "kernGPOS-1" $ dx=0 dy=0 dh=0 dv=0 dx=0 dy=0 dh=0 dv=0
PairPos2: "kernGPOS-1" # dx=0 dy=0 dh=0 dv=0 dx=0 dy=0 dh=0 dv=0
PairPos2: "kernGPOS-1" " dx=0 dy=0 dh=0 dv=0 dx=0 dy=0 dh=0 dv=0
PairPos2: "kernGPOS-1" ! dx=0 dy=0 dh=0 dv=0 dx=0 dy=0 dh=0 dv=0
EndChar

StartChar: U
Encoding: 85 85 60
Width: 323
Flags: W
HStem: 447 20G<64 74.5>
VStem: 25 40<44.2919 378.973> 49 40<303.828 466.993> 258 40<271.68 433.993>
LayerCount: 2
Fore
SplineSet
69 467 m 0xb0
 80 467 89 458 89 447 c 0
 89 446 89 444 89 443 c 0xb0
 73 361 65 270 65 191 c 0
 65 133 69 81 76 44 c 0
 78 43 84 41 93 41 c 0
 118 41 152 53 165 71 c 0
 226 152 239 259 254 382 c 0
 255 393 257 405 258 417 c 0
 259 427 268 434 278 434 c 0
 289 434 298 425 298 414 c 0
 298 413 298 413 294 377 c 0
 279 255 266 139 197 47 c 0
 166 6 83 -15 50 13 c 0
 44 18 39 26 37 35 c 0
 29 76 25 130 25 191 c 0xd0
 25 273 32 366 49 451 c 0
 51 460 59 467 69 467 c 0xb0
EndSplineSet
Validated: 545
PairPos2: "kernGPOS-1" ~ dx=0 dy=0 dh=0 dv=0 dx=0 dy=0 dh=0 dv=0
PairPos2: "kernGPOS-1" | dx=0 dy=0 dh=0 dv=0 dx=0 dy=0 dh=0 dv=0
PairPos2: "kernGPOS-1" { dx=0 dy=0 dh=0 dv=0 dx=0 dy=0 dh=0 dv=0
PairPos2: "kernGPOS-1" _ dx=0 dy=0 dh=0 dv=0 dx=0 dy=0 dh=0 dv=0
PairPos2: "kernGPOS-1" ^ dx=0 dy=0 dh=0 dv=0 dx=0 dy=0 dh=0 dv=0
PairPos2: "kernGPOS-1" @ dx=0 dy=0 dh=0 dv=0 dx=0 dy=0 dh=0 dv=0
PairPos2: "kernGPOS-1" ? dx=0 dy=0 dh=0 dv=0 dx=0 dy=0 dh=0 dv=0
PairPos2: "kernGPOS-1" > dx=0 dy=0 dh=0 dv=0 dx=0 dy=0 dh=0 dv=0
PairPos2: "kernGPOS-1" = dx=0 dy=0 dh=0 dv=0 dx=0 dy=0 dh=0 dv=0
PairPos2: "kernGPOS-1" < dx=0 dy=0 dh=0 dv=0 dx=0 dy=0 dh=0 dv=0
PairPos2: "kernGPOS-1" ; dx=0 dy=0 dh=0 dv=0 dx=0 dy=0 dh=0 dv=0
PairPos2: "kernGPOS-1" : dx=0 dy=0 dh=0 dv=0 dx=0 dy=0 dh=0 dv=0
PairPos2: "kernGPOS-1" 9 dx=0 dy=0 dh=0 dv=0 dx=0 dy=0 dh=0 dv=0
PairPos2: "kernGPOS-1" 8 dx=0 dy=0 dh=0 dv=0 dx=0 dy=0 dh=0 dv=0
PairPos2: "kernGPOS-1" 6 dx=0 dy=0 dh=0 dv=0 dx=0 dy=0 dh=0 dv=0
PairPos2: "kernGPOS-1" 5 dx=0 dy=0 dh=0 dv=0 dx=0 dy=0 dh=0 dv=0
PairPos2: "kernGPOS-1" 4 dx=0 dy=0 dh=0 dv=0 dx=0 dy=0 dh=0 dv=0
PairPos2: "kernGPOS-1" 3 dx=0 dy=0 dh=0 dv=0 dx=0 dy=0 dh=0 dv=0
PairPos2: "kernGPOS-1" 1 dx=0 dy=0 dh=0 dv=0 dx=0 dy=0 dh=0 dv=0
PairPos2: "kernGPOS-1" 0 dx=0 dy=0 dh=0 dv=0 dx=0 dy=0 dh=0 dv=0
PairPos2: "kernGPOS-1" / dx=0 dy=0 dh=0 dv=0 dx=0 dy=0 dh=0 dv=0
PairPos2: "kernGPOS-1" . dx=0 dy=0 dh=0 dv=0 dx=0 dy=0 dh=0 dv=0
PairPos2: "kernGPOS-1" - dx=0 dy=0 dh=0 dv=0 dx=0 dy=0 dh=0 dv=0
PairPos2: "kernGPOS-1" , dx=0 dy=0 dh=0 dv=0 dx=0 dy=0 dh=0 dv=0
PairPos2: "kernGPOS-1" + dx=0 dy=0 dh=0 dv=0 dx=0 dy=0 dh=0 dv=0
PairPos2: "kernGPOS-1" ( dx=0 dy=0 dh=0 dv=0 dx=0 dy=0 dh=0 dv=0
PairPos2: "kernGPOS-1" & dx=0 dy=0 dh=0 dv=0 dx=0 dy=0 dh=0 dv=0
PairPos2: "kernGPOS-1" % dx=0 dy=0 dh=0 dv=0 dx=0 dy=0 dh=0 dv=0
PairPos2: "kernGPOS-1" $ dx=0 dy=0 dh=0 dv=0 dx=0 dy=0 dh=0 dv=0
PairPos2: "kernGPOS-1" # dx=0 dy=0 dh=0 dv=0 dx=0 dy=0 dh=0 dv=0
PairPos2: "kernGPOS-1" ! dx=0 dy=0 dh=0 dv=0 dx=0 dy=0 dh=0 dv=0
EndChar

StartChar: V
Encoding: 86 86 61
Width: 373
Flags: W
HStem: 447 20G<324.5 333.5>
VStem: 25 40<293.32 449.993>
LayerCount: 2
Fore
SplineSet
100 29 m 0
 100 41 102 59 102 77 c 0
 102 89 100 101 98 108 c 0
 54 233 33 311 25 429 c 1
 25 430 l 2
 25 441 34 450 45 450 c 0
 56 450 64 442 65 432 c 0
 73 317 92 245 136 121 c 0
 139 111 140 101 141 91 c 1
 161 150 181 233 213 304 c 0
 248 381 269 388 311 457 c 0
 315 463 321 467 328 467 c 0
 339 467 348 458 348 447 c 0
 348 443 347 440 345 437 c 0
 301 364 284 362 250 288 c 0
 198 176 183 32 134 3 c 0
 120 -5 103 2 100 21 c 0
 100 24 100 26 100 29 c 0
EndSplineSet
Validated: 545
PairPos2: "kernGPOS-1" ~ dx=0 dy=0 dh=0 dv=0 dx=0 dy=0 dh=0 dv=0
PairPos2: "kernGPOS-1" | dx=0 dy=0 dh=0 dv=0 dx=0 dy=0 dh=0 dv=0
PairPos2: "kernGPOS-1" { dx=0 dy=0 dh=0 dv=0 dx=0 dy=0 dh=0 dv=0
PairPos2: "kernGPOS-1" _ dx=0 dy=0 dh=0 dv=0 dx=0 dy=0 dh=0 dv=0
PairPos2: "kernGPOS-1" ^ dx=0 dy=0 dh=0 dv=0 dx=0 dy=0 dh=0 dv=0
PairPos2: "kernGPOS-1" @ dx=0 dy=0 dh=0 dv=0 dx=0 dy=0 dh=0 dv=0
PairPos2: "kernGPOS-1" ? dx=0 dy=0 dh=0 dv=0 dx=0 dy=0 dh=0 dv=0
PairPos2: "kernGPOS-1" > dx=0 dy=0 dh=0 dv=0 dx=0 dy=0 dh=0 dv=0
PairPos2: "kernGPOS-1" = dx=0 dy=0 dh=0 dv=0 dx=0 dy=0 dh=0 dv=0
PairPos2: "kernGPOS-1" < dx=0 dy=0 dh=0 dv=0 dx=0 dy=0 dh=0 dv=0
PairPos2: "kernGPOS-1" ; dx=0 dy=0 dh=0 dv=0 dx=0 dy=0 dh=0 dv=0
PairPos2: "kernGPOS-1" : dx=0 dy=0 dh=0 dv=0 dx=0 dy=0 dh=0 dv=0
PairPos2: "kernGPOS-1" 9 dx=0 dy=0 dh=0 dv=0 dx=0 dy=0 dh=0 dv=0
PairPos2: "kernGPOS-1" 8 dx=0 dy=0 dh=0 dv=0 dx=0 dy=0 dh=0 dv=0
PairPos2: "kernGPOS-1" 6 dx=0 dy=0 dh=0 dv=0 dx=0 dy=0 dh=0 dv=0
PairPos2: "kernGPOS-1" 5 dx=0 dy=0 dh=0 dv=0 dx=0 dy=0 dh=0 dv=0
PairPos2: "kernGPOS-1" 4 dx=0 dy=0 dh=0 dv=0 dx=0 dy=0 dh=0 dv=0
PairPos2: "kernGPOS-1" 3 dx=0 dy=0 dh=0 dv=0 dx=0 dy=0 dh=0 dv=0
PairPos2: "kernGPOS-1" 2 dx=0 dy=0 dh=0 dv=0 dx=0 dy=0 dh=0 dv=0
PairPos2: "kernGPOS-1" 1 dx=0 dy=0 dh=0 dv=0 dx=0 dy=0 dh=0 dv=0
PairPos2: "kernGPOS-1" 0 dx=0 dy=0 dh=0 dv=0 dx=0 dy=0 dh=0 dv=0
PairPos2: "kernGPOS-1" / dx=0 dy=0 dh=0 dv=0 dx=0 dy=0 dh=0 dv=0
PairPos2: "kernGPOS-1" . dx=0 dy=0 dh=0 dv=0 dx=0 dy=0 dh=0 dv=0
PairPos2: "kernGPOS-1" - dx=0 dy=0 dh=0 dv=0 dx=0 dy=0 dh=0 dv=0
PairPos2: "kernGPOS-1" , dx=0 dy=0 dh=0 dv=0 dx=0 dy=0 dh=0 dv=0
PairPos2: "kernGPOS-1" + dx=0 dy=0 dh=0 dv=0 dx=0 dy=0 dh=0 dv=0
PairPos2: "kernGPOS-1" * dx=0 dy=0 dh=0 dv=0 dx=0 dy=0 dh=0 dv=0
PairPos2: "kernGPOS-1" ( dx=0 dy=0 dh=0 dv=0 dx=0 dy=0 dh=0 dv=0
PairPos2: "kernGPOS-1" ' dx=0 dy=0 dh=0 dv=0 dx=0 dy=0 dh=0 dv=0
PairPos2: "kernGPOS-1" & dx=0 dy=0 dh=0 dv=0 dx=0 dy=0 dh=0 dv=0
PairPos2: "kernGPOS-1" % dx=0 dy=0 dh=0 dv=0 dx=0 dy=0 dh=0 dv=0
PairPos2: "kernGPOS-1" $ dx=0 dy=0 dh=0 dv=0 dx=0 dy=0 dh=0 dv=0
PairPos2: "kernGPOS-1" # dx=0 dy=0 dh=0 dv=0 dx=0 dy=0 dh=0 dv=0
PairPos2: "kernGPOS-1" " dx=0 dy=0 dh=0 dv=0 dx=0 dy=0 dh=0 dv=0
PairPos2: "kernGPOS-1" ! dx=0 dy=0 dh=0 dv=0 dx=0 dy=0 dh=0 dv=0
EndChar

StartChar: W
Encoding: 87 87 62
Width: 503
Flags: W
HStem: 0 40<121.676 162.007> 49 40<328.652 359.326> 447 20G<453.5 463.5>
VStem: 25 38<402.884 460.961> 439 39<377.065 466.98>
LayerCount: 2
Fore
SplineSet
268 264 m 1
 229 83 194 0 143 0 c 0
 128 0 104 7 90 32 c 0
 51 102 91 283 26 433 c 0
 25 435 25 438 25 441 c 0
 25 452 34 461 45 461 c 0
 53 461 60 455 63 448 c 0
 132 290 93 101 126 50 c 0
 128 47 133 40 143 40 c 0
 144 40 162 42 188 117 c 0
 224 220 248 379 260 410 c 0
 262 416 268 425 280 425 c 0
 287 425 298 422 301 404 c 0
 313 342 301 157 332 100 c 0
 338 90 341 89 344 89 c 0
 346 89 346 89 347 90 c 0
 381 117 403 324 439 452 c 0
 441 460 449 467 458 467 c 0
 469 467 478 458 478 447 c 0
 478 445 477 444 477 442 c 0
 440 310 425 127 383 70 c 0
 370 52 356 49 344 49 c 0
 331 49 320 54 311 62 c 0
 282 89 271 152 268 264 c 1
EndSplineSet
Validated: 513
PairPos2: "kernGPOS-1" ~ dx=0 dy=0 dh=0 dv=0 dx=0 dy=0 dh=0 dv=0
PairPos2: "kernGPOS-1" | dx=0 dy=0 dh=0 dv=0 dx=0 dy=0 dh=0 dv=0
PairPos2: "kernGPOS-1" { dx=0 dy=0 dh=0 dv=0 dx=0 dy=0 dh=0 dv=0
PairPos2: "kernGPOS-1" _ dx=0 dy=0 dh=0 dv=0 dx=0 dy=0 dh=0 dv=0
PairPos2: "kernGPOS-1" ^ dx=0 dy=0 dh=0 dv=0 dx=0 dy=0 dh=0 dv=0
PairPos2: "kernGPOS-1" @ dx=0 dy=0 dh=0 dv=0 dx=0 dy=0 dh=0 dv=0
PairPos2: "kernGPOS-1" ? dx=0 dy=0 dh=0 dv=0 dx=0 dy=0 dh=0 dv=0
PairPos2: "kernGPOS-1" > dx=0 dy=0 dh=0 dv=0 dx=0 dy=0 dh=0 dv=0
PairPos2: "kernGPOS-1" = dx=0 dy=0 dh=0 dv=0 dx=0 dy=0 dh=0 dv=0
PairPos2: "kernGPOS-1" < dx=0 dy=0 dh=0 dv=0 dx=0 dy=0 dh=0 dv=0
PairPos2: "kernGPOS-1" ; dx=0 dy=0 dh=0 dv=0 dx=0 dy=0 dh=0 dv=0
PairPos2: "kernGPOS-1" : dx=0 dy=0 dh=0 dv=0 dx=0 dy=0 dh=0 dv=0
PairPos2: "kernGPOS-1" 9 dx=0 dy=0 dh=0 dv=0 dx=0 dy=0 dh=0 dv=0
PairPos2: "kernGPOS-1" 8 dx=0 dy=0 dh=0 dv=0 dx=0 dy=0 dh=0 dv=0
PairPos2: "kernGPOS-1" 6 dx=0 dy=0 dh=0 dv=0 dx=0 dy=0 dh=0 dv=0
PairPos2: "kernGPOS-1" 5 dx=0 dy=0 dh=0 dv=0 dx=0 dy=0 dh=0 dv=0
PairPos2: "kernGPOS-1" 4 dx=0 dy=0 dh=0 dv=0 dx=0 dy=0 dh=0 dv=0
PairPos2: "kernGPOS-1" 3 dx=0 dy=0 dh=0 dv=0 dx=0 dy=0 dh=0 dv=0
PairPos2: "kernGPOS-1" 2 dx=0 dy=0 dh=0 dv=0 dx=0 dy=0 dh=0 dv=0
PairPos2: "kernGPOS-1" 1 dx=0 dy=0 dh=0 dv=0 dx=0 dy=0 dh=0 dv=0
PairPos2: "kernGPOS-1" 0 dx=0 dy=0 dh=0 dv=0 dx=0 dy=0 dh=0 dv=0
PairPos2: "kernGPOS-1" / dx=0 dy=0 dh=0 dv=0 dx=0 dy=0 dh=0 dv=0
PairPos2: "kernGPOS-1" . dx=0 dy=0 dh=0 dv=0 dx=0 dy=0 dh=0 dv=0
PairPos2: "kernGPOS-1" - dx=0 dy=0 dh=0 dv=0 dx=0 dy=0 dh=0 dv=0
PairPos2: "kernGPOS-1" , dx=0 dy=0 dh=0 dv=0 dx=0 dy=0 dh=0 dv=0
PairPos2: "kernGPOS-1" + dx=0 dy=0 dh=0 dv=0 dx=0 dy=0 dh=0 dv=0
PairPos2: "kernGPOS-1" * dx=0 dy=0 dh=0 dv=0 dx=0 dy=0 dh=0 dv=0
PairPos2: "kernGPOS-1" ( dx=0 dy=0 dh=0 dv=0 dx=0 dy=0 dh=0 dv=0
PairPos2: "kernGPOS-1" ' dx=0 dy=0 dh=0 dv=0 dx=0 dy=0 dh=0 dv=0
PairPos2: "kernGPOS-1" & dx=0 dy=0 dh=0 dv=0 dx=0 dy=0 dh=0 dv=0
PairPos2: "kernGPOS-1" % dx=0 dy=0 dh=0 dv=0 dx=0 dy=0 dh=0 dv=0
PairPos2: "kernGPOS-1" $ dx=0 dy=0 dh=0 dv=0 dx=0 dy=0 dh=0 dv=0
PairPos2: "kernGPOS-1" # dx=0 dy=0 dh=0 dv=0 dx=0 dy=0 dh=0 dv=0
PairPos2: "kernGPOS-1" " dx=0 dy=0 dh=0 dv=0 dx=0 dy=0 dh=0 dv=0
PairPos2: "kernGPOS-1" ! dx=0 dy=0 dh=0 dv=0 dx=0 dy=0 dh=0 dv=0
EndChar

StartChar: X
Encoding: 88 88 63
Width: 404
Flags: W
HStem: 447 20G<355 364.5>
VStem: 340 39<417.971 466.983>
LayerCount: 2
Fore
SplineSet
109 413 m 0
 109 424 118 433 129 433 c 0
 136 433 142 429 146 423 c 0
 174 376 198 338 230 286 c 1
 242 302 323 411 340 454 c 0
 343 461 351 467 359 467 c 0
 370 467 379 458 379 447 c 0
 379 427 318 335 253 249 c 1
 285 197 318 143 357 75 c 0
 359 72 359 69 359 65 c 0
 359 54 350 45 339 45 c 0
 332 45 325 49 322 55 c 0
 287 117 256 167 227 215 c 1
 195 174 163 136 140 110 c 0
 112 79 105 48 58 5 c 0
 54 2 50 0 45 0 c 0
 34 0 25 9 25 20 c 0
 25 26 28 31 32 35 c 0
 76 75 77 100 110 137 c 0
 134 164 169 205 204 251 c 1
 158 325 141 355 112 403 c 0
 110 406 109 409 109 413 c 0
EndSplineSet
Validated: 513
PairPos2: "kernGPOS-1" ~ dx=0 dy=0 dh=0 dv=0 dx=0 dy=0 dh=0 dv=0
PairPos2: "kernGPOS-1" | dx=0 dy=0 dh=0 dv=0 dx=0 dy=0 dh=0 dv=0
PairPos2: "kernGPOS-1" { dx=0 dy=0 dh=0 dv=0 dx=0 dy=0 dh=0 dv=0
PairPos2: "kernGPOS-1" _ dx=0 dy=0 dh=0 dv=0 dx=0 dy=0 dh=0 dv=0
PairPos2: "kernGPOS-1" ^ dx=0 dy=0 dh=0 dv=0 dx=0 dy=0 dh=0 dv=0
PairPos2: "kernGPOS-1" @ dx=0 dy=0 dh=0 dv=0 dx=0 dy=0 dh=0 dv=0
PairPos2: "kernGPOS-1" ? dx=0 dy=0 dh=0 dv=0 dx=0 dy=0 dh=0 dv=0
PairPos2: "kernGPOS-1" > dx=0 dy=0 dh=0 dv=0 dx=0 dy=0 dh=0 dv=0
PairPos2: "kernGPOS-1" = dx=0 dy=0 dh=0 dv=0 dx=0 dy=0 dh=0 dv=0
PairPos2: "kernGPOS-1" < dx=0 dy=0 dh=0 dv=0 dx=0 dy=0 dh=0 dv=0
PairPos2: "kernGPOS-1" ; dx=0 dy=0 dh=0 dv=0 dx=0 dy=0 dh=0 dv=0
PairPos2: "kernGPOS-1" : dx=0 dy=0 dh=0 dv=0 dx=0 dy=0 dh=0 dv=0
PairPos2: "kernGPOS-1" 9 dx=0 dy=0 dh=0 dv=0 dx=0 dy=0 dh=0 dv=0
PairPos2: "kernGPOS-1" 8 dx=0 dy=0 dh=0 dv=0 dx=0 dy=0 dh=0 dv=0
PairPos2: "kernGPOS-1" 6 dx=0 dy=0 dh=0 dv=0 dx=0 dy=0 dh=0 dv=0
PairPos2: "kernGPOS-1" 5 dx=0 dy=0 dh=0 dv=0 dx=0 dy=0 dh=0 dv=0
PairPos2: "kernGPOS-1" 4 dx=0 dy=0 dh=0 dv=0 dx=0 dy=0 dh=0 dv=0
PairPos2: "kernGPOS-1" 3 dx=0 dy=0 dh=0 dv=0 dx=0 dy=0 dh=0 dv=0
PairPos2: "kernGPOS-1" 2 dx=0 dy=0 dh=0 dv=0 dx=0 dy=0 dh=0 dv=0
PairPos2: "kernGPOS-1" 1 dx=0 dy=0 dh=0 dv=0 dx=0 dy=0 dh=0 dv=0
PairPos2: "kernGPOS-1" 0 dx=0 dy=0 dh=0 dv=0 dx=0 dy=0 dh=0 dv=0
PairPos2: "kernGPOS-1" / dx=0 dy=0 dh=0 dv=0 dx=0 dy=0 dh=0 dv=0
PairPos2: "kernGPOS-1" . dx=0 dy=0 dh=0 dv=0 dx=0 dy=0 dh=0 dv=0
PairPos2: "kernGPOS-1" - dx=0 dy=0 dh=0 dv=0 dx=0 dy=0 dh=0 dv=0
PairPos2: "kernGPOS-1" , dx=0 dy=0 dh=0 dv=0 dx=0 dy=0 dh=0 dv=0
PairPos2: "kernGPOS-1" + dx=0 dy=0 dh=0 dv=0 dx=0 dy=0 dh=0 dv=0
PairPos2: "kernGPOS-1" * dx=0 dy=0 dh=0 dv=0 dx=0 dy=0 dh=0 dv=0
PairPos2: "kernGPOS-1" ( dx=0 dy=0 dh=0 dv=0 dx=0 dy=0 dh=0 dv=0
PairPos2: "kernGPOS-1" ' dx=0 dy=0 dh=0 dv=0 dx=0 dy=0 dh=0 dv=0
PairPos2: "kernGPOS-1" & dx=0 dy=0 dh=0 dv=0 dx=0 dy=0 dh=0 dv=0
PairPos2: "kernGPOS-1" % dx=0 dy=0 dh=0 dv=0 dx=0 dy=0 dh=0 dv=0
PairPos2: "kernGPOS-1" $ dx=0 dy=0 dh=0 dv=0 dx=0 dy=0 dh=0 dv=0
PairPos2: "kernGPOS-1" # dx=0 dy=0 dh=0 dv=0 dx=0 dy=0 dh=0 dv=0
PairPos2: "kernGPOS-1" " dx=0 dy=0 dh=0 dv=0 dx=0 dy=0 dh=0 dv=0
PairPos2: "kernGPOS-1" ! dx=0 dy=0 dh=0 dv=0 dx=0 dy=0 dh=0 dv=0
EndChar

StartChar: Y
Encoding: 89 89 64
Width: 275
Flags: W
HStem: 361 40<25.0066 62.5957> 447 20G<226 235.5>
VStem: 25 62<362.546 400.368> 121 40<0.563049 230.297> 212 38<414.111 466.967>
LayerCount: 2
Fore
SplineSet
161 90 m 0
 161 52 165 21 165 20 c 0
 165 9 156 0 145 0 c 0
 135 0 126 8 125 18 c 0
 122 44 121 67 121 90 c 0
 121 123 124 154 126 187 c 0
 127 201 128 216 129 231 c 1
 128 231 l 2
 98 231 87 266 73 309 c 0
 67 327 62 347 55 361 c 0
 54 361 52 361 50 361 c 0
 47 361 44 360 41 361 c 0
 32 363 25 371 25 381 c 0
 25 392 34 401 45 401 c 0
 48 401 49 401 50 401 c 0
 52 401 55 401 60 401 c 0
 66 401 80 400 87 387 c 0
 107 350 116 294 130 272 c 1
 158 289 176 385 212 456 c 0
 215 462 222 467 230 467 c 0
 241 467 250 458 250 447 c 0
 250 444 249 441 248 438 c 0
 216 375 201 294 170 255 c 1
 169 229 168 206 166 184 c 0
 164 151 161 121 161 90 c 0
EndSplineSet
Validated: 513
PairPos2: "kernGPOS-1" ~ dx=0 dy=0 dh=0 dv=0 dx=0 dy=0 dh=0 dv=0
PairPos2: "kernGPOS-1" | dx=0 dy=0 dh=0 dv=0 dx=0 dy=0 dh=0 dv=0
PairPos2: "kernGPOS-1" { dx=0 dy=0 dh=0 dv=0 dx=0 dy=0 dh=0 dv=0
PairPos2: "kernGPOS-1" _ dx=0 dy=0 dh=0 dv=0 dx=0 dy=0 dh=0 dv=0
PairPos2: "kernGPOS-1" ^ dx=0 dy=0 dh=0 dv=0 dx=0 dy=0 dh=0 dv=0
PairPos2: "kernGPOS-1" @ dx=0 dy=0 dh=0 dv=0 dx=0 dy=0 dh=0 dv=0
PairPos2: "kernGPOS-1" ? dx=0 dy=0 dh=0 dv=0 dx=0 dy=0 dh=0 dv=0
PairPos2: "kernGPOS-1" > dx=0 dy=0 dh=0 dv=0 dx=0 dy=0 dh=0 dv=0
PairPos2: "kernGPOS-1" = dx=0 dy=0 dh=0 dv=0 dx=0 dy=0 dh=0 dv=0
PairPos2: "kernGPOS-1" < dx=0 dy=0 dh=0 dv=0 dx=0 dy=0 dh=0 dv=0
PairPos2: "kernGPOS-1" ; dx=0 dy=0 dh=0 dv=0 dx=0 dy=0 dh=0 dv=0
PairPos2: "kernGPOS-1" : dx=0 dy=0 dh=0 dv=0 dx=0 dy=0 dh=0 dv=0
PairPos2: "kernGPOS-1" 9 dx=0 dy=0 dh=0 dv=0 dx=0 dy=0 dh=0 dv=0
PairPos2: "kernGPOS-1" 8 dx=0 dy=0 dh=0 dv=0 dx=0 dy=0 dh=0 dv=0
PairPos2: "kernGPOS-1" 6 dx=0 dy=0 dh=0 dv=0 dx=0 dy=0 dh=0 dv=0
PairPos2: "kernGPOS-1" 5 dx=0 dy=0 dh=0 dv=0 dx=0 dy=0 dh=0 dv=0
PairPos2: "kernGPOS-1" 4 dx=0 dy=0 dh=0 dv=0 dx=0 dy=0 dh=0 dv=0
PairPos2: "kernGPOS-1" 3 dx=0 dy=0 dh=0 dv=0 dx=0 dy=0 dh=0 dv=0
PairPos2: "kernGPOS-1" 2 dx=0 dy=0 dh=0 dv=0 dx=0 dy=0 dh=0 dv=0
PairPos2: "kernGPOS-1" 1 dx=0 dy=0 dh=0 dv=0 dx=0 dy=0 dh=0 dv=0
PairPos2: "kernGPOS-1" 0 dx=0 dy=0 dh=0 dv=0 dx=0 dy=0 dh=0 dv=0
PairPos2: "kernGPOS-1" / dx=0 dy=0 dh=0 dv=0 dx=0 dy=0 dh=0 dv=0
PairPos2: "kernGPOS-1" . dx=0 dy=0 dh=0 dv=0 dx=0 dy=0 dh=0 dv=0
PairPos2: "kernGPOS-1" - dx=0 dy=0 dh=0 dv=0 dx=0 dy=0 dh=0 dv=0
PairPos2: "kernGPOS-1" , dx=0 dy=0 dh=0 dv=0 dx=0 dy=0 dh=0 dv=0
PairPos2: "kernGPOS-1" + dx=0 dy=0 dh=0 dv=0 dx=0 dy=0 dh=0 dv=0
PairPos2: "kernGPOS-1" * dx=0 dy=0 dh=0 dv=0 dx=0 dy=0 dh=0 dv=0
PairPos2: "kernGPOS-1" ( dx=0 dy=0 dh=0 dv=0 dx=0 dy=0 dh=0 dv=0
PairPos2: "kernGPOS-1" ' dx=0 dy=0 dh=0 dv=0 dx=0 dy=0 dh=0 dv=0
PairPos2: "kernGPOS-1" & dx=0 dy=0 dh=0 dv=0 dx=0 dy=0 dh=0 dv=0
PairPos2: "kernGPOS-1" % dx=0 dy=0 dh=0 dv=0 dx=0 dy=0 dh=0 dv=0
PairPos2: "kernGPOS-1" $ dx=0 dy=0 dh=0 dv=0 dx=0 dy=0 dh=0 dv=0
PairPos2: "kernGPOS-1" # dx=0 dy=0 dh=0 dv=0 dx=0 dy=0 dh=0 dv=0
PairPos2: "kernGPOS-1" " dx=0 dy=0 dh=0 dv=0 dx=0 dy=0 dh=0 dv=0
PairPos2: "kernGPOS-1" ! dx=0 dy=0 dh=0 dv=0 dx=0 dy=0 dh=0 dv=0
EndChar

StartChar: Z
Encoding: 90 90 65
Width: 459
Flags: W
HStem: 0 67<395.144 426.703> 15 40<65.4972 297.274> 37 40<185.534 393.419> 413 40<58.0066 244.505> 425 40<76.4945 294.395>
VStem: 25 40<63 84.071> 395 39<0.0174255 33.4909>
LayerCount: 2
Fore
SplineSet
344 37 m 0x26
 267 37 218 15 141 15 c 0
 117 15 89 17 59 23 c 0
 39 27 25 42 25 63 c 0
 25 77 31 89 42 99 c 0
 136 184 223 311 296 424 c 1
 282 424 266 425 247 425 c 0x4e
 195 425 130 422 82 413 c 0
 81 413 79 413 78 413 c 0
 67 413 58 422 58 433 c 0
 58 443 65 451 74 453 c 0x16
 127 463 194 465 247 465 c 0
 264 465 331 464 338 462 c 0
 346 459 352 451 352 443 c 0
 352 442 352 437 349 432 c 0
 272 311 176 168 69 70 c 0
 66 67 65 64 65 63 c 2
 65 63 66 62 67 62 c 0
 95 57 119 55 141 55 c 0x4e
 213 55 262 77 344 77 c 0x26
 357 77 372 76 387 75 c 0
 397 74 406 73 414 67 c 0
 426 59 427 47 428 42 c 0
 432 25 434 27 434 20 c 0
 434 9 425 0 414 0 c 0x86
 406 0 398 6 395 13 c 0
 392 21 392 23 389 34 c 1
 384 35 365 37 344 37 c 0x26
EndSplineSet
Validated: 513
PairPos2: "kernGPOS-1" ~ dx=0 dy=0 dh=0 dv=0 dx=0 dy=0 dh=0 dv=0
PairPos2: "kernGPOS-1" } dx=0 dy=0 dh=0 dv=0 dx=0 dy=0 dh=0 dv=0
PairPos2: "kernGPOS-1" ` dx=0 dy=0 dh=0 dv=0 dx=0 dy=0 dh=0 dv=0
PairPos2: "kernGPOS-1" ^ dx=0 dy=0 dh=0 dv=0 dx=0 dy=0 dh=0 dv=0
PairPos2: "kernGPOS-1" ] dx=0 dy=0 dh=0 dv=0 dx=0 dy=0 dh=0 dv=0
PairPos2: "kernGPOS-1" \ dx=0 dy=0 dh=0 dv=0 dx=0 dy=0 dh=0 dv=0
PairPos2: "kernGPOS-1" @ dx=0 dy=0 dh=0 dv=0 dx=0 dy=0 dh=0 dv=0
PairPos2: "kernGPOS-1" < dx=0 dy=0 dh=0 dv=0 dx=0 dy=0 dh=0 dv=0
PairPos2: "kernGPOS-1" 9 dx=0 dy=0 dh=0 dv=0 dx=0 dy=0 dh=0 dv=0
PairPos2: "kernGPOS-1" 7 dx=0 dy=0 dh=0 dv=0 dx=0 dy=0 dh=0 dv=0
PairPos2: "kernGPOS-1" 6 dx=0 dy=0 dh=0 dv=0 dx=0 dy=0 dh=0 dv=0
PairPos2: "kernGPOS-1" 4 dx=0 dy=0 dh=0 dv=0 dx=0 dy=0 dh=0 dv=0
PairPos2: "kernGPOS-1" 0 dx=0 dy=0 dh=0 dv=0 dx=0 dy=0 dh=0 dv=0
PairPos2: "kernGPOS-1" - dx=0 dy=0 dh=0 dv=0 dx=0 dy=0 dh=0 dv=0
PairPos2: "kernGPOS-1" + dx=0 dy=0 dh=0 dv=0 dx=0 dy=0 dh=0 dv=0
PairPos2: "kernGPOS-1" * dx=0 dy=0 dh=0 dv=0 dx=0 dy=0 dh=0 dv=0
PairPos2: "kernGPOS-1" ) dx=0 dy=0 dh=0 dv=0 dx=0 dy=0 dh=0 dv=0
PairPos2: "kernGPOS-1" ( dx=0 dy=0 dh=0 dv=0 dx=0 dy=0 dh=0 dv=0
PairPos2: "kernGPOS-1" ' dx=0 dy=0 dh=0 dv=0 dx=0 dy=0 dh=0 dv=0
PairPos2: "kernGPOS-1" % dx=0 dy=0 dh=0 dv=0 dx=0 dy=0 dh=0 dv=0
PairPos2: "kernGPOS-1" # dx=0 dy=0 dh=0 dv=0 dx=0 dy=0 dh=0 dv=0
PairPos2: "kernGPOS-1" " dx=0 dy=0 dh=0 dv=0 dx=0 dy=0 dh=0 dv=0
EndChar

StartChar: b
Encoding: 98 98 66
Width: 271
Flags: W
HStem: 5 38<25.0263 62.4455> 213 40<151.034 202.446> 447 20G<92.5 103.5>
VStem: 25 79<12.2971 44.9973> 81 40<219.753 466.686> 206 40<138.443 211.298>
LayerCount: 2
Fore
SplineSet
81 335 m 0xec
 81 394 78 446 78 447 c 0
 78 458 87 467 98 467 c 0
 109 467 117 459 118 448 c 0
 120 407 121 370 121 335 c 0xec
 121 294 119 255 117 217 c 1
 134 234 154 253 181 253 c 0
 218 253 246 213 246 178 c 0
 246 167 243 132 202 99 c 0
 172 75 138 53 104 34 c 1
 101 12 101 8 94 3 c 0
 82 -6 66 2 63 12 c 1
 51 6 50 5 45 5 c 0
 34 5 25 14 25 25 c 0xf4
 25 33 29 40 36 43 c 0
 46 48 55 53 65 58 c 1
 75 178 81 245 81 335 c 0xec
206 178 m 0
 206 194 193 213 181 213 c 0
 170 213 160 202 148 191 c 0
 129 173 118 163 109 83 c 1
 133 98 156 113 177 130 c 0
 180 132 206 154 206 178 c 0
EndSplineSet
Validated: 545
PairPos2: "kernGPOS-1" } dx=0 dy=0 dh=0 dv=0 dx=0 dy=0 dh=0 dv=0
PairPos2: "kernGPOS-1" ` dx=0 dy=0 dh=0 dv=0 dx=0 dy=0 dh=0 dv=0
PairPos2: "kernGPOS-1" _ dx=0 dy=0 dh=0 dv=0 dx=0 dy=0 dh=0 dv=0
PairPos2: "kernGPOS-1" ] dx=0 dy=0 dh=0 dv=0 dx=0 dy=0 dh=0 dv=0
PairPos2: "kernGPOS-1" \ dx=0 dy=0 dh=0 dv=0 dx=0 dy=0 dh=0 dv=0
PairPos2: "kernGPOS-1" ? dx=0 dy=0 dh=0 dv=0 dx=0 dy=0 dh=0 dv=0
PairPos2: "kernGPOS-1" > dx=0 dy=0 dh=0 dv=0 dx=0 dy=0 dh=0 dv=0
PairPos2: "kernGPOS-1" ; dx=0 dy=0 dh=0 dv=0 dx=0 dy=0 dh=0 dv=0
PairPos2: "kernGPOS-1" 8 dx=0 dy=0 dh=0 dv=0 dx=0 dy=0 dh=0 dv=0
PairPos2: "kernGPOS-1" 7 dx=0 dy=0 dh=0 dv=0 dx=0 dy=0 dh=0 dv=0
PairPos2: "kernGPOS-1" 5 dx=0 dy=0 dh=0 dv=0 dx=0 dy=0 dh=0 dv=0
PairPos2: "kernGPOS-1" 3 dx=0 dy=0 dh=0 dv=0 dx=0 dy=0 dh=0 dv=0
PairPos2: "kernGPOS-1" 2 dx=0 dy=0 dh=0 dv=0 dx=0 dy=0 dh=0 dv=0
PairPos2: "kernGPOS-1" / dx=0 dy=0 dh=0 dv=0 dx=0 dy=0 dh=0 dv=0
PairPos2: "kernGPOS-1" . dx=0 dy=0 dh=0 dv=0 dx=0 dy=0 dh=0 dv=0
PairPos2: "kernGPOS-1" , dx=0 dy=0 dh=0 dv=0 dx=0 dy=0 dh=0 dv=0
PairPos2: "kernGPOS-1" * dx=0 dy=0 dh=0 dv=0 dx=0 dy=0 dh=0 dv=0
PairPos2: "kernGPOS-1" ) dx=0 dy=0 dh=0 dv=0 dx=0 dy=0 dh=0 dv=0
PairPos2: "kernGPOS-1" ' dx=0 dy=0 dh=0 dv=0 dx=0 dy=0 dh=0 dv=0
PairPos2: "kernGPOS-1" & dx=0 dy=0 dh=0 dv=0 dx=0 dy=0 dh=0 dv=0
PairPos2: "kernGPOS-1" " dx=0 dy=0 dh=0 dv=0 dx=0 dy=0 dh=0 dv=0
PairPos2: "kernGPOS-1" ! dx=0 dy=0 dh=0 dv=0 dx=0 dy=0 dh=0 dv=0
EndChar

StartChar: d
Encoding: 100 100 67
Width: 267
Flags: W
HStem: 13 40<68.293 107.119> 213 40<125.719 182> 446 20G<216.5 223>
VStem: 25 40<57.7542 148.721> 171 40<37.6332 88> 173 50<0.470665 36.8565> 202 40<254.255 465.995>
LayerCount: 2
Fore
SplineSet
223 20 m 0xf4
 223 7 212 -1 201 -1 c 0
 192 -1 176 4 173 36 c 0xf4
 172 48 171 68 171 88 c 1xf8
 144 60 140 45 120 28 c 0
 111 20 99 13 84 13 c 0
 69 13 55 20 42 32 c 0
 28 45 25 64 25 81 c 0
 25 126 53 201 107 231 c 0
 139 249 181 253 182 253 c 0
 185 253 188 253 190 252 c 1
 193 273 202 329 202 425 c 0
 202 430 202 435 202 438 c 0
 202 440 202 441 202 442 c 0
 202 450 202 453 205 457 c 0
 206 459 211 466 222 466 c 0
 224 466 242 466 242 444 c 0
 242 443 242 442 242 440 c 0
 242 436 242 431 242 425 c 0
 242 382 242 381 242 370 c 0xf2
 242 285 238 264 214 154 c 1
 213 146 l 2
 212 143 211 120 211 97 c 0xf8
 211 96 211 50 213 37 c 1
 219 34 223 27 223 20 c 0xf4
65 81 m 0
 65 69 68 64 70 62 c 0
 78 54 82 53 84 53 c 0
 98 53 119 92 140 113 c 0
 156 129 162 146 171 171 c 0xf8
 181 199 180 204 182 213 c 1
 138 206 114 192 92 161 c 0
 75 137 65 103 65 81 c 0
EndSplineSet
Validated: 513
PairPos2: "kernGPOS-1" ~ dx=0 dy=0 dh=0 dv=0 dx=0 dy=0 dh=0 dv=0
PairPos2: "kernGPOS-1" | dx=0 dy=0 dh=0 dv=0 dx=0 dy=0 dh=0 dv=0
PairPos2: "kernGPOS-1" { dx=0 dy=0 dh=0 dv=0 dx=0 dy=0 dh=0 dv=0
PairPos2: "kernGPOS-1" _ dx=0 dy=0 dh=0 dv=0 dx=0 dy=0 dh=0 dv=0
PairPos2: "kernGPOS-1" ? dx=0 dy=0 dh=0 dv=0 dx=0 dy=0 dh=0 dv=0
PairPos2: "kernGPOS-1" > dx=0 dy=0 dh=0 dv=0 dx=0 dy=0 dh=0 dv=0
PairPos2: "kernGPOS-1" = dx=0 dy=0 dh=0 dv=0 dx=0 dy=0 dh=0 dv=0
PairPos2: "kernGPOS-1" < dx=0 dy=0 dh=0 dv=0 dx=0 dy=0 dh=0 dv=0
PairPos2: "kernGPOS-1" ; dx=0 dy=0 dh=0 dv=0 dx=0 dy=0 dh=0 dv=0
PairPos2: "kernGPOS-1" 8 dx=0 dy=0 dh=0 dv=0 dx=0 dy=0 dh=0 dv=0
PairPos2: "kernGPOS-1" 6 dx=0 dy=0 dh=0 dv=0 dx=0 dy=0 dh=0 dv=0
PairPos2: "kernGPOS-1" 5 dx=0 dy=0 dh=0 dv=0 dx=0 dy=0 dh=0 dv=0
PairPos2: "kernGPOS-1" 3 dx=0 dy=0 dh=0 dv=0 dx=0 dy=0 dh=0 dv=0
PairPos2: "kernGPOS-1" 1 dx=0 dy=0 dh=0 dv=0 dx=0 dy=0 dh=0 dv=0
PairPos2: "kernGPOS-1" / dx=0 dy=0 dh=0 dv=0 dx=0 dy=0 dh=0 dv=0
PairPos2: "kernGPOS-1" . dx=0 dy=0 dh=0 dv=0 dx=0 dy=0 dh=0 dv=0
PairPos2: "kernGPOS-1" - dx=0 dy=0 dh=0 dv=0 dx=0 dy=0 dh=0 dv=0
PairPos2: "kernGPOS-1" , dx=0 dy=0 dh=0 dv=0 dx=0 dy=0 dh=0 dv=0
PairPos2: "kernGPOS-1" + dx=0 dy=0 dh=0 dv=0 dx=0 dy=0 dh=0 dv=0
PairPos2: "kernGPOS-1" & dx=0 dy=0 dh=0 dv=0 dx=0 dy=0 dh=0 dv=0
PairPos2: "kernGPOS-1" $ dx=0 dy=0 dh=0 dv=0 dx=0 dy=0 dh=0 dv=0
PairPos2: "kernGPOS-1" ! dx=0 dy=0 dh=0 dv=0 dx=0 dy=0 dh=0 dv=0
EndChar

StartChar: f
Encoding: 102 102 68
Width: 295
Flags: W
HStem: 196 39<25.0175 40> 223 40<127.077 269.486> 389 79<173.574 205.931>
VStem: 173 41<389.059 411.97>
LayerCount: 2
Fore
SplineSet
75 203 m 1x70
 47 196 47 196 45 196 c 0
 34 196 25 205 25 216 c 0
 25 225 31 233 40 235 c 2xb0
 40 235 76 244 83 246 c 1
 93 297 108 349 128 408 c 0
 141 445 156 468 178 468 c 0
 182 468 185 467 189 465 c 0
 209 456 210 436 211 428 c 0
 213 411 214 415 214 409 c 0
 214 398 205 389 194 389 c 0
 177 389 174 405 173 412 c 1
 166 397 142 329 126 256 c 1
 149 261 171 263 195 263 c 0
 213 263 232 262 253 259 c 0
 263 258 270 249 270 239 c 0
 270 228 261 219 250 219 c 0
 246 219 223 223 195 223 c 0
 169 223 146 219 118 213 c 1
 107 153 101 92 95 18 c 0
 94 8 85 0 75 0 c 0
 64 0 55 9 55 20 c 0
 55 22 62 124 75 203 c 1x70
EndSplineSet
Validated: 513
PairPos2: "kernGPOS-1" ~ dx=0 dy=0 dh=0 dv=0 dx=0 dy=0 dh=0 dv=0
PairPos2: "kernGPOS-1" } dx=0 dy=0 dh=0 dv=0 dx=0 dy=0 dh=0 dv=0
PairPos2: "kernGPOS-1" | dx=0 dy=0 dh=0 dv=0 dx=0 dy=0 dh=0 dv=0
PairPos2: "kernGPOS-1" { dx=0 dy=0 dh=0 dv=0 dx=0 dy=0 dh=0 dv=0
PairPos2: "kernGPOS-1" ` dx=0 dy=0 dh=0 dv=0 dx=0 dy=0 dh=0 dv=0
PairPos2: "kernGPOS-1" _ dx=0 dy=0 dh=0 dv=0 dx=0 dy=0 dh=0 dv=0
PairPos2: "kernGPOS-1" ] dx=0 dy=0 dh=0 dv=0 dx=0 dy=0 dh=0 dv=0
PairPos2: "kernGPOS-1" \ dx=0 dy=0 dh=0 dv=0 dx=0 dy=0 dh=0 dv=0
PairPos2: "kernGPOS-1" ? dx=0 dy=0 dh=0 dv=0 dx=0 dy=0 dh=0 dv=0
PairPos2: "kernGPOS-1" > dx=0 dy=0 dh=0 dv=0 dx=0 dy=0 dh=0 dv=0
PairPos2: "kernGPOS-1" = dx=0 dy=0 dh=0 dv=0 dx=0 dy=0 dh=0 dv=0
PairPos2: "kernGPOS-1" < dx=0 dy=0 dh=0 dv=0 dx=0 dy=0 dh=0 dv=0
PairPos2: "kernGPOS-1" ; dx=0 dy=0 dh=0 dv=0 dx=0 dy=0 dh=0 dv=0
PairPos2: "kernGPOS-1" 8 dx=0 dy=0 dh=0 dv=0 dx=0 dy=0 dh=0 dv=0
PairPos2: "kernGPOS-1" 7 dx=0 dy=0 dh=0 dv=0 dx=0 dy=0 dh=0 dv=0
PairPos2: "kernGPOS-1" 6 dx=0 dy=0 dh=0 dv=0 dx=0 dy=0 dh=0 dv=0
PairPos2: "kernGPOS-1" 5 dx=0 dy=0 dh=0 dv=0 dx=0 dy=0 dh=0 dv=0
PairPos2: "kernGPOS-1" 3 dx=0 dy=0 dh=0 dv=0 dx=0 dy=0 dh=0 dv=0
PairPos2: "kernGPOS-1" 2 dx=0 dy=0 dh=0 dv=0 dx=0 dy=0 dh=0 dv=0
PairPos2: "kernGPOS-1" 1 dx=0 dy=0 dh=0 dv=0 dx=0 dy=0 dh=0 dv=0
PairPos2: "kernGPOS-1" / dx=0 dy=0 dh=0 dv=0 dx=0 dy=0 dh=0 dv=0
PairPos2: "kernGPOS-1" . dx=0 dy=0 dh=0 dv=0 dx=0 dy=0 dh=0 dv=0
PairPos2: "kernGPOS-1" - dx=0 dy=0 dh=0 dv=0 dx=0 dy=0 dh=0 dv=0
PairPos2: "kernGPOS-1" , dx=0 dy=0 dh=0 dv=0 dx=0 dy=0 dh=0 dv=0
PairPos2: "kernGPOS-1" + dx=0 dy=0 dh=0 dv=0 dx=0 dy=0 dh=0 dv=0
PairPos2: "kernGPOS-1" ) dx=0 dy=0 dh=0 dv=0 dx=0 dy=0 dh=0 dv=0
PairPos2: "kernGPOS-1" & dx=0 dy=0 dh=0 dv=0 dx=0 dy=0 dh=0 dv=0
PairPos2: "kernGPOS-1" $ dx=0 dy=0 dh=0 dv=0 dx=0 dy=0 dh=0 dv=0
PairPos2: "kernGPOS-1" ! dx=0 dy=0 dh=0 dv=0 dx=0 dy=0 dh=0 dv=0
EndChar

StartChar: g
Encoding: 103 103 69
Width: 339
Flags: W
HStem: -230 40<119.885 207.753> 207 40<213.824 269.751>
VStem: 25 38<-129.368 -84.0326> 130 40<49.0601 159.808>
LayerCount: 2
Fore
SplineSet
275 244 m 1
 277 250 284 257 294 257 c 0
 301 257 314 253 314 236 c 0
 314 233 312 183 305 151 c 0
 304 141 304 132 303 122 c 0
 300 75 297 31 284 -32 c 0
 264 -130 254 -175 236 -202 c 0
 219 -228 196 -230 182 -230 c 0
 155 -230 73 -221 27 -112 c 0
 26 -110 25 -107 25 -104 c 0
 25 -93 34 -84 45 -84 c 0
 53 -84 60 -89 63 -96 c 0
 89 -157 129 -187 177 -190 c 0
 179 -190 181 -190 182 -190 c 0
 195 -190 205 -190 220 -134 c 0
 225 -116 247 -21 255 36 c 1
 241 16 223 0 205 0 c 0
 156 0 130 64 130 104 c 0
 130 175 194 247 258 247 c 0
 261 247 270 247 275 244 c 1
258 207 m 0
 218 207 170 153 170 104 c 0
 170 81 186 41 204 40 c 1
 211 44 229 63 245 98 c 0
 257 123 259 132 265 157 c 0
 266 172 268 188 270 206 c 1
 269 206 267 206 266 206 c 0
 263 206 262 207 258 207 c 0
EndSplineSet
Validated: 513
PairPos2: "kernGPOS-1" } dx=0 dy=0 dh=0 dv=0 dx=0 dy=0 dh=0 dv=0
PairPos2: "kernGPOS-1" | dx=0 dy=0 dh=0 dv=0 dx=0 dy=0 dh=0 dv=0
PairPos2: "kernGPOS-1" ` dx=0 dy=0 dh=0 dv=0 dx=0 dy=0 dh=0 dv=0
PairPos2: "kernGPOS-1" _ dx=0 dy=0 dh=0 dv=0 dx=0 dy=0 dh=0 dv=0
PairPos2: "kernGPOS-1" ] dx=0 dy=0 dh=0 dv=0 dx=0 dy=0 dh=0 dv=0
PairPos2: "kernGPOS-1" \ dx=0 dy=0 dh=0 dv=0 dx=0 dy=0 dh=0 dv=0
PairPos2: "kernGPOS-1" ? dx=0 dy=0 dh=0 dv=0 dx=0 dy=0 dh=0 dv=0
PairPos2: "kernGPOS-1" > dx=0 dy=0 dh=0 dv=0 dx=0 dy=0 dh=0 dv=0
PairPos2: "kernGPOS-1" = dx=0 dy=0 dh=0 dv=0 dx=0 dy=0 dh=0 dv=0
PairPos2: "kernGPOS-1" ; dx=0 dy=0 dh=0 dv=0 dx=0 dy=0 dh=0 dv=0
PairPos2: "kernGPOS-1" 8 dx=0 dy=0 dh=0 dv=0 dx=0 dy=0 dh=0 dv=0
PairPos2: "kernGPOS-1" 7 dx=0 dy=0 dh=0 dv=0 dx=0 dy=0 dh=0 dv=0
PairPos2: "kernGPOS-1" 5 dx=0 dy=0 dh=0 dv=0 dx=0 dy=0 dh=0 dv=0
PairPos2: "kernGPOS-1" 3 dx=0 dy=0 dh=0 dv=0 dx=0 dy=0 dh=0 dv=0
PairPos2: "kernGPOS-1" 2 dx=0 dy=0 dh=0 dv=0 dx=0 dy=0 dh=0 dv=0
PairPos2: "kernGPOS-1" 1 dx=0 dy=0 dh=0 dv=0 dx=0 dy=0 dh=0 dv=0
PairPos2: "kernGPOS-1" / dx=0 dy=0 dh=0 dv=0 dx=0 dy=0 dh=0 dv=0
PairPos2: "kernGPOS-1" . dx=0 dy=0 dh=0 dv=0 dx=0 dy=0 dh=0 dv=0
PairPos2: "kernGPOS-1" , dx=0 dy=0 dh=0 dv=0 dx=0 dy=0 dh=0 dv=0
PairPos2: "kernGPOS-1" ) dx=0 dy=0 dh=0 dv=0 dx=0 dy=0 dh=0 dv=0
PairPos2: "kernGPOS-1" & dx=0 dy=0 dh=0 dv=0 dx=0 dy=0 dh=0 dv=0
PairPos2: "kernGPOS-1" ! dx=0 dy=0 dh=0 dv=0 dx=0 dy=0 dh=0 dv=0
EndChar

StartChar: h
Encoding: 104 104 70
Width: 270
Flags: W
HStem: 214 40<136.273 187.756> 447 20G<65.5 76>
VStem: 25 45<14.2799 143.953> 53 40<216.234 466.839> 191 40<1.00657 149.075> 205 40<7.31975 207.78>
LayerCount: 2
Fore
SplineSet
53 400 m 0xd0
 53 433 51 444 51 447 c 0
 51 458 60 467 71 467 c 0
 81 467 90 459 91 449 c 0
 92 435 93 419 93 400 c 0
 93 347 89 274 82 195 c 1
 97 203 137 254 179 254 c 0
 187 254 196 252 205 245 c 0
 232 223 245 182 245 151 c 0xd4
 245 110 234 65 231 20 c 0
 230 10 222 1 211 1 c 0
 200 1 191 10 191 21 c 2
 191 22 l 2xc8
 194 68 205 115 205 151 c 0
 205 176 194 201 181 213 c 1
 181 213 180 214 179 214 c 0
 178 214 152 219 98 158 c 0
 84 143 74 95 70 65 c 0
 65 24 64 20 57 14 c 0
 55 12 51 10 45 10 c 0
 34 10 25 18 25 30 c 0xe4
 25 34 53 263 53 400 c 0xd0
EndSplineSet
Validated: 545
PairPos2: "kernGPOS-1" } dx=0 dy=0 dh=0 dv=0 dx=0 dy=0 dh=0 dv=0
PairPos2: "kernGPOS-1" ` dx=0 dy=0 dh=0 dv=0 dx=0 dy=0 dh=0 dv=0
PairPos2: "kernGPOS-1" _ dx=0 dy=0 dh=0 dv=0 dx=0 dy=0 dh=0 dv=0
PairPos2: "kernGPOS-1" ^ dx=0 dy=0 dh=0 dv=0 dx=0 dy=0 dh=0 dv=0
PairPos2: "kernGPOS-1" ] dx=0 dy=0 dh=0 dv=0 dx=0 dy=0 dh=0 dv=0
PairPos2: "kernGPOS-1" \ dx=0 dy=0 dh=0 dv=0 dx=0 dy=0 dh=0 dv=0
PairPos2: "kernGPOS-1" ? dx=0 dy=0 dh=0 dv=0 dx=0 dy=0 dh=0 dv=0
PairPos2: "kernGPOS-1" > dx=0 dy=0 dh=0 dv=0 dx=0 dy=0 dh=0 dv=0
PairPos2: "kernGPOS-1" ; dx=0 dy=0 dh=0 dv=0 dx=0 dy=0 dh=0 dv=0
PairPos2: "kernGPOS-1" 9 dx=0 dy=0 dh=0 dv=0 dx=0 dy=0 dh=0 dv=0
PairPos2: "kernGPOS-1" 7 dx=0 dy=0 dh=0 dv=0 dx=0 dy=0 dh=0 dv=0
PairPos2: "kernGPOS-1" 4 dx=0 dy=0 dh=0 dv=0 dx=0 dy=0 dh=0 dv=0
PairPos2: "kernGPOS-1" 3 dx=0 dy=0 dh=0 dv=0 dx=0 dy=0 dh=0 dv=0
PairPos2: "kernGPOS-1" 2 dx=0 dy=0 dh=0 dv=0 dx=0 dy=0 dh=0 dv=0
PairPos2: "kernGPOS-1" / dx=0 dy=0 dh=0 dv=0 dx=0 dy=0 dh=0 dv=0
PairPos2: "kernGPOS-1" . dx=0 dy=0 dh=0 dv=0 dx=0 dy=0 dh=0 dv=0
PairPos2: "kernGPOS-1" , dx=0 dy=0 dh=0 dv=0 dx=0 dy=0 dh=0 dv=0
PairPos2: "kernGPOS-1" * dx=0 dy=0 dh=0 dv=0 dx=0 dy=0 dh=0 dv=0
PairPos2: "kernGPOS-1" ) dx=0 dy=0 dh=0 dv=0 dx=0 dy=0 dh=0 dv=0
PairPos2: "kernGPOS-1" ' dx=0 dy=0 dh=0 dv=0 dx=0 dy=0 dh=0 dv=0
PairPos2: "kernGPOS-1" % dx=0 dy=0 dh=0 dv=0 dx=0 dy=0 dh=0 dv=0
PairPos2: "kernGPOS-1" # dx=0 dy=0 dh=0 dv=0 dx=0 dy=0 dh=0 dv=0
PairPos2: "kernGPOS-1" " dx=0 dy=0 dh=0 dv=0 dx=0 dy=0 dh=0 dv=0
PairPos2: "kernGPOS-1" ! dx=0 dy=0 dh=0 dv=0 dx=0 dy=0 dh=0 dv=0
EndChar

StartChar: l
Encoding: 108 108 71
Width: 108
Flags: W
HStem: 447 20G<57.5 68.5>
VStem: 25 40<13.5503 307.808> 42 38<0.0262642 117.301 262.435 466.896>
LayerCount: 2
Fore
SplineSet
65 121 m 0xc0
 65 41 80 31 80 20 c 0
 80 9 71 0 60 0 c 0
 52 0 45 4 42 11 c 0xa0
 28 39 25 77 25 121 c 0
 25 211 41 327 43 447 c 0
 43 458 52 467 63 467 c 0
 74 467 83 458 83 447 c 0
 83 364 65 202 65 121 c 0xc0
EndSplineSet
Validated: 513
PairPos2: "kernGPOS-1" ~ dx=0 dy=0 dh=0 dv=0 dx=0 dy=0 dh=0 dv=0
PairPos2: "kernGPOS-1" { dx=0 dy=0 dh=0 dv=0 dx=0 dy=0 dh=0 dv=0
PairPos2: "kernGPOS-1" ^ dx=0 dy=0 dh=0 dv=0 dx=0 dy=0 dh=0 dv=0
PairPos2: "kernGPOS-1" @ dx=0 dy=0 dh=0 dv=0 dx=0 dy=0 dh=0 dv=0
PairPos2: "kernGPOS-1" < dx=0 dy=0 dh=0 dv=0 dx=0 dy=0 dh=0 dv=0
PairPos2: "kernGPOS-1" 6 dx=0 dy=0 dh=0 dv=0 dx=0 dy=0 dh=0 dv=0
PairPos2: "kernGPOS-1" 4 dx=0 dy=0 dh=0 dv=0 dx=0 dy=0 dh=0 dv=0
PairPos2: "kernGPOS-1" 0 dx=0 dy=0 dh=0 dv=0 dx=0 dy=0 dh=0 dv=0
PairPos2: "kernGPOS-1" - dx=0 dy=0 dh=0 dv=0 dx=0 dy=0 dh=0 dv=0
PairPos2: "kernGPOS-1" + dx=0 dy=0 dh=0 dv=0 dx=0 dy=0 dh=0 dv=0
PairPos2: "kernGPOS-1" ( dx=0 dy=0 dh=0 dv=0 dx=0 dy=0 dh=0 dv=0
PairPos2: "kernGPOS-1" $ dx=0 dy=0 dh=0 dv=0 dx=0 dy=0 dh=0 dv=0
PairPos2: "kernGPOS-1" # dx=0 dy=0 dh=0 dv=0 dx=0 dy=0 dh=0 dv=0
EndChar

StartChar: plus
Encoding: 43 43 72
Width: 294
Flags: W
HStem: 100 40<25.0066 116> 142 38<217.197 268.967> 233 20G<137.5 148.5>
VStem: 115 40<0.299072 102> 118 45<148 252.238>
LayerCount: 2
Fore
SplineSet
45 140 m 2xf0
 45 140 51 140 58 140 c 0
 80 140 100 140 118 142 c 1
 119 162 119 166 123 234 c 0
 124 245 132 253 143 253 c 0
 154 253 163 244 163 233 c 0xe8
 163 232 160 179 158 148 c 1
 186 154 213 164 240 178 c 0
 243 179 246 180 249 180 c 0
 260 180 269 171 269 160 c 0
 269 152 264 145 258 142 c 0
 224 124 192 113 156 107 c 1
 155 87 155 69 155 55 c 0
 155 40 156 30 156 28 c 0
 157 25 158 23 158 20 c 0
 158 9 149 0 138 0 c 0
 116 0 115 26 115 55 c 0
 115 68 115 84 116 102 c 1
 98 100 79 100 58 100 c 0
 54 100 50 100 45 100 c 0
 34 100 25 109 25 120 c 0
 25 131 34 140 45 140 c 2xf0
EndSplineSet
Validated: 1
EndChar

StartChar: less
Encoding: 60 60 73
Width: 257
Flags: W
HStem: 0 253<207 212>
VStem: 25 207
LayerCount: 2
Fore
SplineSet
201 253 m 0
 212 253 221 244 221 233 c 0
 221 228 218 223 215 219 c 0
 163 165 109 147 79 137 c 0
 77 136 75 136 73 135 c 1
 104 108 185 69 225 35 c 0
 229 31 232 26 232 20 c 0
 232 9 223 0 212 0 c 0
 207 0 203 2 199 5 c 0
 159 39 61 84 34 117 c 0
 31 121 25 129 25 140 c 0
 25 184 104 161 187 247 c 0
 191 251 195 253 201 253 c 0
EndSplineSet
Validated: 1
EndChar

StartChar: greater
Encoding: 62 62 74
Width: 257
Flags: W
HStem: 0 253<45 50>
VStem: 25 207
LayerCount: 2
Fore
SplineSet
56 253 m 0
 62 253 66 251 70 247 c 0
 153 161 232 184 232 140 c 0
 232 129 226 121 223 117 c 0
 196 84 98 39 58 5 c 0
 54 2 50 0 45 0 c 0
 34 0 25 9 25 20 c 0
 25 26 28 31 32 35 c 0
 72 69 153 108 184 135 c 1
 182 136 180 136 178 137 c 0
 148 147 94 165 42 219 c 0
 39 223 36 228 36 233 c 0
 36 244 45 253 56 253 c 0
EndSplineSet
Validated: 1
EndChar

StartChar: j
Encoding: 106 106 75
Width: 313
Flags: W
HStem: -125 40<56.1445 163.522> 233 20G<230.5 241> 311 65<225.584 284.824>
VStem: 220 40<35.8118 252.486> 221 67<314.94 371.039>
LayerCount: 2
Fore
SplineSet
220 178 m 0xf0
 220 211 216 228 216 233 c 0
 216 244 225 253 236 253 c 0
 246 253 255 246 256 236 c 0
 259 213 260 198 260 178 c 0
 260 161 259 143 257 123 c 0
 251 51 236 28 225 -31 c 0
 220 -54 216 -81 192 -104 c 0
 170 -125 136 -125 107 -125 c 0
 104 -125 100 -125 97 -125 c 0
 67 -125 52 -114 32 -97 c 0
 28 -93 25 -88 25 -82 c 0
 25 -71 34 -62 45 -62 c 0
 50 -62 54 -64 58 -67 c 0
 77 -83 83 -85 97 -85 c 0
 100 -85 104 -85 107 -85 c 0
 132 -85 154 -84 164 -74 c 0
 178 -61 181 -47 186 -23 c 0
 197 33 212 61 217 127 c 0
 219 147 220 163 220 178 c 0xf0
259 376 m 0
 275 376 288 363 288 345 c 0
 288 322 268 311 252 311 c 0
 239 311 221 320 221 340 c 0xe8
 221 359 238 376 259 376 c 0
EndSplineSet
Validated: 513
PairPos2: "kernGPOS-1" ~ dx=0 dy=0 dh=0 dv=0 dx=0 dy=0 dh=0 dv=0
PairPos2: "kernGPOS-1" | dx=0 dy=0 dh=0 dv=0 dx=0 dy=0 dh=0 dv=0
PairPos2: "kernGPOS-1" { dx=0 dy=0 dh=0 dv=0 dx=0 dy=0 dh=0 dv=0
PairPos2: "kernGPOS-1" _ dx=0 dy=0 dh=0 dv=0 dx=0 dy=0 dh=0 dv=0
PairPos2: "kernGPOS-1" \ dx=0 dy=0 dh=0 dv=0 dx=0 dy=0 dh=0 dv=0
PairPos2: "kernGPOS-1" [ dx=0 dy=0 dh=0 dv=0 dx=0 dy=0 dh=0 dv=0
PairPos2: "kernGPOS-1" @ dx=0 dy=0 dh=0 dv=0 dx=0 dy=0 dh=0 dv=0
PairPos2: "kernGPOS-1" ? dx=0 dy=0 dh=0 dv=0 dx=0 dy=0 dh=0 dv=0
PairPos2: "kernGPOS-1" > dx=0 dy=0 dh=0 dv=0 dx=0 dy=0 dh=0 dv=0
PairPos2: "kernGPOS-1" = dx=0 dy=0 dh=0 dv=0 dx=0 dy=0 dh=0 dv=0
PairPos2: "kernGPOS-1" < dx=0 dy=0 dh=0 dv=0 dx=0 dy=0 dh=0 dv=0
PairPos2: "kernGPOS-1" ; dx=0 dy=0 dh=0 dv=0 dx=0 dy=0 dh=0 dv=0
PairPos2: "kernGPOS-1" : dx=0 dy=0 dh=0 dv=0 dx=0 dy=0 dh=0 dv=0
PairPos2: "kernGPOS-1" 8 dx=0 dy=0 dh=0 dv=0 dx=0 dy=0 dh=0 dv=0
PairPos2: "kernGPOS-1" 6 dx=0 dy=0 dh=0 dv=0 dx=0 dy=0 dh=0 dv=0
PairPos2: "kernGPOS-1" 5 dx=0 dy=0 dh=0 dv=0 dx=0 dy=0 dh=0 dv=0
PairPos2: "kernGPOS-1" 3 dx=0 dy=0 dh=0 dv=0 dx=0 dy=0 dh=0 dv=0
PairPos2: "kernGPOS-1" 1 dx=0 dy=0 dh=0 dv=0 dx=0 dy=0 dh=0 dv=0
PairPos2: "kernGPOS-1" 0 dx=0 dy=0 dh=0 dv=0 dx=0 dy=0 dh=0 dv=0
PairPos2: "kernGPOS-1" / dx=0 dy=0 dh=0 dv=0 dx=0 dy=0 dh=0 dv=0
PairPos2: "kernGPOS-1" . dx=0 dy=0 dh=0 dv=0 dx=0 dy=0 dh=0 dv=0
PairPos2: "kernGPOS-1" - dx=0 dy=0 dh=0 dv=0 dx=0 dy=0 dh=0 dv=0
PairPos2: "kernGPOS-1" , dx=0 dy=0 dh=0 dv=0 dx=0 dy=0 dh=0 dv=0
PairPos2: "kernGPOS-1" + dx=0 dy=0 dh=0 dv=0 dx=0 dy=0 dh=0 dv=0
PairPos2: "kernGPOS-1" ( dx=0 dy=0 dh=0 dv=0 dx=0 dy=0 dh=0 dv=0
PairPos2: "kernGPOS-1" & dx=0 dy=0 dh=0 dv=0 dx=0 dy=0 dh=0 dv=0
PairPos2: "kernGPOS-1" $ dx=0 dy=0 dh=0 dv=0 dx=0 dy=0 dh=0 dv=0
PairPos2: "kernGPOS-1" ! dx=0 dy=0 dh=0 dv=0 dx=0 dy=0 dh=0 dv=0
EndChar

StartChar: c
Encoding: 99 99 76
Width: 231
Flags: W
HStem: 0 40<67.7044 152.878> 214 39<116.707 165.983>
VStem: 25 40<41.6227 151.701>
LayerCount: 2
Fore
SplineSet
65 77 m 0
 65 49 76 40 96 40 c 0
 125 40 160 61 170 74 c 0
 174 79 180 82 186 82 c 0
 197 82 206 73 206 62 c 0
 206 57 205 53 202 50 c 0
 184 27 138 0 96 0 c 0
 87 0 78 1 70 4 c 0
 35 15 25 49 25 77 c 0
 25 93 28 109 32 123 c 0
 49 185 80 232 140 252 c 0
 142 253 144 253 146 253 c 0
 157 253 166 244 166 233 c 0
 166 224 160 217 152 214 c 0
 108 200 86 169 70 113 c 0
 67 102 65 88 65 77 c 0
EndSplineSet
Validated: 513
PairPos2: "kernGPOS-1" } dx=0 dy=0 dh=0 dv=0 dx=0 dy=0 dh=0 dv=0
PairPos2: "kernGPOS-1" ` dx=0 dy=0 dh=0 dv=0 dx=0 dy=0 dh=0 dv=0
PairPos2: "kernGPOS-1" ^ dx=0 dy=0 dh=0 dv=0 dx=0 dy=0 dh=0 dv=0
PairPos2: "kernGPOS-1" ] dx=0 dy=0 dh=0 dv=0 dx=0 dy=0 dh=0 dv=0
PairPos2: "kernGPOS-1" \ dx=0 dy=0 dh=0 dv=0 dx=0 dy=0 dh=0 dv=0
PairPos2: "kernGPOS-1" @ dx=0 dy=0 dh=0 dv=0 dx=0 dy=0 dh=0 dv=0
PairPos2: "kernGPOS-1" ; dx=0 dy=0 dh=0 dv=0 dx=0 dy=0 dh=0 dv=0
PairPos2: "kernGPOS-1" 9 dx=0 dy=0 dh=0 dv=0 dx=0 dy=0 dh=0 dv=0
PairPos2: "kernGPOS-1" 7 dx=0 dy=0 dh=0 dv=0 dx=0 dy=0 dh=0 dv=0
PairPos2: "kernGPOS-1" 4 dx=0 dy=0 dh=0 dv=0 dx=0 dy=0 dh=0 dv=0
PairPos2: "kernGPOS-1" , dx=0 dy=0 dh=0 dv=0 dx=0 dy=0 dh=0 dv=0
PairPos2: "kernGPOS-1" * dx=0 dy=0 dh=0 dv=0 dx=0 dy=0 dh=0 dv=0
PairPos2: "kernGPOS-1" ) dx=0 dy=0 dh=0 dv=0 dx=0 dy=0 dh=0 dv=0
PairPos2: "kernGPOS-1" ' dx=0 dy=0 dh=0 dv=0 dx=0 dy=0 dh=0 dv=0
PairPos2: "kernGPOS-1" % dx=0 dy=0 dh=0 dv=0 dx=0 dy=0 dh=0 dv=0
PairPos2: "kernGPOS-1" # dx=0 dy=0 dh=0 dv=0 dx=0 dy=0 dh=0 dv=0
PairPos2: "kernGPOS-1" " dx=0 dy=0 dh=0 dv=0 dx=0 dy=0 dh=0 dv=0
EndChar

StartChar: s
Encoding: 115 115 77
Width: 250
Flags: W
HStem: 0 40<40.9017 143.304> 11 38<25.0263 99.7366> 214 39<159.281 224.985>
VStem: 94 40<125.187 190.884>
LayerCount: 2
Fore
SplineSet
205 253 m 0xb0
 216 253 225 244 225 233 c 0
 225 224 220 217 212 214 c 0
 204 211 197 209 190 207 c 0
 165 199 152 195 139 174 c 0
 135 167 134 164 134 159 c 0
 134 154 136 147 139 136 c 0
 140 133 140 129 141 125 c 0
 147 104 185 77 185 48 c 0
 185 22 152 0 101 0 c 0xb0
 74 0 50 5 36 11 c 0
 29 14 25 21 25 29 c 0
 25 40 34 49 45 49 c 0x70
 48 49 50 49 53 48 c 0
 59 45 80 40 101 40 c 0
 118 40 134 43 144 50 c 1
 136 66 110 86 103 115 c 0
 102 118 101 122 100 125 c 0
 97 135 94 146 94 159 c 0
 94 171 97 184 105 196 c 0
 125 229 154 237 178 245 c 0
 185 247 191 249 198 252 c 0
 200 253 203 253 205 253 c 0xb0
EndSplineSet
Validated: 513
PairPos2: "kernGPOS-1" ~ dx=0 dy=0 dh=0 dv=0 dx=0 dy=0 dh=0 dv=0
PairPos2: "kernGPOS-1" } dx=0 dy=0 dh=0 dv=0 dx=0 dy=0 dh=0 dv=0
PairPos2: "kernGPOS-1" | dx=0 dy=0 dh=0 dv=0 dx=0 dy=0 dh=0 dv=0
PairPos2: "kernGPOS-1" { dx=0 dy=0 dh=0 dv=0 dx=0 dy=0 dh=0 dv=0
PairPos2: "kernGPOS-1" ` dx=0 dy=0 dh=0 dv=0 dx=0 dy=0 dh=0 dv=0
PairPos2: "kernGPOS-1" _ dx=0 dy=0 dh=0 dv=0 dx=0 dy=0 dh=0 dv=0
PairPos2: "kernGPOS-1" ] dx=0 dy=0 dh=0 dv=0 dx=0 dy=0 dh=0 dv=0
PairPos2: "kernGPOS-1" \ dx=0 dy=0 dh=0 dv=0 dx=0 dy=0 dh=0 dv=0
PairPos2: "kernGPOS-1" ? dx=0 dy=0 dh=0 dv=0 dx=0 dy=0 dh=0 dv=0
PairPos2: "kernGPOS-1" > dx=0 dy=0 dh=0 dv=0 dx=0 dy=0 dh=0 dv=0
PairPos2: "kernGPOS-1" = dx=0 dy=0 dh=0 dv=0 dx=0 dy=0 dh=0 dv=0
PairPos2: "kernGPOS-1" < dx=0 dy=0 dh=0 dv=0 dx=0 dy=0 dh=0 dv=0
PairPos2: "kernGPOS-1" ; dx=0 dy=0 dh=0 dv=0 dx=0 dy=0 dh=0 dv=0
PairPos2: "kernGPOS-1" 8 dx=0 dy=0 dh=0 dv=0 dx=0 dy=0 dh=0 dv=0
PairPos2: "kernGPOS-1" 7 dx=0 dy=0 dh=0 dv=0 dx=0 dy=0 dh=0 dv=0
PairPos2: "kernGPOS-1" 6 dx=0 dy=0 dh=0 dv=0 dx=0 dy=0 dh=0 dv=0
PairPos2: "kernGPOS-1" 5 dx=0 dy=0 dh=0 dv=0 dx=0 dy=0 dh=0 dv=0
PairPos2: "kernGPOS-1" 3 dx=0 dy=0 dh=0 dv=0 dx=0 dy=0 dh=0 dv=0
PairPos2: "kernGPOS-1" 2 dx=0 dy=0 dh=0 dv=0 dx=0 dy=0 dh=0 dv=0
PairPos2: "kernGPOS-1" 1 dx=0 dy=0 dh=0 dv=0 dx=0 dy=0 dh=0 dv=0
PairPos2: "kernGPOS-1" / dx=0 dy=0 dh=0 dv=0 dx=0 dy=0 dh=0 dv=0
PairPos2: "kernGPOS-1" . dx=0 dy=0 dh=0 dv=0 dx=0 dy=0 dh=0 dv=0
PairPos2: "kernGPOS-1" - dx=0 dy=0 dh=0 dv=0 dx=0 dy=0 dh=0 dv=0
PairPos2: "kernGPOS-1" , dx=0 dy=0 dh=0 dv=0 dx=0 dy=0 dh=0 dv=0
PairPos2: "kernGPOS-1" + dx=0 dy=0 dh=0 dv=0 dx=0 dy=0 dh=0 dv=0
PairPos2: "kernGPOS-1" * dx=0 dy=0 dh=0 dv=0 dx=0 dy=0 dh=0 dv=0
PairPos2: "kernGPOS-1" ) dx=0 dy=0 dh=0 dv=0 dx=0 dy=0 dh=0 dv=0
PairPos2: "kernGPOS-1" & dx=0 dy=0 dh=0 dv=0 dx=0 dy=0 dh=0 dv=0
PairPos2: "kernGPOS-1" $ dx=0 dy=0 dh=0 dv=0 dx=0 dy=0 dh=0 dv=0
PairPos2: "kernGPOS-1" ! dx=0 dy=0 dh=0 dv=0 dx=0 dy=0 dh=0 dv=0
EndChar

StartChar: a
Encoding: 97 97 78
Width: 256
Flags: W
HStem: -2 40<67.4082 106.618> 209 40<106.874 166.607>
VStem: 25 40<40.5106 151.783> 171 41<243 264.96> 191 40<0.00656509 111.52>
LayerCount: 2
Fore
SplineSet
140 209 m 0xe0
 121 209 104 191 92 167 c 0
 67 117 65 110 65 68 c 0
 65 53 67 44 69 41 c 0
 71 38 72 38 76 38 c 0
 82 38 92 41 102 46 c 0
 111 51 124 81 134 106 c 0
 138 115 142 124 146 134 c 0
 158 162 161 177 167 200 c 1
 156 206 147 209 140 209 c 0xe0
231 20 m 0xe8
 231 9 222 0 211 0 c 0
 200 0 192 8 191 18 c 0xe8
 188 62 184 83 182 100 c 0
 181 105 181 108 180 113 c 1
 177 105 174 98 171 91 c 0
 154 50 143 21 120 10 c 0
 108 4 93 -2 76 -2 c 0
 61 -2 25 4 25 68 c 0
 25 119 30 132 56 185 c 0
 70 213 96 249 140 249 c 0
 150 249 161 247 171 243 c 1
 172 252 174 255 176 257 c 0
 177 259 182 265 192 265 c 0
 194 265 210 264 212 245 c 0xf0
 212 243 213 241 213 238 c 0
 213 232 212 224 211 215 c 0
 212 89 231 134 231 22 c 0
 231 21 231 21 231 20 c 0xe8
EndSplineSet
Validated: 513
PairPos2: "kernGPOS-1" } dx=0 dy=0 dh=0 dv=0 dx=0 dy=0 dh=0 dv=0
PairPos2: "kernGPOS-1" ` dx=0 dy=0 dh=0 dv=0 dx=0 dy=0 dh=0 dv=0
PairPos2: "kernGPOS-1" ^ dx=0 dy=0 dh=0 dv=0 dx=0 dy=0 dh=0 dv=0
PairPos2: "kernGPOS-1" ] dx=0 dy=0 dh=0 dv=0 dx=0 dy=0 dh=0 dv=0
PairPos2: "kernGPOS-1" \ dx=0 dy=0 dh=0 dv=0 dx=0 dy=0 dh=0 dv=0
PairPos2: "kernGPOS-1" 9 dx=0 dy=0 dh=0 dv=0 dx=0 dy=0 dh=0 dv=0
PairPos2: "kernGPOS-1" 7 dx=0 dy=0 dh=0 dv=0 dx=0 dy=0 dh=0 dv=0
PairPos2: "kernGPOS-1" 4 dx=0 dy=0 dh=0 dv=0 dx=0 dy=0 dh=0 dv=0
PairPos2: "kernGPOS-1" * dx=0 dy=0 dh=0 dv=0 dx=0 dy=0 dh=0 dv=0
PairPos2: "kernGPOS-1" ) dx=0 dy=0 dh=0 dv=0 dx=0 dy=0 dh=0 dv=0
PairPos2: "kernGPOS-1" ' dx=0 dy=0 dh=0 dv=0 dx=0 dy=0 dh=0 dv=0
PairPos2: "kernGPOS-1" % dx=0 dy=0 dh=0 dv=0 dx=0 dy=0 dh=0 dv=0
PairPos2: "kernGPOS-1" # dx=0 dy=0 dh=0 dv=0 dx=0 dy=0 dh=0 dv=0
PairPos2: "kernGPOS-1" " dx=0 dy=0 dh=0 dv=0 dx=0 dy=0 dh=0 dv=0
EndChar

StartChar: e
Encoding: 101 101 79
Width: 236
Flags: W
HStem: 0 40<87.5928 171.669> 111 40<81 135.843> 214 40<100.338 149.695>
VStem: 36 40<49.2183 111> 150 40<164.112 213.596>
LayerCount: 2
Fore
SplineSet
150 206 m 0
 150 214 145 214 143 214 c 0
 132 214 107 200 100 194 c 0
 96 190 96 191 86 167 c 0
 84 163 82 157 81 151 c 1
 102 152 115 155 121 157 c 0
 125 159 127 160 134 168 c 0
 136 170 138 173 140 175 c 0
 146 182 150 197 150 206 c 0
37 123 m 0
 34 125 25 130 25 142 c 0
 25 152 33 160 43 161 c 1
 45 170 45 172 52 189 c 0
 63 216 70 227 111 246 c 0
 120 250 131 254 143 254 c 0
 171 254 190 232 190 206 c 0
 190 190 185 166 169 148 c 0
 167 146 166 144 164 142 c 0
 142 117 130 116 91 112 c 0
 87 112 82 111 77 111 c 2
 76 111 l 1
 76 110 76 107 76 106 c 0
 76 95 77 94 81 79 c 0
 88 55 90 47 115 41 c 0
 119 40 123 40 126 40 c 0
 143 40 160 50 179 65 c 0
 182 68 186 69 191 69 c 0
 202 69 211 60 211 49 c 0
 211 42 208 37 203 33 c 0
 183 18 158 0 126 0 c 0
 125 0 86 1 63 25 c 0
 50 39 46 54 42 68 c 0
 36 88 36 89 36 106 c 0
 36 111 37 117 37 123 c 0
EndSplineSet
Validated: 513
PairPos2: "kernGPOS-1" } dx=0 dy=0 dh=0 dv=0 dx=0 dy=0 dh=0 dv=0
PairPos2: "kernGPOS-1" ` dx=0 dy=0 dh=0 dv=0 dx=0 dy=0 dh=0 dv=0
PairPos2: "kernGPOS-1" ^ dx=0 dy=0 dh=0 dv=0 dx=0 dy=0 dh=0 dv=0
PairPos2: "kernGPOS-1" ] dx=0 dy=0 dh=0 dv=0 dx=0 dy=0 dh=0 dv=0
PairPos2: "kernGPOS-1" \ dx=0 dy=0 dh=0 dv=0 dx=0 dy=0 dh=0 dv=0
PairPos2: "kernGPOS-1" @ dx=0 dy=0 dh=0 dv=0 dx=0 dy=0 dh=0 dv=0
PairPos2: "kernGPOS-1" ; dx=0 dy=0 dh=0 dv=0 dx=0 dy=0 dh=0 dv=0
PairPos2: "kernGPOS-1" 9 dx=0 dy=0 dh=0 dv=0 dx=0 dy=0 dh=0 dv=0
PairPos2: "kernGPOS-1" 7 dx=0 dy=0 dh=0 dv=0 dx=0 dy=0 dh=0 dv=0
PairPos2: "kernGPOS-1" 4 dx=0 dy=0 dh=0 dv=0 dx=0 dy=0 dh=0 dv=0
PairPos2: "kernGPOS-1" 0 dx=0 dy=0 dh=0 dv=0 dx=0 dy=0 dh=0 dv=0
PairPos2: "kernGPOS-1" , dx=0 dy=0 dh=0 dv=0 dx=0 dy=0 dh=0 dv=0
PairPos2: "kernGPOS-1" * dx=0 dy=0 dh=0 dv=0 dx=0 dy=0 dh=0 dv=0
PairPos2: "kernGPOS-1" ) dx=0 dy=0 dh=0 dv=0 dx=0 dy=0 dh=0 dv=0
PairPos2: "kernGPOS-1" ( dx=0 dy=0 dh=0 dv=0 dx=0 dy=0 dh=0 dv=0
PairPos2: "kernGPOS-1" ' dx=0 dy=0 dh=0 dv=0 dx=0 dy=0 dh=0 dv=0
PairPos2: "kernGPOS-1" % dx=0 dy=0 dh=0 dv=0 dx=0 dy=0 dh=0 dv=0
PairPos2: "kernGPOS-1" # dx=0 dy=0 dh=0 dv=0 dx=0 dy=0 dh=0 dv=0
PairPos2: "kernGPOS-1" " dx=0 dy=0 dh=0 dv=0 dx=0 dy=0 dh=0 dv=0
EndChar

StartChar: i
Encoding: 105 105 80
Width: 149
Flags: W
HStem: 233 20G<56.5 65.5> 309 65<61.5837 120.824>
VStem: 25 40<0.0586052 20 20.0051 130.551> 52 40<83.157 237.78> 57 67<312.94 369.039>
LayerCount: 2
Fore
SplineSet
52 199 m 0xd0
 52 222 42 219 42 233 c 0
 42 244 51 253 62 253 c 0
 69 253 75 249 79 244 c 0
 90 227 92 211 92 199 c 0xd0
 92 132 65 69 65 31 c 0
 65 27 66 20 66 20 c 2
 66 9 57 0 46 0 c 0
 36 0 27 8 26 18 c 0
 26 22 25 27 25 31 c 0xe0
 25 78 52 136 52 199 c 0xd0
95 374 m 0
 111 374 124 361 124 343 c 0
 124 320 104 309 88 309 c 0
 75 309 57 318 57 338 c 0xc8
 57 357 74 374 95 374 c 0
EndSplineSet
Validated: 513
PairPos2: "kernGPOS-1" ~ dx=0 dy=0 dh=0 dv=0 dx=0 dy=0 dh=0 dv=0
PairPos2: "kernGPOS-1" } dx=0 dy=0 dh=0 dv=0 dx=0 dy=0 dh=0 dv=0
PairPos2: "kernGPOS-1" | dx=0 dy=0 dh=0 dv=0 dx=0 dy=0 dh=0 dv=0
PairPos2: "kernGPOS-1" { dx=0 dy=0 dh=0 dv=0 dx=0 dy=0 dh=0 dv=0
PairPos2: "kernGPOS-1" _ dx=0 dy=0 dh=0 dv=0 dx=0 dy=0 dh=0 dv=0
PairPos2: "kernGPOS-1" \ dx=0 dy=0 dh=0 dv=0 dx=0 dy=0 dh=0 dv=0
PairPos2: "kernGPOS-1" [ dx=0 dy=0 dh=0 dv=0 dx=0 dy=0 dh=0 dv=0
PairPos2: "kernGPOS-1" ? dx=0 dy=0 dh=0 dv=0 dx=0 dy=0 dh=0 dv=0
PairPos2: "kernGPOS-1" > dx=0 dy=0 dh=0 dv=0 dx=0 dy=0 dh=0 dv=0
PairPos2: "kernGPOS-1" = dx=0 dy=0 dh=0 dv=0 dx=0 dy=0 dh=0 dv=0
PairPos2: "kernGPOS-1" < dx=0 dy=0 dh=0 dv=0 dx=0 dy=0 dh=0 dv=0
PairPos2: "kernGPOS-1" ; dx=0 dy=0 dh=0 dv=0 dx=0 dy=0 dh=0 dv=0
PairPos2: "kernGPOS-1" : dx=0 dy=0 dh=0 dv=0 dx=0 dy=0 dh=0 dv=0
PairPos2: "kernGPOS-1" 8 dx=0 dy=0 dh=0 dv=0 dx=0 dy=0 dh=0 dv=0
PairPos2: "kernGPOS-1" 6 dx=0 dy=0 dh=0 dv=0 dx=0 dy=0 dh=0 dv=0
PairPos2: "kernGPOS-1" 5 dx=0 dy=0 dh=0 dv=0 dx=0 dy=0 dh=0 dv=0
PairPos2: "kernGPOS-1" 3 dx=0 dy=0 dh=0 dv=0 dx=0 dy=0 dh=0 dv=0
PairPos2: "kernGPOS-1" 1 dx=0 dy=0 dh=0 dv=0 dx=0 dy=0 dh=0 dv=0
PairPos2: "kernGPOS-1" 0 dx=0 dy=0 dh=0 dv=0 dx=0 dy=0 dh=0 dv=0
PairPos2: "kernGPOS-1" / dx=0 dy=0 dh=0 dv=0 dx=0 dy=0 dh=0 dv=0
PairPos2: "kernGPOS-1" . dx=0 dy=0 dh=0 dv=0 dx=0 dy=0 dh=0 dv=0
PairPos2: "kernGPOS-1" - dx=0 dy=0 dh=0 dv=0 dx=0 dy=0 dh=0 dv=0
PairPos2: "kernGPOS-1" , dx=0 dy=0 dh=0 dv=0 dx=0 dy=0 dh=0 dv=0
PairPos2: "kernGPOS-1" + dx=0 dy=0 dh=0 dv=0 dx=0 dy=0 dh=0 dv=0
PairPos2: "kernGPOS-1" ( dx=0 dy=0 dh=0 dv=0 dx=0 dy=0 dh=0 dv=0
PairPos2: "kernGPOS-1" & dx=0 dy=0 dh=0 dv=0 dx=0 dy=0 dh=0 dv=0
PairPos2: "kernGPOS-1" $ dx=0 dy=0 dh=0 dv=0 dx=0 dy=0 dh=0 dv=0
PairPos2: "kernGPOS-1" ! dx=0 dy=0 dh=0 dv=0 dx=0 dy=0 dh=0 dv=0
EndChar

StartChar: k
Encoding: 107 107 81
Width: 232
Flags: W
HStem: 233 20G<174.5 182.5> 447 20G<75.5 86.5>
VStem: 25 40<0.00656509 70.3943> 61 40<261.062 466.993>
LayerCount: 2
Fore
SplineSet
25 20 m 0xe0
 25 21 34 99 36 117 c 0
 36 119 35 121 35 123 c 0
 35 128 36 136 39 144 c 0
 50 245 59 353 61 447 c 0
 61 458 70 467 81 467 c 0
 92 467 101 458 101 447 c 0xd0
 101 444 100 362 84 196 c 1
 109 212 144 229 163 247 c 0
 167 251 172 253 177 253 c 0
 188 253 197 244 197 233 c 0
 197 227 195 223 191 219 c 0
 155 184 90 163 78 135 c 0
 77 130 77 124 76 119 c 0
 82 104 124 98 152 81 c 0
 171 70 191 58 205 30 c 0
 206 27 207 24 207 21 c 0
 207 10 198 1 187 1 c 0
 179 1 172 5 169 12 c 0
 160 30 151 36 132 47 c 0
 115 57 90 63 71 72 c 1
 69 53 67 35 65 18 c 0
 64 8 55 0 45 -0 c 0
 34 0 25 9 25 20 c 0xe0
EndSplineSet
Validated: 513
PairPos2: "kernGPOS-1" ~ dx=0 dy=0 dh=0 dv=0 dx=0 dy=0 dh=0 dv=0
PairPos2: "kernGPOS-1" } dx=0 dy=0 dh=0 dv=0 dx=0 dy=0 dh=0 dv=0
PairPos2: "kernGPOS-1" { dx=0 dy=0 dh=0 dv=0 dx=0 dy=0 dh=0 dv=0
PairPos2: "kernGPOS-1" ` dx=0 dy=0 dh=0 dv=0 dx=0 dy=0 dh=0 dv=0
PairPos2: "kernGPOS-1" ^ dx=0 dy=0 dh=0 dv=0 dx=0 dy=0 dh=0 dv=0
PairPos2: "kernGPOS-1" ] dx=0 dy=0 dh=0 dv=0 dx=0 dy=0 dh=0 dv=0
PairPos2: "kernGPOS-1" \ dx=0 dy=0 dh=0 dv=0 dx=0 dy=0 dh=0 dv=0
PairPos2: "kernGPOS-1" @ dx=0 dy=0 dh=0 dv=0 dx=0 dy=0 dh=0 dv=0
PairPos2: "kernGPOS-1" < dx=0 dy=0 dh=0 dv=0 dx=0 dy=0 dh=0 dv=0
PairPos2: "kernGPOS-1" 9 dx=0 dy=0 dh=0 dv=0 dx=0 dy=0 dh=0 dv=0
PairPos2: "kernGPOS-1" 7 dx=0 dy=0 dh=0 dv=0 dx=0 dy=0 dh=0 dv=0
PairPos2: "kernGPOS-1" 6 dx=0 dy=0 dh=0 dv=0 dx=0 dy=0 dh=0 dv=0
PairPos2: "kernGPOS-1" 4 dx=0 dy=0 dh=0 dv=0 dx=0 dy=0 dh=0 dv=0
PairPos2: "kernGPOS-1" 0 dx=0 dy=0 dh=0 dv=0 dx=0 dy=0 dh=0 dv=0
PairPos2: "kernGPOS-1" - dx=0 dy=0 dh=0 dv=0 dx=0 dy=0 dh=0 dv=0
PairPos2: "kernGPOS-1" + dx=0 dy=0 dh=0 dv=0 dx=0 dy=0 dh=0 dv=0
PairPos2: "kernGPOS-1" * dx=0 dy=0 dh=0 dv=0 dx=0 dy=0 dh=0 dv=0
PairPos2: "kernGPOS-1" ) dx=0 dy=0 dh=0 dv=0 dx=0 dy=0 dh=0 dv=0
PairPos2: "kernGPOS-1" ( dx=0 dy=0 dh=0 dv=0 dx=0 dy=0 dh=0 dv=0
PairPos2: "kernGPOS-1" ' dx=0 dy=0 dh=0 dv=0 dx=0 dy=0 dh=0 dv=0
PairPos2: "kernGPOS-1" % dx=0 dy=0 dh=0 dv=0 dx=0 dy=0 dh=0 dv=0
PairPos2: "kernGPOS-1" $ dx=0 dy=0 dh=0 dv=0 dx=0 dy=0 dh=0 dv=0
PairPos2: "kernGPOS-1" # dx=0 dy=0 dh=0 dv=0 dx=0 dy=0 dh=0 dv=0
PairPos2: "kernGPOS-1" " dx=0 dy=0 dh=0 dv=0 dx=0 dy=0 dh=0 dv=0
EndChar

StartChar: m
Encoding: 109 109 82
Width: 393
Flags: W
HStem: 193 35<130.887 172.633> 214 40<277.752 322.511>
VStem: 25 38<2.03448 43.9804> 56 40<198 227.993> 158 46<14.8581 94.971> 328 40<30.7621 213.867>
LayerCount: 2
Fore
SplineSet
45 2 m 0xac
 34 2 25 10 25 22 c 0xac
 25 31 27 41 31 54 c 0
 33 64 36 74 38 83 c 0
 48 125 55 156 56 208 c 0
 56 219 65 228 76 228 c 0x9c
 87 228 96 219 96 208 c 2
 96 208 96 204 96 198 c 1
 112 217 133 233 163 233 c 0
 207 233 213 190 215 172 c 1
 220 179 224 186 229 194 c 0
 245 220 266 254 311 254 c 0
 354 254 361 205 364 189 c 0
 367 170 368 154 368 138 c 0
 368 111 364 78 363 50 c 0
 363 39 354 30 343 30 c 0
 332 30 323 39 323 50 c 0
 323 64 328 110 328 138 c 0
 328 139 328 200 315 213 c 0
 314 214 313 214 311 214 c 0x5c
 290 214 281 202 263 173 c 0
 258 165 253 157 247 148 c 0
 233 129 228 115 221 95 c 2
 221 95 206 55 204 48 c 0
 196 25 195 23 191 19 c 0
 190 18 187 14 178 14 c 0
 169 14 158 21 158 34 c 0
 158 54 177 104 177 137 c 0
 177 138 176 187 168 192 c 0
 167 192 167 193 163 193 c 0
 140 193 126 172 106 142 c 0
 90 117 85 102 79 77 c 0
 76 67 74 56 70 44 c 2
 70 44 63 17 63 16 c 0
 62 14 59 2 45 2 c 0xac
EndSplineSet
Validated: 513
PairPos2: "kernGPOS-1" } dx=0 dy=0 dh=0 dv=0 dx=0 dy=0 dh=0 dv=0
PairPos2: "kernGPOS-1" ` dx=0 dy=0 dh=0 dv=0 dx=0 dy=0 dh=0 dv=0
PairPos2: "kernGPOS-1" _ dx=0 dy=0 dh=0 dv=0 dx=0 dy=0 dh=0 dv=0
PairPos2: "kernGPOS-1" ^ dx=0 dy=0 dh=0 dv=0 dx=0 dy=0 dh=0 dv=0
PairPos2: "kernGPOS-1" ] dx=0 dy=0 dh=0 dv=0 dx=0 dy=0 dh=0 dv=0
PairPos2: "kernGPOS-1" \ dx=0 dy=0 dh=0 dv=0 dx=0 dy=0 dh=0 dv=0
PairPos2: "kernGPOS-1" ; dx=0 dy=0 dh=0 dv=0 dx=0 dy=0 dh=0 dv=0
PairPos2: "kernGPOS-1" 9 dx=0 dy=0 dh=0 dv=0 dx=0 dy=0 dh=0 dv=0
PairPos2: "kernGPOS-1" 7 dx=0 dy=0 dh=0 dv=0 dx=0 dy=0 dh=0 dv=0
PairPos2: "kernGPOS-1" 4 dx=0 dy=0 dh=0 dv=0 dx=0 dy=0 dh=0 dv=0
PairPos2: "kernGPOS-1" , dx=0 dy=0 dh=0 dv=0 dx=0 dy=0 dh=0 dv=0
PairPos2: "kernGPOS-1" * dx=0 dy=0 dh=0 dv=0 dx=0 dy=0 dh=0 dv=0
PairPos2: "kernGPOS-1" ) dx=0 dy=0 dh=0 dv=0 dx=0 dy=0 dh=0 dv=0
PairPos2: "kernGPOS-1" ' dx=0 dy=0 dh=0 dv=0 dx=0 dy=0 dh=0 dv=0
PairPos2: "kernGPOS-1" % dx=0 dy=0 dh=0 dv=0 dx=0 dy=0 dh=0 dv=0
PairPos2: "kernGPOS-1" # dx=0 dy=0 dh=0 dv=0 dx=0 dy=0 dh=0 dv=0
PairPos2: "kernGPOS-1" " dx=0 dy=0 dh=0 dv=0 dx=0 dy=0 dh=0 dv=0
EndChar

StartChar: n
Encoding: 110 110 83
Width: 274
Flags: W
HStem: 213 40<150.234 197.385>
VStem: 25 39<21.0233 98.4938> 54 39<194 232.819> 199 40<0.00656509 109.549> 209 40<2.70094 210.744>
LayerCount: 2
Fore
SplineSet
54 179 m 0xa0
 54 198 51 209 51 213 c 0
 51 224 60 233 71 233 c 0
 81 233 89 226 91 216 c 0
 92 208 93 201 93 194 c 1
 95 196 145 252 176 253 c 0
 177 253 177 253 178 253 c 0
 230 253 237 211 241 183 c 0
 247 146 249 137 249 111 c 0xa8
 249 80 245 52 239 17 c 0
 238 7 229 0 219 0 c 0
 208 0 199 9 199 20 c 0
 199 21 199 22 199 23 c 0x90
 204 58 209 84 209 111 c 0
 209 133 208 140 202 177 c 0
 197 209 194 213 178 213 c 1
 165 208 132 181 110 151 c 0
 92 127 91 123 75 76 c 0
 71 61 67 50 64 38 c 0
 63 33 59 21 45 21 c 0
 36 21 25 29 25 41 c 0xc8
 25 60 54 123 54 179 c 0xa0
EndSplineSet
Validated: 513
PairPos2: "kernGPOS-1" } dx=0 dy=0 dh=0 dv=0 dx=0 dy=0 dh=0 dv=0
PairPos2: "kernGPOS-1" ` dx=0 dy=0 dh=0 dv=0 dx=0 dy=0 dh=0 dv=0
PairPos2: "kernGPOS-1" ^ dx=0 dy=0 dh=0 dv=0 dx=0 dy=0 dh=0 dv=0
PairPos2: "kernGPOS-1" ] dx=0 dy=0 dh=0 dv=0 dx=0 dy=0 dh=0 dv=0
PairPos2: "kernGPOS-1" \ dx=0 dy=0 dh=0 dv=0 dx=0 dy=0 dh=0 dv=0
PairPos2: "kernGPOS-1" ; dx=0 dy=0 dh=0 dv=0 dx=0 dy=0 dh=0 dv=0
PairPos2: "kernGPOS-1" 9 dx=0 dy=0 dh=0 dv=0 dx=0 dy=0 dh=0 dv=0
PairPos2: "kernGPOS-1" 7 dx=0 dy=0 dh=0 dv=0 dx=0 dy=0 dh=0 dv=0
PairPos2: "kernGPOS-1" 4 dx=0 dy=0 dh=0 dv=0 dx=0 dy=0 dh=0 dv=0
PairPos2: "kernGPOS-1" , dx=0 dy=0 dh=0 dv=0 dx=0 dy=0 dh=0 dv=0
PairPos2: "kernGPOS-1" * dx=0 dy=0 dh=0 dv=0 dx=0 dy=0 dh=0 dv=0
PairPos2: "kernGPOS-1" ) dx=0 dy=0 dh=0 dv=0 dx=0 dy=0 dh=0 dv=0
PairPos2: "kernGPOS-1" ' dx=0 dy=0 dh=0 dv=0 dx=0 dy=0 dh=0 dv=0
PairPos2: "kernGPOS-1" % dx=0 dy=0 dh=0 dv=0 dx=0 dy=0 dh=0 dv=0
PairPos2: "kernGPOS-1" # dx=0 dy=0 dh=0 dv=0 dx=0 dy=0 dh=0 dv=0
PairPos2: "kernGPOS-1" " dx=0 dy=0 dh=0 dv=0 dx=0 dy=0 dh=0 dv=0
EndChar

StartChar: o
Encoding: 111 111 84
Width: 224
Flags: W
HStem: 213 40<88.2495 157.408>
VStem: 25 40<49.6231 188.279> 159 40<83.3783 210.683>
LayerCount: 2
Fore
SplineSet
126 253 m 0
 134 253 199 252 199 179 c 0
 199 161 197 148 191 118 c 0
 185 87 175 49 152 23 c 0
 121 -12 79 -2 59 18 c 0
 48 29 45 38 35 62 c 0
 28 80 25 95 25 109 c 0
 25 131 32 147 35 171 c 0
 42 218 82 253 126 253 c 0
104 40 m 0
 142 40 159 158 159 179 c 0
 159 204 149 209 134 212 c 0
 131 213 129 213 126 213 c 0
 104 213 79 193 75 165 c 0
 72 141 65 125 65 109 c 0
 65 101 65 95 74 72 c 0
 84 46 89 40 104 40 c 0
EndSplineSet
Validated: 545
PairPos2: "kernGPOS-1" } dx=0 dy=0 dh=0 dv=0 dx=0 dy=0 dh=0 dv=0
PairPos2: "kernGPOS-1" ` dx=0 dy=0 dh=0 dv=0 dx=0 dy=0 dh=0 dv=0
PairPos2: "kernGPOS-1" _ dx=0 dy=0 dh=0 dv=0 dx=0 dy=0 dh=0 dv=0
PairPos2: "kernGPOS-1" ] dx=0 dy=0 dh=0 dv=0 dx=0 dy=0 dh=0 dv=0
PairPos2: "kernGPOS-1" \ dx=0 dy=0 dh=0 dv=0 dx=0 dy=0 dh=0 dv=0
PairPos2: "kernGPOS-1" ? dx=0 dy=0 dh=0 dv=0 dx=0 dy=0 dh=0 dv=0
PairPos2: "kernGPOS-1" > dx=0 dy=0 dh=0 dv=0 dx=0 dy=0 dh=0 dv=0
PairPos2: "kernGPOS-1" ; dx=0 dy=0 dh=0 dv=0 dx=0 dy=0 dh=0 dv=0
PairPos2: "kernGPOS-1" 8 dx=0 dy=0 dh=0 dv=0 dx=0 dy=0 dh=0 dv=0
PairPos2: "kernGPOS-1" 7 dx=0 dy=0 dh=0 dv=0 dx=0 dy=0 dh=0 dv=0
PairPos2: "kernGPOS-1" 5 dx=0 dy=0 dh=0 dv=0 dx=0 dy=0 dh=0 dv=0
PairPos2: "kernGPOS-1" 3 dx=0 dy=0 dh=0 dv=0 dx=0 dy=0 dh=0 dv=0
PairPos2: "kernGPOS-1" 2 dx=0 dy=0 dh=0 dv=0 dx=0 dy=0 dh=0 dv=0
PairPos2: "kernGPOS-1" / dx=0 dy=0 dh=0 dv=0 dx=0 dy=0 dh=0 dv=0
PairPos2: "kernGPOS-1" . dx=0 dy=0 dh=0 dv=0 dx=0 dy=0 dh=0 dv=0
PairPos2: "kernGPOS-1" , dx=0 dy=0 dh=0 dv=0 dx=0 dy=0 dh=0 dv=0
PairPos2: "kernGPOS-1" * dx=0 dy=0 dh=0 dv=0 dx=0 dy=0 dh=0 dv=0
PairPos2: "kernGPOS-1" ) dx=0 dy=0 dh=0 dv=0 dx=0 dy=0 dh=0 dv=0
PairPos2: "kernGPOS-1" ' dx=0 dy=0 dh=0 dv=0 dx=0 dy=0 dh=0 dv=0
PairPos2: "kernGPOS-1" " dx=0 dy=0 dh=0 dv=0 dx=0 dy=0 dh=0 dv=0
PairPos2: "kernGPOS-1" ! dx=0 dy=0 dh=0 dv=0 dx=0 dy=0 dh=0 dv=0
EndChar

StartChar: p
Encoding: 112 112 85
Width: 256
Flags: W
HStem: -195 21G<39.5 50> 213 40<97.6183 182.196>
VStem: 25 65<-149.417 1> 25 40<-194.993 -7.83548> 191 40<116.557 212.152>
LayerCount: 2
Fore
SplineSet
45 -195 m 0xd8
 34 -195 25 -186 25 -175 c 0
 25 -174 25 -172 25 -171 c 0
 53 -36 42 98 56 218 c 0
 57 225 58 232 64 237 c 0
 66 239 71 242 77 242 c 0
 82 242 86 240 89 238 c 0
 98 240 107 242 116 244 c 0
 134 248 151 253 168 253 c 0
 178 253 189 251 199 244 c 0
 222 227 231 204 231 181 c 0
 231 153 220 126 209 103 c 0
 178 34 159 20 105 3 c 0
 100 1 95 0 89 0 c 0
 88 0 86 1 85 1 c 0
 82 -57 78 -115 65 -179 c 0
 63 -188 55 -195 45 -195 c 0xd8
191 181 m 0
 191 194 187 203 175 212 c 1
 175 212 174 213 168 213 c 0
 152 213 123 204 97 199 c 1
 97 187 96 172 95 162 c 0
 93 138 90 57 90 56 c 0xe8
 90 49 90 44 91 41 c 1
 91 41 120 48 135 60 c 0
 146 69 157 85 173 120 c 0
 183 142 191 164 191 181 c 0
EndSplineSet
Validated: 513
PairPos2: "kernGPOS-1" } dx=0 dy=0 dh=0 dv=0 dx=0 dy=0 dh=0 dv=0
PairPos2: "kernGPOS-1" ` dx=0 dy=0 dh=0 dv=0 dx=0 dy=0 dh=0 dv=0
PairPos2: "kernGPOS-1" _ dx=0 dy=0 dh=0 dv=0 dx=0 dy=0 dh=0 dv=0
PairPos2: "kernGPOS-1" ] dx=0 dy=0 dh=0 dv=0 dx=0 dy=0 dh=0 dv=0
PairPos2: "kernGPOS-1" \ dx=0 dy=0 dh=0 dv=0 dx=0 dy=0 dh=0 dv=0
PairPos2: "kernGPOS-1" ? dx=0 dy=0 dh=0 dv=0 dx=0 dy=0 dh=0 dv=0
PairPos2: "kernGPOS-1" > dx=0 dy=0 dh=0 dv=0 dx=0 dy=0 dh=0 dv=0
PairPos2: "kernGPOS-1" ; dx=0 dy=0 dh=0 dv=0 dx=0 dy=0 dh=0 dv=0
PairPos2: "kernGPOS-1" 8 dx=0 dy=0 dh=0 dv=0 dx=0 dy=0 dh=0 dv=0
PairPos2: "kernGPOS-1" 7 dx=0 dy=0 dh=0 dv=0 dx=0 dy=0 dh=0 dv=0
PairPos2: "kernGPOS-1" 5 dx=0 dy=0 dh=0 dv=0 dx=0 dy=0 dh=0 dv=0
PairPos2: "kernGPOS-1" 3 dx=0 dy=0 dh=0 dv=0 dx=0 dy=0 dh=0 dv=0
PairPos2: "kernGPOS-1" 2 dx=0 dy=0 dh=0 dv=0 dx=0 dy=0 dh=0 dv=0
PairPos2: "kernGPOS-1" / dx=0 dy=0 dh=0 dv=0 dx=0 dy=0 dh=0 dv=0
PairPos2: "kernGPOS-1" . dx=0 dy=0 dh=0 dv=0 dx=0 dy=0 dh=0 dv=0
PairPos2: "kernGPOS-1" , dx=0 dy=0 dh=0 dv=0 dx=0 dy=0 dh=0 dv=0
PairPos2: "kernGPOS-1" * dx=0 dy=0 dh=0 dv=0 dx=0 dy=0 dh=0 dv=0
PairPos2: "kernGPOS-1" ) dx=0 dy=0 dh=0 dv=0 dx=0 dy=0 dh=0 dv=0
PairPos2: "kernGPOS-1" ' dx=0 dy=0 dh=0 dv=0 dx=0 dy=0 dh=0 dv=0
PairPos2: "kernGPOS-1" & dx=0 dy=0 dh=0 dv=0 dx=0 dy=0 dh=0 dv=0
PairPos2: "kernGPOS-1" " dx=0 dy=0 dh=0 dv=0 dx=0 dy=0 dh=0 dv=0
PairPos2: "kernGPOS-1" ! dx=0 dy=0 dh=0 dv=0 dx=0 dy=0 dh=0 dv=0
EndChar

StartChar: q
Encoding: 113 113 86
Width: 285
Flags: W
HStem: -195 21G<150.5 167.5> 0 40<65.324 129.295>
VStem: 25 40<41.7266 121.11> 127 40<-122 -48.0078>
LayerCount: 2
Fore
SplineSet
65 63 m 0
 65 60 65 57 65 54 c 0
 67 49 80 40 96 40 c 0
 105 40 112 43 118 49 c 0
 121 52 124 55 127 57 c 0
 151 79 148 75 167 102 c 0
 169 104 170 106 172 109 c 0
 175 113 184 133 192 155 c 0
 197 177 202 199 208 221 c 1
 200 216 165 210 141 194 c 0
 130 186 119 176 108 158 c 0
 100 144 93 134 87 125 c 0
 69 97 65 89 65 63 c 0
162 -195 m 0
 139 -195 127 -159 127 -122 c 0
 127 -112 128 -104 131 -95 c 0
 142 -61 154 -15 166 38 c 1
 164 36 164 36 146 19 c 0
 133 7 100 0 95 0 c 0
 58 0 26 24 25 52 c 0
 25 56 25 59 25 63 c 0
 25 101 35 116 54 146 c 0
 60 155 66 165 74 178 c 0
 106 231 143 242 182 254 c 0
 195 258 195 258 198 258 c 0
 205 258 211 254 215 248 c 1
 221 271 221 271 224 275 c 0
 226 278 231 283 240 283 c 0
 249 283 260 276 260 263 c 2
 260 262 l 2
 260 253 247 199 241 175 c 0
 238 164 234 152 230 141 c 0
 225 118 220 96 215 75 c 0
 199 2 185 -60 169 -107 c 0
 168 -109 167 -115 167 -122 c 2
 167 -122 168 -147 174 -159 c 0
 179 -163 182 -168 182 -175 c 0
 182 -186 173 -195 162 -195 c 0
EndSplineSet
Validated: 513
PairPos2: "kernGPOS-1" ~ dx=0 dy=0 dh=0 dv=0 dx=0 dy=0 dh=0 dv=0
PairPos2: "kernGPOS-1" } dx=0 dy=0 dh=0 dv=0 dx=0 dy=0 dh=0 dv=0
PairPos2: "kernGPOS-1" | dx=0 dy=0 dh=0 dv=0 dx=0 dy=0 dh=0 dv=0
PairPos2: "kernGPOS-1" { dx=0 dy=0 dh=0 dv=0 dx=0 dy=0 dh=0 dv=0
PairPos2: "kernGPOS-1" ` dx=0 dy=0 dh=0 dv=0 dx=0 dy=0 dh=0 dv=0
PairPos2: "kernGPOS-1" _ dx=0 dy=0 dh=0 dv=0 dx=0 dy=0 dh=0 dv=0
PairPos2: "kernGPOS-1" ] dx=0 dy=0 dh=0 dv=0 dx=0 dy=0 dh=0 dv=0
PairPos2: "kernGPOS-1" \ dx=0 dy=0 dh=0 dv=0 dx=0 dy=0 dh=0 dv=0
PairPos2: "kernGPOS-1" [ dx=0 dy=0 dh=0 dv=0 dx=0 dy=0 dh=0 dv=0
PairPos2: "kernGPOS-1" ? dx=0 dy=0 dh=0 dv=0 dx=0 dy=0 dh=0 dv=0
PairPos2: "kernGPOS-1" > dx=0 dy=0 dh=0 dv=0 dx=0 dy=0 dh=0 dv=0
PairPos2: "kernGPOS-1" = dx=0 dy=0 dh=0 dv=0 dx=0 dy=0 dh=0 dv=0
PairPos2: "kernGPOS-1" < dx=0 dy=0 dh=0 dv=0 dx=0 dy=0 dh=0 dv=0
PairPos2: "kernGPOS-1" ; dx=0 dy=0 dh=0 dv=0 dx=0 dy=0 dh=0 dv=0
PairPos2: "kernGPOS-1" 8 dx=0 dy=0 dh=0 dv=0 dx=0 dy=0 dh=0 dv=0
PairPos2: "kernGPOS-1" 7 dx=0 dy=0 dh=0 dv=0 dx=0 dy=0 dh=0 dv=0
PairPos2: "kernGPOS-1" 6 dx=0 dy=0 dh=0 dv=0 dx=0 dy=0 dh=0 dv=0
PairPos2: "kernGPOS-1" 5 dx=0 dy=0 dh=0 dv=0 dx=0 dy=0 dh=0 dv=0
PairPos2: "kernGPOS-1" 3 dx=0 dy=0 dh=0 dv=0 dx=0 dy=0 dh=0 dv=0
PairPos2: "kernGPOS-1" 2 dx=0 dy=0 dh=0 dv=0 dx=0 dy=0 dh=0 dv=0
PairPos2: "kernGPOS-1" 1 dx=0 dy=0 dh=0 dv=0 dx=0 dy=0 dh=0 dv=0
PairPos2: "kernGPOS-1" / dx=0 dy=0 dh=0 dv=0 dx=0 dy=0 dh=0 dv=0
PairPos2: "kernGPOS-1" . dx=0 dy=0 dh=0 dv=0 dx=0 dy=0 dh=0 dv=0
PairPos2: "kernGPOS-1" - dx=0 dy=0 dh=0 dv=0 dx=0 dy=0 dh=0 dv=0
PairPos2: "kernGPOS-1" , dx=0 dy=0 dh=0 dv=0 dx=0 dy=0 dh=0 dv=0
PairPos2: "kernGPOS-1" + dx=0 dy=0 dh=0 dv=0 dx=0 dy=0 dh=0 dv=0
PairPos2: "kernGPOS-1" ) dx=0 dy=0 dh=0 dv=0 dx=0 dy=0 dh=0 dv=0
PairPos2: "kernGPOS-1" & dx=0 dy=0 dh=0 dv=0 dx=0 dy=0 dh=0 dv=0
PairPos2: "kernGPOS-1" $ dx=0 dy=0 dh=0 dv=0 dx=0 dy=0 dh=0 dv=0
PairPos2: "kernGPOS-1" ! dx=0 dy=0 dh=0 dv=0 dx=0 dy=0 dh=0 dv=0
EndChar

StartChar: r
Encoding: 114 114 87
Width: 286
Flags: W
HStem: 229 40<183.578 260.993>
VStem: 25 38<-0.95396 23> 69 39<208 230.977 231 232.077>
LayerCount: 2
Fore
SplineSet
69 188 m 0
 69 200 66 231 66 231 c 2
 66 242 75 251 86 251 c 0
 96 251 105 243 106 233 c 0
 108 213 108 213 108 208 c 1
 119 218 161 255 237 269 c 0
 238 269 240 269 241 269 c 0
 252 269 261 260 261 249 c 0
 261 239 254 231 245 229 c 0
 217 224 188 214 164 200 c 0
 145 189 130 175 122 162 c 0
 108 139 98 121 91 104 c 0
 80 69 63 13 63 12 c 0
 62 9 58 -1 45 -1 c 0
 36 -1 25 6 25 19 c 2
 25 19 25 22 25 23 c 2
 25 23 29 35 35 58 c 0
 40 76 45 95 53 115 c 0
 67 160 69 168 69 188 c 0
EndSplineSet
Validated: 513
PairPos2: "kernGPOS-1" ~ dx=0 dy=0 dh=0 dv=0 dx=0 dy=0 dh=0 dv=0
PairPos2: "kernGPOS-1" } dx=0 dy=0 dh=0 dv=0 dx=0 dy=0 dh=0 dv=0
PairPos2: "kernGPOS-1" | dx=0 dy=0 dh=0 dv=0 dx=0 dy=0 dh=0 dv=0
PairPos2: "kernGPOS-1" { dx=0 dy=0 dh=0 dv=0 dx=0 dy=0 dh=0 dv=0
PairPos2: "kernGPOS-1" ` dx=0 dy=0 dh=0 dv=0 dx=0 dy=0 dh=0 dv=0
PairPos2: "kernGPOS-1" _ dx=0 dy=0 dh=0 dv=0 dx=0 dy=0 dh=0 dv=0
PairPos2: "kernGPOS-1" ] dx=0 dy=0 dh=0 dv=0 dx=0 dy=0 dh=0 dv=0
PairPos2: "kernGPOS-1" \ dx=0 dy=0 dh=0 dv=0 dx=0 dy=0 dh=0 dv=0
PairPos2: "kernGPOS-1" ? dx=0 dy=0 dh=0 dv=0 dx=0 dy=0 dh=0 dv=0
PairPos2: "kernGPOS-1" > dx=0 dy=0 dh=0 dv=0 dx=0 dy=0 dh=0 dv=0
PairPos2: "kernGPOS-1" = dx=0 dy=0 dh=0 dv=0 dx=0 dy=0 dh=0 dv=0
PairPos2: "kernGPOS-1" < dx=0 dy=0 dh=0 dv=0 dx=0 dy=0 dh=0 dv=0
PairPos2: "kernGPOS-1" ; dx=0 dy=0 dh=0 dv=0 dx=0 dy=0 dh=0 dv=0
PairPos2: "kernGPOS-1" 8 dx=0 dy=0 dh=0 dv=0 dx=0 dy=0 dh=0 dv=0
PairPos2: "kernGPOS-1" 7 dx=0 dy=0 dh=0 dv=0 dx=0 dy=0 dh=0 dv=0
PairPos2: "kernGPOS-1" 6 dx=0 dy=0 dh=0 dv=0 dx=0 dy=0 dh=0 dv=0
PairPos2: "kernGPOS-1" 5 dx=0 dy=0 dh=0 dv=0 dx=0 dy=0 dh=0 dv=0
PairPos2: "kernGPOS-1" 3 dx=0 dy=0 dh=0 dv=0 dx=0 dy=0 dh=0 dv=0
PairPos2: "kernGPOS-1" 2 dx=0 dy=0 dh=0 dv=0 dx=0 dy=0 dh=0 dv=0
PairPos2: "kernGPOS-1" 1 dx=0 dy=0 dh=0 dv=0 dx=0 dy=0 dh=0 dv=0
PairPos2: "kernGPOS-1" / dx=0 dy=0 dh=0 dv=0 dx=0 dy=0 dh=0 dv=0
PairPos2: "kernGPOS-1" . dx=0 dy=0 dh=0 dv=0 dx=0 dy=0 dh=0 dv=0
PairPos2: "kernGPOS-1" - dx=0 dy=0 dh=0 dv=0 dx=0 dy=0 dh=0 dv=0
PairPos2: "kernGPOS-1" , dx=0 dy=0 dh=0 dv=0 dx=0 dy=0 dh=0 dv=0
PairPos2: "kernGPOS-1" + dx=0 dy=0 dh=0 dv=0 dx=0 dy=0 dh=0 dv=0
PairPos2: "kernGPOS-1" ) dx=0 dy=0 dh=0 dv=0 dx=0 dy=0 dh=0 dv=0
PairPos2: "kernGPOS-1" & dx=0 dy=0 dh=0 dv=0 dx=0 dy=0 dh=0 dv=0
PairPos2: "kernGPOS-1" $ dx=0 dy=0 dh=0 dv=0 dx=0 dy=0 dh=0 dv=0
PairPos2: "kernGPOS-1" ! dx=0 dy=0 dh=0 dv=0 dx=0 dy=0 dh=0 dv=0
EndChar

StartChar: t
Encoding: 116 116 88
Width: 276
Flags: W
HStem: 222 40<25.0066 113> 246 40<159.847 250.941>
VStem: 86 40<45.0917 178.894> 113 41<140.703 227 279 426.03> 126 40<279.556 446.993>
LayerCount: 2
Fore
SplineSet
45 262 m 0x90
 46 262 49 262 54 262 c 0
 81 262 101 264 118 268 c 1
 121 296 125 395 126 428 c 0
 126 439 135 447 146 447 c 0
 157 447 166 438 166 427 c 0x88
 166 408 159 280 159 279 c 1
 175 283 191 286 211 286 c 0
 218 286 225 286 233 285 c 0
 243 284 251 275 251 265 c 0
 251 254 242 245 231 245 c 0
 228 245 222 246 211 246 c 0
 192 246 180 243 154 236 c 1x50
 152 218 144 160 137 144 c 0
 131 131 126 102 126 77 c 0x60
 126 70 126 55 129 44 c 1
 132 47 141 54 157 79 c 0
 161 84 167 88 174 88 c 0
 185 88 194 79 194 68 c 0
 194 64 193 60 191 57 c 0
 162 13 143 -1 126 -1 c 0x48
 110 -1 86 12 86 77 c 0x60
 86 107 90 139 101 162 c 0
 106 177 112 222 113 227 c 1
 96 224 77 222 54 222 c 0
 51 222 48 222 45 222 c 0
 34 222 25 231 25 242 c 0
 25 253 34 262 45 262 c 0x90
EndSplineSet
Validated: 513
PairPos2: "kernGPOS-1" ~ dx=0 dy=0 dh=0 dv=0 dx=0 dy=0 dh=0 dv=0
PairPos2: "kernGPOS-1" } dx=0 dy=0 dh=0 dv=0 dx=0 dy=0 dh=0 dv=0
PairPos2: "kernGPOS-1" | dx=0 dy=0 dh=0 dv=0 dx=0 dy=0 dh=0 dv=0
PairPos2: "kernGPOS-1" { dx=0 dy=0 dh=0 dv=0 dx=0 dy=0 dh=0 dv=0
PairPos2: "kernGPOS-1" ` dx=0 dy=0 dh=0 dv=0 dx=0 dy=0 dh=0 dv=0
PairPos2: "kernGPOS-1" _ dx=0 dy=0 dh=0 dv=0 dx=0 dy=0 dh=0 dv=0
PairPos2: "kernGPOS-1" ] dx=0 dy=0 dh=0 dv=0 dx=0 dy=0 dh=0 dv=0
PairPos2: "kernGPOS-1" \ dx=0 dy=0 dh=0 dv=0 dx=0 dy=0 dh=0 dv=0
PairPos2: "kernGPOS-1" [ dx=0 dy=0 dh=0 dv=0 dx=0 dy=0 dh=0 dv=0
PairPos2: "kernGPOS-1" ? dx=0 dy=0 dh=0 dv=0 dx=0 dy=0 dh=0 dv=0
PairPos2: "kernGPOS-1" > dx=0 dy=0 dh=0 dv=0 dx=0 dy=0 dh=0 dv=0
PairPos2: "kernGPOS-1" = dx=0 dy=0 dh=0 dv=0 dx=0 dy=0 dh=0 dv=0
PairPos2: "kernGPOS-1" < dx=0 dy=0 dh=0 dv=0 dx=0 dy=0 dh=0 dv=0
PairPos2: "kernGPOS-1" ; dx=0 dy=0 dh=0 dv=0 dx=0 dy=0 dh=0 dv=0
PairPos2: "kernGPOS-1" 8 dx=0 dy=0 dh=0 dv=0 dx=0 dy=0 dh=0 dv=0
PairPos2: "kernGPOS-1" 7 dx=0 dy=0 dh=0 dv=0 dx=0 dy=0 dh=0 dv=0
PairPos2: "kernGPOS-1" 6 dx=0 dy=0 dh=0 dv=0 dx=0 dy=0 dh=0 dv=0
PairPos2: "kernGPOS-1" 5 dx=0 dy=0 dh=0 dv=0 dx=0 dy=0 dh=0 dv=0
PairPos2: "kernGPOS-1" 3 dx=0 dy=0 dh=0 dv=0 dx=0 dy=0 dh=0 dv=0
PairPos2: "kernGPOS-1" 2 dx=0 dy=0 dh=0 dv=0 dx=0 dy=0 dh=0 dv=0
PairPos2: "kernGPOS-1" 1 dx=0 dy=0 dh=0 dv=0 dx=0 dy=0 dh=0 dv=0
PairPos2: "kernGPOS-1" / dx=0 dy=0 dh=0 dv=0 dx=0 dy=0 dh=0 dv=0
PairPos2: "kernGPOS-1" . dx=0 dy=0 dh=0 dv=0 dx=0 dy=0 dh=0 dv=0
PairPos2: "kernGPOS-1" - dx=0 dy=0 dh=0 dv=0 dx=0 dy=0 dh=0 dv=0
PairPos2: "kernGPOS-1" , dx=0 dy=0 dh=0 dv=0 dx=0 dy=0 dh=0 dv=0
PairPos2: "kernGPOS-1" + dx=0 dy=0 dh=0 dv=0 dx=0 dy=0 dh=0 dv=0
PairPos2: "kernGPOS-1" ) dx=0 dy=0 dh=0 dv=0 dx=0 dy=0 dh=0 dv=0
PairPos2: "kernGPOS-1" & dx=0 dy=0 dh=0 dv=0 dx=0 dy=0 dh=0 dv=0
PairPos2: "kernGPOS-1" $ dx=0 dy=0 dh=0 dv=0 dx=0 dy=0 dh=0 dv=0
PairPos2: "kernGPOS-1" ! dx=0 dy=0 dh=0 dv=0 dx=0 dy=0 dh=0 dv=0
EndChar

StartChar: u
Encoding: 117 117 89
Width: 259
Flags: W
HStem: 1 40<65.8638 106.348> 233 20G<47.5 58.5>
VStem: 25 40<41.0925 230.488> 33 40<75.468 252.993> 171 40<0.00656509 88.0603>
LayerCount: 2
Fore
SplineSet
82 1 m 0xe8
 62 1 25 13 25 75 c 0xe8
 25 85 26 94 27 103 c 0
 33 153 33 178 33 231 c 0
 33 232 33 232 33 233 c 0
 33 244 42 253 53 253 c 0
 64 253 73 244 73 233 c 0xd8
 73 179 73 151 67 99 c 0
 66 91 65 82 65 75 c 0
 65 66 65 41 82 41 c 0
 93 41 108 61 122 81 c 0
 125 85 128 89 131 93 c 0
 144 111 156 152 173 187 c 0
 182 206 190 232 197 241 c 0
 200 245 205 250 213 250 c 1
 213 250 234 249 234 226 c 0
 234 205 224 145 223 138 c 0
 217 102 211 69 211 20 c 0
 211 9 202 0 191 0 c 0
 180 0 171 9 171 20 c 0
 171 46 173 69 175 89 c 1
 170 79 170 79 155 58 c 0
 136 31 115 1 82 1 c 0xe8
EndSplineSet
Validated: 513
PairPos2: "kernGPOS-1" } dx=0 dy=0 dh=0 dv=0 dx=0 dy=0 dh=0 dv=0
PairPos2: "kernGPOS-1" | dx=0 dy=0 dh=0 dv=0 dx=0 dy=0 dh=0 dv=0
PairPos2: "kernGPOS-1" { dx=0 dy=0 dh=0 dv=0 dx=0 dy=0 dh=0 dv=0
PairPos2: "kernGPOS-1" ` dx=0 dy=0 dh=0 dv=0 dx=0 dy=0 dh=0 dv=0
PairPos2: "kernGPOS-1" _ dx=0 dy=0 dh=0 dv=0 dx=0 dy=0 dh=0 dv=0
PairPos2: "kernGPOS-1" ] dx=0 dy=0 dh=0 dv=0 dx=0 dy=0 dh=0 dv=0
PairPos2: "kernGPOS-1" \ dx=0 dy=0 dh=0 dv=0 dx=0 dy=0 dh=0 dv=0
PairPos2: "kernGPOS-1" ? dx=0 dy=0 dh=0 dv=0 dx=0 dy=0 dh=0 dv=0
PairPos2: "kernGPOS-1" > dx=0 dy=0 dh=0 dv=0 dx=0 dy=0 dh=0 dv=0
PairPos2: "kernGPOS-1" = dx=0 dy=0 dh=0 dv=0 dx=0 dy=0 dh=0 dv=0
PairPos2: "kernGPOS-1" ; dx=0 dy=0 dh=0 dv=0 dx=0 dy=0 dh=0 dv=0
PairPos2: "kernGPOS-1" 8 dx=0 dy=0 dh=0 dv=0 dx=0 dy=0 dh=0 dv=0
PairPos2: "kernGPOS-1" 7 dx=0 dy=0 dh=0 dv=0 dx=0 dy=0 dh=0 dv=0
PairPos2: "kernGPOS-1" 5 dx=0 dy=0 dh=0 dv=0 dx=0 dy=0 dh=0 dv=0
PairPos2: "kernGPOS-1" 3 dx=0 dy=0 dh=0 dv=0 dx=0 dy=0 dh=0 dv=0
PairPos2: "kernGPOS-1" 2 dx=0 dy=0 dh=0 dv=0 dx=0 dy=0 dh=0 dv=0
PairPos2: "kernGPOS-1" 1 dx=0 dy=0 dh=0 dv=0 dx=0 dy=0 dh=0 dv=0
PairPos2: "kernGPOS-1" / dx=0 dy=0 dh=0 dv=0 dx=0 dy=0 dh=0 dv=0
PairPos2: "kernGPOS-1" . dx=0 dy=0 dh=0 dv=0 dx=0 dy=0 dh=0 dv=0
PairPos2: "kernGPOS-1" , dx=0 dy=0 dh=0 dv=0 dx=0 dy=0 dh=0 dv=0
PairPos2: "kernGPOS-1" * dx=0 dy=0 dh=0 dv=0 dx=0 dy=0 dh=0 dv=0
PairPos2: "kernGPOS-1" ) dx=0 dy=0 dh=0 dv=0 dx=0 dy=0 dh=0 dv=0
PairPos2: "kernGPOS-1" & dx=0 dy=0 dh=0 dv=0 dx=0 dy=0 dh=0 dv=0
PairPos2: "kernGPOS-1" $ dx=0 dy=0 dh=0 dv=0 dx=0 dy=0 dh=0 dv=0
PairPos2: "kernGPOS-1" ! dx=0 dy=0 dh=0 dv=0 dx=0 dy=0 dh=0 dv=0
EndChar

StartChar: v
Encoding: 118 118 90
Width: 247
Flags: W
HStem: 0 253
VStem: 184 38<196.678 252.974>
LayerCount: 2
Fore
SplineSet
25 233 m 0
 25 244 34 253 45 253 c 0
 52 253 57 250 61 245 c 0
 104 183 96 70 115 41 c 1
 137 67 152 176 184 242 c 0
 187 249 194 253 202 253 c 0
 213 253 222 244 222 233 c 0
 222 230 221 227 220 224 c 0
 187 156 176 44 141 11 c 0
 135 5 126 0 115 0 c 0
 92 0 80 18 74 33 c 0
 56 79 62 174 29 221 c 0
 27 224 25 229 25 233 c 0
EndSplineSet
Validated: 513
PairPos2: "kernGPOS-1" ~ dx=0 dy=0 dh=0 dv=0 dx=0 dy=0 dh=0 dv=0
PairPos2: "kernGPOS-1" } dx=0 dy=0 dh=0 dv=0 dx=0 dy=0 dh=0 dv=0
PairPos2: "kernGPOS-1" | dx=0 dy=0 dh=0 dv=0 dx=0 dy=0 dh=0 dv=0
PairPos2: "kernGPOS-1" { dx=0 dy=0 dh=0 dv=0 dx=0 dy=0 dh=0 dv=0
PairPos2: "kernGPOS-1" ` dx=0 dy=0 dh=0 dv=0 dx=0 dy=0 dh=0 dv=0
PairPos2: "kernGPOS-1" _ dx=0 dy=0 dh=0 dv=0 dx=0 dy=0 dh=0 dv=0
PairPos2: "kernGPOS-1" ] dx=0 dy=0 dh=0 dv=0 dx=0 dy=0 dh=0 dv=0
PairPos2: "kernGPOS-1" \ dx=0 dy=0 dh=0 dv=0 dx=0 dy=0 dh=0 dv=0
PairPos2: "kernGPOS-1" ? dx=0 dy=0 dh=0 dv=0 dx=0 dy=0 dh=0 dv=0
PairPos2: "kernGPOS-1" > dx=0 dy=0 dh=0 dv=0 dx=0 dy=0 dh=0 dv=0
PairPos2: "kernGPOS-1" = dx=0 dy=0 dh=0 dv=0 dx=0 dy=0 dh=0 dv=0
PairPos2: "kernGPOS-1" < dx=0 dy=0 dh=0 dv=0 dx=0 dy=0 dh=0 dv=0
PairPos2: "kernGPOS-1" ; dx=0 dy=0 dh=0 dv=0 dx=0 dy=0 dh=0 dv=0
PairPos2: "kernGPOS-1" 8 dx=0 dy=0 dh=0 dv=0 dx=0 dy=0 dh=0 dv=0
PairPos2: "kernGPOS-1" 7 dx=0 dy=0 dh=0 dv=0 dx=0 dy=0 dh=0 dv=0
PairPos2: "kernGPOS-1" 6 dx=0 dy=0 dh=0 dv=0 dx=0 dy=0 dh=0 dv=0
PairPos2: "kernGPOS-1" 5 dx=0 dy=0 dh=0 dv=0 dx=0 dy=0 dh=0 dv=0
PairPos2: "kernGPOS-1" 3 dx=0 dy=0 dh=0 dv=0 dx=0 dy=0 dh=0 dv=0
PairPos2: "kernGPOS-1" 2 dx=0 dy=0 dh=0 dv=0 dx=0 dy=0 dh=0 dv=0
PairPos2: "kernGPOS-1" 1 dx=0 dy=0 dh=0 dv=0 dx=0 dy=0 dh=0 dv=0
PairPos2: "kernGPOS-1" / dx=0 dy=0 dh=0 dv=0 dx=0 dy=0 dh=0 dv=0
PairPos2: "kernGPOS-1" . dx=0 dy=0 dh=0 dv=0 dx=0 dy=0 dh=0 dv=0
PairPos2: "kernGPOS-1" - dx=0 dy=0 dh=0 dv=0 dx=0 dy=0 dh=0 dv=0
PairPos2: "kernGPOS-1" , dx=0 dy=0 dh=0 dv=0 dx=0 dy=0 dh=0 dv=0
PairPos2: "kernGPOS-1" + dx=0 dy=0 dh=0 dv=0 dx=0 dy=0 dh=0 dv=0
PairPos2: "kernGPOS-1" * dx=0 dy=0 dh=0 dv=0 dx=0 dy=0 dh=0 dv=0
PairPos2: "kernGPOS-1" ) dx=0 dy=0 dh=0 dv=0 dx=0 dy=0 dh=0 dv=0
PairPos2: "kernGPOS-1" & dx=0 dy=0 dh=0 dv=0 dx=0 dy=0 dh=0 dv=0
PairPos2: "kernGPOS-1" $ dx=0 dy=0 dh=0 dv=0 dx=0 dy=0 dh=0 dv=0
PairPos2: "kernGPOS-1" ! dx=0 dy=0 dh=0 dv=0 dx=0 dy=0 dh=0 dv=0
EndChar

StartChar: w
Encoding: 119 119 91
Width: 420
Flags: W
HStem: 0 40<105.357 138.103> 233 20G<370.5 380.5>
LayerCount: 2
Fore
SplineSet
25 217 m 0
 25 228 34 237 45 237 c 0
 52 237 58 233 62 227 c 0
 97 170 89 103 104 63 c 0
 109 50 112 40 114 40 c 0
 115 40 127 40 134 47 c 0
 145 57 151 82 167 104 c 0
 180 122 188 137 199 148 c 0
 205 154 213 161 226 161 c 0
 227 161 227 161 228 161 c 0
 269 158 277 116 280 94 c 0
 281 86 284 67 290 54 c 1
 318 81 341 201 356 240 c 0
 359 248 366 253 375 253 c 0
 386 253 395 244 395 233 c 0
 395 230 395 228 394 226 c 0
 378 185 359 71 322 29 c 0
 316 22 303 11 287 11 c 0
 269 11 248 25 240 90 c 0
 237 112 233 119 228 121 c 1
 222 115 211 96 199 80 c 0
 184 60 180 35 160 17 c 0
 157 14 140 0 114 0 c 0
 81 0 73 31 68 44 c 0
 60 65 59 72 54 112 c 0
 50 146 45 180 28 207 c 0
 26 210 25 213 25 217 c 0
EndSplineSet
Validated: 513
PairPos2: "kernGPOS-1" ~ dx=0 dy=0 dh=0 dv=0 dx=0 dy=0 dh=0 dv=0
PairPos2: "kernGPOS-1" } dx=0 dy=0 dh=0 dv=0 dx=0 dy=0 dh=0 dv=0
PairPos2: "kernGPOS-1" | dx=0 dy=0 dh=0 dv=0 dx=0 dy=0 dh=0 dv=0
PairPos2: "kernGPOS-1" { dx=0 dy=0 dh=0 dv=0 dx=0 dy=0 dh=0 dv=0
PairPos2: "kernGPOS-1" ` dx=0 dy=0 dh=0 dv=0 dx=0 dy=0 dh=0 dv=0
PairPos2: "kernGPOS-1" _ dx=0 dy=0 dh=0 dv=0 dx=0 dy=0 dh=0 dv=0
PairPos2: "kernGPOS-1" ] dx=0 dy=0 dh=0 dv=0 dx=0 dy=0 dh=0 dv=0
PairPos2: "kernGPOS-1" \ dx=0 dy=0 dh=0 dv=0 dx=0 dy=0 dh=0 dv=0
PairPos2: "kernGPOS-1" ? dx=0 dy=0 dh=0 dv=0 dx=0 dy=0 dh=0 dv=0
PairPos2: "kernGPOS-1" > dx=0 dy=0 dh=0 dv=0 dx=0 dy=0 dh=0 dv=0
PairPos2: "kernGPOS-1" = dx=0 dy=0 dh=0 dv=0 dx=0 dy=0 dh=0 dv=0
PairPos2: "kernGPOS-1" < dx=0 dy=0 dh=0 dv=0 dx=0 dy=0 dh=0 dv=0
PairPos2: "kernGPOS-1" ; dx=0 dy=0 dh=0 dv=0 dx=0 dy=0 dh=0 dv=0
PairPos2: "kernGPOS-1" 8 dx=0 dy=0 dh=0 dv=0 dx=0 dy=0 dh=0 dv=0
PairPos2: "kernGPOS-1" 7 dx=0 dy=0 dh=0 dv=0 dx=0 dy=0 dh=0 dv=0
PairPos2: "kernGPOS-1" 6 dx=0 dy=0 dh=0 dv=0 dx=0 dy=0 dh=0 dv=0
PairPos2: "kernGPOS-1" 5 dx=0 dy=0 dh=0 dv=0 dx=0 dy=0 dh=0 dv=0
PairPos2: "kernGPOS-1" 3 dx=0 dy=0 dh=0 dv=0 dx=0 dy=0 dh=0 dv=0
PairPos2: "kernGPOS-1" 2 dx=0 dy=0 dh=0 dv=0 dx=0 dy=0 dh=0 dv=0
PairPos2: "kernGPOS-1" 1 dx=0 dy=0 dh=0 dv=0 dx=0 dy=0 dh=0 dv=0
PairPos2: "kernGPOS-1" / dx=0 dy=0 dh=0 dv=0 dx=0 dy=0 dh=0 dv=0
PairPos2: "kernGPOS-1" . dx=0 dy=0 dh=0 dv=0 dx=0 dy=0 dh=0 dv=0
PairPos2: "kernGPOS-1" - dx=0 dy=0 dh=0 dv=0 dx=0 dy=0 dh=0 dv=0
PairPos2: "kernGPOS-1" , dx=0 dy=0 dh=0 dv=0 dx=0 dy=0 dh=0 dv=0
PairPos2: "kernGPOS-1" + dx=0 dy=0 dh=0 dv=0 dx=0 dy=0 dh=0 dv=0
PairPos2: "kernGPOS-1" * dx=0 dy=0 dh=0 dv=0 dx=0 dy=0 dh=0 dv=0
PairPos2: "kernGPOS-1" ) dx=0 dy=0 dh=0 dv=0 dx=0 dy=0 dh=0 dv=0
PairPos2: "kernGPOS-1" & dx=0 dy=0 dh=0 dv=0 dx=0 dy=0 dh=0 dv=0
PairPos2: "kernGPOS-1" $ dx=0 dy=0 dh=0 dv=0 dx=0 dy=0 dh=0 dv=0
PairPos2: "kernGPOS-1" ! dx=0 dy=0 dh=0 dv=0 dx=0 dy=0 dh=0 dv=0
EndChar

StartChar: x
Encoding: 120 120 92
Width: 250
Flags: W
HStem: 0 253
VStem: 181 39<4.01459 53.2145 193.034 252.429>
LayerCount: 2
Fore
SplineSet
225 233 m 0
 225 218 218 196 158 122 c 1
 183 96 207 65 219 30 c 0
 220 28 220 26 220 24 c 0
 220 13 211 4 200 4 c 0
 191 4 184 9 181 17 c 0
 172 42 154 67 132 91 c 1
 131 90 71 20 60 7 c 0
 56 3 51 0 45 0 c 0
 34 0 25 9 25 20 c 0
 25 25 27 30 30 33 c 0
 40 45 103 119 104 120 c 1
 67 157 45 179 31 210 c 0
 30 213 29 215 29 218 c 0
 29 229 38 238 49 238 c 0
 57 238 64 233 67 226 c 0
 77 203 103 179 130 151 c 1
 145 169 182 217 185 233 c 0
 185 244 194 253 205 253 c 0
 215 253 225 245 225 233 c 0
EndSplineSet
Validated: 513
PairPos2: "kernGPOS-1" ~ dx=0 dy=0 dh=0 dv=0 dx=0 dy=0 dh=0 dv=0
PairPos2: "kernGPOS-1" } dx=0 dy=0 dh=0 dv=0 dx=0 dy=0 dh=0 dv=0
PairPos2: "kernGPOS-1" | dx=0 dy=0 dh=0 dv=0 dx=0 dy=0 dh=0 dv=0
PairPos2: "kernGPOS-1" { dx=0 dy=0 dh=0 dv=0 dx=0 dy=0 dh=0 dv=0
PairPos2: "kernGPOS-1" ` dx=0 dy=0 dh=0 dv=0 dx=0 dy=0 dh=0 dv=0
PairPos2: "kernGPOS-1" _ dx=0 dy=0 dh=0 dv=0 dx=0 dy=0 dh=0 dv=0
PairPos2: "kernGPOS-1" ] dx=0 dy=0 dh=0 dv=0 dx=0 dy=0 dh=0 dv=0
PairPos2: "kernGPOS-1" \ dx=0 dy=0 dh=0 dv=0 dx=0 dy=0 dh=0 dv=0
PairPos2: "kernGPOS-1" ? dx=0 dy=0 dh=0 dv=0 dx=0 dy=0 dh=0 dv=0
PairPos2: "kernGPOS-1" > dx=0 dy=0 dh=0 dv=0 dx=0 dy=0 dh=0 dv=0
PairPos2: "kernGPOS-1" = dx=0 dy=0 dh=0 dv=0 dx=0 dy=0 dh=0 dv=0
PairPos2: "kernGPOS-1" ; dx=0 dy=0 dh=0 dv=0 dx=0 dy=0 dh=0 dv=0
PairPos2: "kernGPOS-1" 8 dx=0 dy=0 dh=0 dv=0 dx=0 dy=0 dh=0 dv=0
PairPos2: "kernGPOS-1" 7 dx=0 dy=0 dh=0 dv=0 dx=0 dy=0 dh=0 dv=0
PairPos2: "kernGPOS-1" 6 dx=0 dy=0 dh=0 dv=0 dx=0 dy=0 dh=0 dv=0
PairPos2: "kernGPOS-1" 5 dx=0 dy=0 dh=0 dv=0 dx=0 dy=0 dh=0 dv=0
PairPos2: "kernGPOS-1" 3 dx=0 dy=0 dh=0 dv=0 dx=0 dy=0 dh=0 dv=0
PairPos2: "kernGPOS-1" 2 dx=0 dy=0 dh=0 dv=0 dx=0 dy=0 dh=0 dv=0
PairPos2: "kernGPOS-1" 1 dx=0 dy=0 dh=0 dv=0 dx=0 dy=0 dh=0 dv=0
PairPos2: "kernGPOS-1" / dx=0 dy=0 dh=0 dv=0 dx=0 dy=0 dh=0 dv=0
PairPos2: "kernGPOS-1" . dx=0 dy=0 dh=0 dv=0 dx=0 dy=0 dh=0 dv=0
PairPos2: "kernGPOS-1" - dx=0 dy=0 dh=0 dv=0 dx=0 dy=0 dh=0 dv=0
PairPos2: "kernGPOS-1" , dx=0 dy=0 dh=0 dv=0 dx=0 dy=0 dh=0 dv=0
PairPos2: "kernGPOS-1" + dx=0 dy=0 dh=0 dv=0 dx=0 dy=0 dh=0 dv=0
PairPos2: "kernGPOS-1" * dx=0 dy=0 dh=0 dv=0 dx=0 dy=0 dh=0 dv=0
PairPos2: "kernGPOS-1" ) dx=0 dy=0 dh=0 dv=0 dx=0 dy=0 dh=0 dv=0
PairPos2: "kernGPOS-1" & dx=0 dy=0 dh=0 dv=0 dx=0 dy=0 dh=0 dv=0
PairPos2: "kernGPOS-1" $ dx=0 dy=0 dh=0 dv=0 dx=0 dy=0 dh=0 dv=0
PairPos2: "kernGPOS-1" ! dx=0 dy=0 dh=0 dv=0 dx=0 dy=0 dh=0 dv=0
EndChar

StartChar: y
Encoding: 121 121 93
Width: 369
Flags: W
HStem: -230 40<102.458 216.777> -1 40<195.977 210> 233 20G<173.5 184.5>
VStem: 25 38<-145.281 -98.0326> 144 40<44.1706 238.551> 309 35<149.269 244.822>
LayerCount: 2
Fore
SplineSet
324 245 m 0
 337 245 344 235 344 225 c 0
 344 210 341 204 333 134 c 0
 322 43 318 23 303 -52 c 0
 292 -106 283 -152 263 -178 c 0
 243 -204 221 -230 169 -230 c 0
 83 -230 51 -183 27 -126 c 0
 26 -124 25 -121 25 -118 c 0
 25 -107 34 -98 45 -98 c 0
 53 -98 60 -103 63 -110 c 0
 86 -164 109 -190 169 -190 c 0
 200 -190 211 -180 231 -154 c 0
 246 -134 256 -84 264 -44 c 0
 274 7 274 7 278 28 c 1
 254 5 216 -1 210 -1 c 0
 195 -1 183 7 175 16 c 0
 159 34 151 58 148 77 c 0
 145 93 144 107 144 120 c 0
 144 161 156 186 159 234 c 0
 160 244 168 253 179 253 c 0
 190 253 199 244 199 233 c 0
 199 203 184 154 184 120 c 0
 184 72 203 39 210 39 c 2
 210 39 234 45 247 55 c 0
 256 62 264 73 276 99 c 0
 286 119 288 131 292 151 c 0
 297 175 297 175 298 178 c 0
 305 233 304 234 309 239 c 0
 311 241 315 245 324 245 c 0
EndSplineSet
Validated: 513
PairPos2: "kernGPOS-1" } dx=0 dy=0 dh=0 dv=0 dx=0 dy=0 dh=0 dv=0
PairPos2: "kernGPOS-1" | dx=0 dy=0 dh=0 dv=0 dx=0 dy=0 dh=0 dv=0
PairPos2: "kernGPOS-1" { dx=0 dy=0 dh=0 dv=0 dx=0 dy=0 dh=0 dv=0
PairPos2: "kernGPOS-1" ` dx=0 dy=0 dh=0 dv=0 dx=0 dy=0 dh=0 dv=0
PairPos2: "kernGPOS-1" _ dx=0 dy=0 dh=0 dv=0 dx=0 dy=0 dh=0 dv=0
PairPos2: "kernGPOS-1" ] dx=0 dy=0 dh=0 dv=0 dx=0 dy=0 dh=0 dv=0
PairPos2: "kernGPOS-1" \ dx=0 dy=0 dh=0 dv=0 dx=0 dy=0 dh=0 dv=0
PairPos2: "kernGPOS-1" ? dx=0 dy=0 dh=0 dv=0 dx=0 dy=0 dh=0 dv=0
PairPos2: "kernGPOS-1" > dx=0 dy=0 dh=0 dv=0 dx=0 dy=0 dh=0 dv=0
PairPos2: "kernGPOS-1" = dx=0 dy=0 dh=0 dv=0 dx=0 dy=0 dh=0 dv=0
PairPos2: "kernGPOS-1" ; dx=0 dy=0 dh=0 dv=0 dx=0 dy=0 dh=0 dv=0
PairPos2: "kernGPOS-1" 8 dx=0 dy=0 dh=0 dv=0 dx=0 dy=0 dh=0 dv=0
PairPos2: "kernGPOS-1" 7 dx=0 dy=0 dh=0 dv=0 dx=0 dy=0 dh=0 dv=0
PairPos2: "kernGPOS-1" 5 dx=0 dy=0 dh=0 dv=0 dx=0 dy=0 dh=0 dv=0
PairPos2: "kernGPOS-1" 3 dx=0 dy=0 dh=0 dv=0 dx=0 dy=0 dh=0 dv=0
PairPos2: "kernGPOS-1" 2 dx=0 dy=0 dh=0 dv=0 dx=0 dy=0 dh=0 dv=0
PairPos2: "kernGPOS-1" 1 dx=0 dy=0 dh=0 dv=0 dx=0 dy=0 dh=0 dv=0
PairPos2: "kernGPOS-1" / dx=0 dy=0 dh=0 dv=0 dx=0 dy=0 dh=0 dv=0
PairPos2: "kernGPOS-1" . dx=0 dy=0 dh=0 dv=0 dx=0 dy=0 dh=0 dv=0
PairPos2: "kernGPOS-1" , dx=0 dy=0 dh=0 dv=0 dx=0 dy=0 dh=0 dv=0
PairPos2: "kernGPOS-1" * dx=0 dy=0 dh=0 dv=0 dx=0 dy=0 dh=0 dv=0
PairPos2: "kernGPOS-1" ) dx=0 dy=0 dh=0 dv=0 dx=0 dy=0 dh=0 dv=0
PairPos2: "kernGPOS-1" ' dx=0 dy=0 dh=0 dv=0 dx=0 dy=0 dh=0 dv=0
PairPos2: "kernGPOS-1" & dx=0 dy=0 dh=0 dv=0 dx=0 dy=0 dh=0 dv=0
PairPos2: "kernGPOS-1" $ dx=0 dy=0 dh=0 dv=0 dx=0 dy=0 dh=0 dv=0
PairPos2: "kernGPOS-1" " dx=0 dy=0 dh=0 dv=0 dx=0 dy=0 dh=0 dv=0
PairPos2: "kernGPOS-1" ! dx=0 dy=0 dh=0 dv=0 dx=0 dy=0 dh=0 dv=0
EndChar

StartChar: z
Encoding: 122 122 94
Width: 261
Flags: W
HStem: 212 41<95.7274 172>
VStem: 25 211
LayerCount: 2
Fore
SplineSet
49 -1 m 2
 25 -1 25 22 25 24 c 0
 25 42 42 59 72 90 c 0
 88 106 103 123 114 137 c 0
 121 146 129 156 137 165 c 0
 155 186 165 200 172 212 c 1
 171 212 114 203 61 179 c 0
 58 178 56 177 53 177 c 0
 42 177 33 186 33 197 c 0
 33 205 38 212 45 215 c 0
 73 228 106 238 133 245 c 0
 155 250 172 253 185 253 c 0
 196 253 200 250 204 247 c 0
 212 240 216 231 216 222 c 0
 216 200 200 178 168 140 c 0
 160 131 153 121 147 113 c 0
 134 95 116 78 100 62 c 0
 93 55 87 49 82 43 c 1
 121 49 176 61 210 72 c 0
 212 73 214 73 216 73 c 0
 227 73 236 64 236 53 c 0
 236 44 230 37 222 34 c 0
 168 16 74 -1 50 -1 c 2
 49 -1 l 2
EndSplineSet
Validated: 513
PairPos2: "kernGPOS-1" } dx=0 dy=0 dh=0 dv=0 dx=0 dy=0 dh=0 dv=0
PairPos2: "kernGPOS-1" ` dx=0 dy=0 dh=0 dv=0 dx=0 dy=0 dh=0 dv=0
PairPos2: "kernGPOS-1" ^ dx=0 dy=0 dh=0 dv=0 dx=0 dy=0 dh=0 dv=0
PairPos2: "kernGPOS-1" ] dx=0 dy=0 dh=0 dv=0 dx=0 dy=0 dh=0 dv=0
PairPos2: "kernGPOS-1" \ dx=0 dy=0 dh=0 dv=0 dx=0 dy=0 dh=0 dv=0
PairPos2: "kernGPOS-1" @ dx=0 dy=0 dh=0 dv=0 dx=0 dy=0 dh=0 dv=0
PairPos2: "kernGPOS-1" ; dx=0 dy=0 dh=0 dv=0 dx=0 dy=0 dh=0 dv=0
PairPos2: "kernGPOS-1" 9 dx=0 dy=0 dh=0 dv=0 dx=0 dy=0 dh=0 dv=0
PairPos2: "kernGPOS-1" 7 dx=0 dy=0 dh=0 dv=0 dx=0 dy=0 dh=0 dv=0
PairPos2: "kernGPOS-1" 4 dx=0 dy=0 dh=0 dv=0 dx=0 dy=0 dh=0 dv=0
PairPos2: "kernGPOS-1" , dx=0 dy=0 dh=0 dv=0 dx=0 dy=0 dh=0 dv=0
PairPos2: "kernGPOS-1" * dx=0 dy=0 dh=0 dv=0 dx=0 dy=0 dh=0 dv=0
PairPos2: "kernGPOS-1" ) dx=0 dy=0 dh=0 dv=0 dx=0 dy=0 dh=0 dv=0
PairPos2: "kernGPOS-1" ' dx=0 dy=0 dh=0 dv=0 dx=0 dy=0 dh=0 dv=0
PairPos2: "kernGPOS-1" % dx=0 dy=0 dh=0 dv=0 dx=0 dy=0 dh=0 dv=0
PairPos2: "kernGPOS-1" # dx=0 dy=0 dh=0 dv=0 dx=0 dy=0 dh=0 dv=0
PairPos2: "kernGPOS-1" " dx=0 dy=0 dh=0 dv=0 dx=0 dy=0 dh=0 dv=0
EndChar

StartChar: cent
Encoding: 162 162 96
Width: 239
Flags: W
HStem: 125 40<67.3989 91> 350 40<157.376 206.993> 447 20G<130.5 141.5>
VStem: 25 40<207 263.976> 82 40<0.00656509 123.592> 117 90<350.668 385.72> 117 40<176.962 310 386 466.941>
LayerCount: 2
Fore
SplineSet
65 207 m 1xf2
 65 207 65 165 81 165 c 0
 85 165 89 165 93 165 c 0
 95 165 97 165 99 165 c 0
 102 178 111 220 111 221 c 0
 114 235 116 270 117 310 c 1
 112 303 112 304 90 272 c 0
 72 247 65 236 65 207 c 1xf2
157 386 m 1
 158 386 172 390 187 390 c 0
 198 390 207 381 207 370 c 0xf4
 207 359 198 350 187 350 c 0
 175 350 165 348 157 345 c 1xf2
 157 290 157 239 151 213 c 0
 150 209 142 176 142 176 c 1
 153 183 165 196 177 214 c 0
 181 219 187 223 194 223 c 0
 205 223 214 214 214 203 c 0
 214 199 213 195 211 192 c 0
 186 155 163 136 132 129 c 1
 126 97 122 63 122 30 c 0
 122 27 122 24 122 21 c 2
 122 20 l 2
 122 9 113 0 102 0 c 0
 91 0 82 8 82 19 c 0
 82 22 82 27 82 30 c 0xf8
 82 63 86 95 91 125 c 1
 76 125 60 125 45 142 c 0
 38 150 25 170 25 207 c 0
 25 249 39 268 57 295 c 0
 60 299 62 303 65 307 c 0
 83 334 99 353 117 367 c 1xf4
 117 395 117 422 116 446 c 2
 116 447 l 2
 116 458 125 467 136 467 c 0
 147 467 156 459 156 448 c 0
 156 429 157 407 157 386 c 1
EndSplineSet
Validated: 1
EndChar

StartChar: yen
Encoding: 165 165 97
Width: 297
Flags: W
HStem: 129 40<135.6 237.438> 199 40<39.0066 96.9746 139 251.854> 206 40<143.622 271.993> 447 20G<43.5 51.5>
VStem: 94 40<36.6679 114 162 200 242 277.242>
LayerCount: 2
Fore
SplineSet
97 200 m 1xb8
 97 200 62 199 59 199 c 0
 48 199 39 208 39 219 c 0
 39 230 48 239 59 239 c 0xd8
 74 239 86 240 98 240 c 1
 99 257 100 273 101 288 c 1
 71 319 74 396 35 433 c 0
 31 437 29 441 29 447 c 0
 29 458 38 467 49 467 c 0
 54 467 59 464 63 461 c 0
 106 419 109 355 124 324 c 0
 129 313 132 314 135 314 c 0
 147 314 158 334 174 369 c 0
 188 399 203 436 234 458 c 0
 237 460 241 461 245 461 c 0
 256 461 265 452 265 441 c 0
 265 434 262 429 257 425 c 0
 210 391 202 280 140 274 c 1
 140 264 140 253 139 242 c 1
 239 246 249 246 252 246 c 0
 263 246 272 237 272 226 c 0
 272 215 264 206 253 206 c 0
 218 205 218 205 137 202 c 1
 136 189 135 175 135 162 c 1
 158 166 179 169 203 169 c 0
 214 169 226 168 238 167 c 0
 248 166 255 157 255 147 c 0
 255 136 246 127 235 127 c 2
 235 127 219 129 203 129 c 0
 180 129 158 126 134 122 c 1
 134 116 134 110 134 105 c 0
 134 80 134 50 139 36 c 0
 144 32 147 26 147 20 c 0
 147 9 138 0 127 0 c 0
 97 0 94 48 94 105 c 0
 94 108 94 111 94 114 c 1
 94 114 51 107 45 107 c 0
 34 107 25 116 25 127 c 0
 25 137 32 146 42 147 c 0
 61 150 78 152 95 155 c 1
 95 170 96 185 97 200 c 1xb8
EndSplineSet
Validated: 1
EndChar

StartChar: section
Encoding: 167 167 98
Width: 254
Flags: W
HStem: 0 40<58.5479 167.205> 137 40<31.0066 55> 427 40<130.657 208.988 209 228.941>
VStem: 76 40<333.148 410.155> 175 40<54.7017 88.6951> 183 40<206.143 228 228.014 270.078>
LayerCount: 2
Fore
SplineSet
183 251 m 0xf4
 183 256 184 261 171 271 c 1
 152 250 128 230 110 207 c 0
 101 195 97 185 96 180 c 1
 129 183 166 197 174 206 c 0
 177 209 180 215 181 228 c 2
 181 228 183 247 183 251 c 0xf4
73 138 m 1
 73 138 52 137 51 137 c 0
 40 137 31 146 31 157 c 0
 31 168 40 176 50 177 c 0
 52 177 53 177 55 177 c 1
 55 212 90 248 119 276 c 0
 124 281 129 285 133 289 c 1
 117 296 98 306 88 327 c 0
 80 342 76 358 76 374 c 0
 76 396 84 419 100 436 c 0
 124 462 155 467 183 467 c 0
 192 467 201 466 210 466 c 0
 221 465 229 457 229 446 c 0
 229 435 220 426 209 426 c 2
 209 426 193 427 183 427 c 0
 159 427 144 423 130 408 c 0
 121 398 116 386 116 374 c 0
 116 365 119 355 124 345 c 0
 132 328 164 322 182 311 c 0
 207 296 223 279 223 251 c 0xf4
 223 244 223 238 222 233 c 0
 219 209 218 195 205 180 c 0
 193 166 178 160 163 155 c 0
 153 151 144 149 135 147 c 1
 183 121 215 102 215 68 c 0
 215 46 200 32 186 24 c 0
 168 14 146 10 128 6 c 0
 105 1 105 0 96 0 c 0
 71 0 49 12 31 31 c 0
 28 35 25 40 25 45 c 0
 25 56 34 65 45 65 c 0
 51 65 55 63 59 59 c 0
 72 45 85 40 96 40 c 0
 102 40 175 54 175 68 c 0xf8
 175 80 141 99 114 113 c 0
 90 126 82 129 73 138 c 1
EndSplineSet
Validated: 1
EndChar

StartChar: copyright
Encoding: 169 169 99
Width: 790
Flags: W
HStem: -220 40<287.559 502.82> 0 40<343.704 429.252> 233 20G<421 427.5> 480 40<287.559 502.82>
VStem: 25 40<42.1796 257.441> 301 40<41.6227 148.913> 725 40<42.5588 257.82>
LayerCount: 2
Fore
SplineSet
395 520 m 0
 599 520 765 354 765 150 c 0
 765 -53 599 -220 395 -220 c 0
 192 -220 25 -54 25 150 c 0
 25 353 192 520 395 520 c 0
395 480 m 0
 214 480 65 331 65 150 c 0
 65 -32 214 -180 395 -180 c 0
 577 -180 725 -31 725 150 c 0
 725 332 577 480 395 480 c 0
341 77 m 0
 341 49 352 40 372 40 c 0
 401 40 437 61 447 74 c 0
 451 79 456 82 462 82 c 0
 473 82 482 73 482 62 c 0
 482 57 481 53 478 50 c 0
 460 27 414 0 372 0 c 0
 363 0 354 1 346 4 c 0
 311 15 301 49 301 77 c 0
 301 93 304 109 308 123 c 0
 325 185 356 232 416 252 c 0
 418 253 420 253 422 253 c 0
 433 253 442 244 442 233 c 0
 442 224 437 217 429 214 c 0
 385 200 363 168 347 112 c 0
 344 101 341 88 341 77 c 0
EndSplineSet
Validated: 1
EndChar

StartChar: ordfeminine
Encoding: 170 170 100
Width: 177
Flags: W
HStem: 276 40<78.6358 97>
VStem: 25 40<211 267.727> 97 43<259.012 276> 112 40<172.007 202.422>
LayerCount: 2
Fore
SplineSet
65 216 m 0xe0
 65 214 65 212 65 211 c 1
 66 211 67 210 67 210 c 2
 69 212 69 212 76 223 c 0
 86 238 88 244 92 259 c 2
 92 259 97 275 97 276 c 1
 96 276 96 276 96 276 c 2
 90 276 87 273 78 256 c 0
 76 253 74 250 72 246 c 0
 68 238 65 225 65 216 c 0xe0
143 305 m 0
 143 296 140 294 140 278 c 0xe0
 140 253 152 219 152 192 c 0
 152 181 143 172 132 172 c 0
 121 172 112 180 112 191 c 0xd0
 112 195 111 199 111 203 c 1
 99 185 90 170 68 170 c 0
 55 170 25 175 25 216 c 0
 25 223 26 246 38 266 c 0
 40 269 41 272 43 275 c 0
 50 289 64 316 96 316 c 0
 99 316 102 315 105 315 c 0
 107 318 113 325 123 325 c 0
 133 325 143 317 143 305 c 0
EndSplineSet
Validated: 1
EndChar

StartChar: logicalnot
Encoding: 172 172 101
Width: 344
Flags: W
HStem: 159 40<25.0586 275>
VStem: 275 40<52.5165 158>
LayerCount: 2
Fore
SplineSet
208 159 m 0
 206 159 60 158 45 158 c 0
 34 158 25 167 25 178 c 0
 25 189 34 198 45 198 c 0
 59 198 206 199 208 199 c 0
 233 199 257 199 281 198 c 0
 289 198 307 194 313 167 c 0
 315 157 315 148 315 138 c 2
 315 138 315 116 315 115 c 0
 315 101 315 87 318 77 c 0
 318 75 319 74 319 72 c 0
 319 61 310 52 299 52 c 0
 290 52 282 58 280 67 c 0
 276 83 275 100 275 115 c 0
 275 123 275 131 275 138 c 0
 275 147 275 154 274 158 c 0
 252 159 230 159 208 159 c 0
EndSplineSet
Validated: 1
EndChar

StartChar: registered
Encoding: 174 174 102
Width: 790
Flags: W
HStem: -220 40<287.559 502.82> 321 40<350 475.9> 480 40<287.559 502.82>
VStem: 25 40<42.1796 257.441> 269 40<-91.8385 97.9375> 311 39<177.158 318> 480 40<264.522 314.434> 725 40<42.5588 257.82>
LayerCount: 2
Fore
SplineSet
395 520 m 0
 599 520 765 354 765 150 c 0
 765 -53 599 -220 395 -220 c 0
 192 -220 25 -54 25 150 c 0
 25 353 192 520 395 520 c 0
395 480 m 0
 214 480 65 331 65 150 c 0
 65 -32 214 -180 395 -180 c 0
 577 -180 725 -31 725 150 c 0
 725 332 577 480 395 480 c 0
476 312 m 0
 474 313 463 321 415 321 c 0
 394 321 371 319 350 318 c 1
 348 269 341 221 334 175 c 1
 397 200 413 216 470 273 c 0
 476 279 480 290 480 299 c 0
 480 305 479 309 476 312 c 0
309 -31 m 0
 309 -55 311 -70 311 -72 c 0
 311 -83 302 -92 291 -92 c 0
 280 -92 272 -84 271 -74 c 0
 270 -60 269 -45 269 -31 c 0
 269 23 277 74 285 126 c 0
 284 129 283 133 283 136 c 0
 283 142 286 148 290 154 c 0
 301 220 311 285 311 351 c 0
 311 352 311 354 311 355 c 0
 311 366 320 375 331 375 c 0
 341 375 349 367 351 358 c 1
 371 359 394 361 415 361 c 0
 475 361 495 351 506 338 c 0
 516 326 520 312 520 299 c 0
 520 279 512 259 498 245 c 0
 454 201 440 186 411 168 c 0
 392 156 369 146 340 135 c 1
 428 89 483 39 536 -30 c 0
 539 -33 540 -37 540 -42 c 0
 540 -53 531 -62 520 -62 c 0
 514 -62 508 -59 504 -54 c 0
 454 11 404 57 321 100 c 1
 314 56 309 12 309 -31 c 0
EndSplineSet
Validated: 1
EndChar

StartChar: macron
Encoding: 175 175 103
Width: 335
Flags: W
HStem: 508 40<25.0066 309.486>
VStem: 25 285<512.28 547.72>
LayerCount: 2
Fore
SplineSet
45 508 m 0
 34 508 25 517 25 528 c 0
 25 539 34 548 45 548 c 0
 47 548 288 552 290 552 c 0
 301 552 310 543 310 532 c 0
 310 521 301 512 290 512 c 0
 288 512 47 508 45 508 c 0
EndSplineSet
Validated: 1
EndChar

StartChar: degree
Encoding: 176 176 104
Width: 242
Flags: W
HStem: 228 40<77.7106 140.892> 359 40<70.1219 174.9>
VStem: 25 40<281.085 352.697> 177 40<299.349 355.715>
LayerCount: 2
Fore
SplineSet
143 399 m 0
 160 399 217 399 217 346 c 0
 217 308 186 263 159 241 c 0
 148 232 133 228 119 228 c 0
 87 228 51 246 32 283 c 0
 27 294 25 306 25 318 c 0
 25 358 47 388 77 393 c 0
 97 397 121 399 143 399 c 0
175 354 m 0
 173 356 163 359 143 359 c 0
 125 359 102 356 83 353 c 0
 68 350 65 328 65 318 c 0
 65 311 66 304 68 301 c 0
 79 279 102 268 119 268 c 0
 126 268 131 269 133 271 c 0
 155 289 177 326 177 346 c 0
 177 351 176 353 175 354 c 0
EndSplineSet
Validated: 1
EndChar

StartChar: plusminus
Encoding: 177 177 105
Width: 316
Flags: W
HStem: -12 40<42.1056 270.459> 172 40<49.1615 156.249> 212 38<210.959 264.967>
VStem: 151 40<70.0066 175.207> 157 45<91.4978 177 233.194 308.097>
LayerCount: 2
Fore
SplineSet
140 28 m 0x80
 183 28 254 40 271 40 c 0
 282 40 291 31 291 20 c 0
 291 10 283 1 273 0 c 0
 225 -4 184 -12 140 -12 c 0
 107 -12 73 -7 37 8 c 0
 30 11 25 18 25 26 c 0
 25 37 34 46 45 46 c 0
 56 46 80 28 140 28 c 0x80
162 245 m 0
 162 274 157 282 157 289 c 0
 157 300 166 309 177 309 c 0
 186 309 194 302 196 294 c 0
 201 278 202 262 202 245 c 0
 202 241 202 237 202 233 c 1xc8
 213 238 225 242 237 248 c 0
 240 249 242 250 245 250 c 0
 256 250 265 241 265 230 c 0
 265 222 260 215 253 212 c 0
 234 203 216 195 198 188 c 1
 193 140 191 120 191 90 c 0
 191 79 182 70 171 70 c 0
 160 70 151 79 151 90 c 0xb0
 151 122 154 151 157 177 c 1
 141 174 124 172 106 172 c 0
 94 172 81 172 67 174 c 0
 57 175 49 184 49 194 c 0
 49 205 58 214 69 214 c 0
 72 214 86 212 106 212 c 0xc8
 126 212 144 215 161 219 c 1
 162 228 162 237 162 245 c 0
EndSplineSet
Validated: 1
EndChar

StartChar: uni00B2
Encoding: 178 178 106
Width: 220
Flags: W
HStem: 135 40<90.0349 174.995 175 194.941> 334 40<86.555 137>
VStem: 137 40<273.972 334>
LayerCount: 2
Fore
SplineSet
54 124 m 0
 29 124 27 142 27 146 c 0
 27 157 32 163 56 191 c 0
 72 209 91 231 102 249 c 0
 105 255 108 260 111 264 c 0
 122 281 127 288 131 309 c 0
 132 316 137 327 137 334 c 1
 135 334 131 334 126 333 c 0
 101 327 91 319 69 301 c 0
 53 288 52 287 45 287 c 0
 34 287 25 296 25 307 c 0
 25 313 28 319 33 323 c 0
 37 326 40 329 44 332 c 0
 65 349 83 363 116 371 c 0
 124 373 130 374 137 374 c 0
 143 374 177 372 177 335 c 0
 177 324 174 315 172 308 c 0
 171 305 171 303 171 301 c 0
 166 274 156 258 145 242 c 0
 142 238 139 234 136 229 c 0
 123 208 104 186 89 168 c 1
 111 171 138 175 162 175 c 0
 167 175 172 174 177 174 c 0
 187 173 195 164 195 154 c 0
 195 143 186 134 175 134 c 2
 175 134 168 135 162 135 c 0
 125 135 75 124 54 124 c 0
EndSplineSet
Validated: 1
EndChar

StartChar: uni00B3
Encoding: 179 179 107
Width: 246
Flags: W
HStem: 329 40<85.4055 176.176>
VStem: 135 40<198 217.281>
LayerCount: 2
Fore
SplineSet
169 329 m 0
 143 329 93 310 85 310 c 0
 74 310 65 319 65 330 c 0
 65 339 71 347 79 349 c 0
 129 364 146 369 169 369 c 0
 209 369 221 344 221 330 c 0
 221 307 202 295 166 272 c 0
 153 264 143 257 137 251 c 1
 152 241 175 225 175 198 c 0
 175 193 172 153 143 133 c 0
 123 119 100 120 77 118 c 0
 58 117 45 115 45 115 c 2
 34 115 25 124 25 135 c 0
 25 145 33 154 43 155 c 0
 54 156 65 157 74 158 c 0
 111 160 121 163 128 174 c 0
 134 184 135 198 135 198 c 2
 135 207 113 218 103 227 c 0
 100 230 93 235 93 247 c 0
 93 272 117 288 144 305 c 0
 166 319 172 323 177 328 c 1
 175 328 173 329 169 329 c 0
EndSplineSet
Validated: 1
EndChar

StartChar: acute
Encoding: 180 180 108
Width: 146
Flags: W
HStem: 303 148
VStem: 25 38<303.033 355.17>
LayerCount: 2
Fore
SplineSet
84 441 m 1
 84 441 89 451 101 451 c 0
 112 451 121 442 121 431 c 0
 121 427 120 424 118 421 c 0
 92 378 82 358 63 315 c 0
 60 308 53 303 45 303 c 0
 34 303 25 312 25 323 c 0
 25 326 26 329 27 331 c 0
 46 374 58 398 84 441 c 1
EndSplineSet
Validated: 1
EndChar

StartChar: mu
Encoding: 181 181 109
Width: 268
Flags: W
HStem: 0 40<98.7014 168.42>
VStem: 25 40<-229.993 -23.7471> 56 41<44.3052 237.96> 203 40<106.948 250.993>
LayerCount: 2
Fore
SplineSet
97 88 m 0xb0
 97 87 97 69 97 69 c 2xb0
 97 58 99 52 99 51 c 0
 113 43 126 40 138 40 c 0
 152 40 163 45 166 47 c 0
 179 74 185 113 192 160 c 0
 195 183 198 209 203 235 c 0
 205 244 213 251 223 251 c 0
 234 251 243 242 243 231 c 0
 243 230 243 228 243 227 c 0
 238 202 234 177 231 154 c 0
 224 107 219 63 201 27 c 0
 191 6 158 0 138 0 c 0
 123 0 107 3 91 10 c 1
 88 3 89 9 87 1 c 0
 79 -32 69 -151 65 -211 c 0
 64 -221 56 -230 45 -230 c 0
 34 -230 25 -221 25 -210 c 0xd0
 25 -208 37 -31 49 13 c 0
 50 17 51 20 53 24 c 0
 56 37 57 85 57 98 c 0
 56 112 56 130 56 148 c 0
 56 149 56 215 58 222 c 0
 59 225 62 238 77 238 c 0
 91 238 97 224 97 217 c 0
 97 216 97 216 97 215 c 0
 97 207 97 201 97 165 c 0
 97 149 97 133 97 118 c 0
 97 112 97 105 97 99 c 0
 97 92 97 91 97 88 c 0xb0
EndSplineSet
Validated: 1
EndChar

StartChar: periodcentered
Encoding: 183 183 110
Width: 117
Flags: W
HStem: 98 65<29.5837 88.8244>
VStem: 25 67<101.94 158.039>
LayerCount: 2
Fore
SplineSet
63 163 m 0
 79 163 92 150 92 132 c 0
 92 109 72 98 56 98 c 0
 43 98 25 107 25 127 c 0
 25 146 42 163 63 163 c 0
EndSplineSet
Validated: 1
EndChar

StartChar: uni00B9
Encoding: 185 185 111
Width: 109
Flags: W
HStem: 119 251<44.4859 64.5141>
VStem: 25 40<119.007 339.086> 44 40<162.126 369.993>
LayerCount: 2
Fore
SplineSet
65 151 m 0xc0
 65 145 65 139 65 139 c 2
 65 128 56 119 45 119 c 0
 34 119 25 128 25 139 c 0
 25 143 25 147 25 151 c 0xc0
 25 231 43 292 44 350 c 0
 44 361 53 370 64 370 c 0
 75 370 84 361 84 350 c 0xa0
 84 296 65 227 65 151 c 0xc0
EndSplineSet
Validated: 1
EndChar

StartChar: ordmasculine
Encoding: 186 186 112
Width: 206
Flags: W
HStem: 334 40<114 126.951>
VStem: 25 40<165.43 317.009> 141 40<205.051 330.863>
LayerCount: 2
Fore
SplineSet
141 287 m 0
 141 304 138 317 127 330 c 0
 126 331 122 334 114 334 c 2
 114 334 99 333 90 327 c 1
 68 295 65 227 65 226 c 0
 65 199 79 167 90 160 c 1
 104 168 127 207 135 243 c 0
 139 260 141 275 141 287 c 0
90 120 m 0
 51 120 25 180 25 226 c 0
 25 227 26 305 58 350 c 0
 70 367 97 374 114 374 c 0
 128 374 145 370 157 356 c 0
 174 335 181 311 181 287 c 0
 181 214 135 120 90 120 c 0
EndSplineSet
Validated: 1
EndChar

StartChar: paragraph
Encoding: 182 182 113
Width: 330
Flags: W
HStem: 0 253<101 175>
VStem: 118 40<-229.993 -53.5269> 236 40<-229.437 51.5889> 265 40<20.1545 232.991 233 252.941>
LayerCount: 2
Fore
SplineSet
265 206 m 0xd0
 265 221 264 233 264 233 c 2
 264 244 273 253 284 253 c 0
 295 253 304 245 304 234 c 0
 304 225 305 215 305 206 c 0xd0
 305 85 276 -21 276 -135 c 0
 276 -180 280 -206 280 -210 c 0
 280 -221 271 -230 260 -230 c 0
 250 -230 241 -222 240 -212 c 0
 237 -186 236 -160 236 -135 c 0xe0
 236 -17 265 89 265 206 c 0xd0
147 9 m 1
 132 0 107 0 101 0 c 0
 75 0 50 11 32 34 c 0
 26 42 25 50 25 58 c 0
 25 82 40 113 52 136 c 0
 67 164 84 198 114 221 c 0
 116 223 118 225 121 227 c 0
 135 239 153 253 175 253 c 0
 199 253 217 235 230 206 c 0
 231 204 232 201 232 198 c 0
 232 188 225 179 215 178 c 1
 209 138 202 105 202 104 c 0
 185 -2 169 -100 158 -212 c 0
 157 -222 148 -230 138 -230 c 0
 127 -230 118 -221 118 -210 c 0
 118 -209 118 -209 118 -208 c 0
 126 -131 136 -61 147 9 c 1
EndSplineSet
Validated: 1
EndChar

StartChar: multiply
Encoding: 215 215 114
Width: 264
Flags: W
HStem: 0 253
VStem: 25 214
LayerCount: 2
Fore
SplineSet
50 222 m 0
 50 233 59 242 70 242 c 0
 76 242 81 239 85 235 c 0
 107 209 124 187 138 168 c 1
 143 173 148 178 153 182 c 0
 176 204 190 218 201 242 c 0
 204 249 211 253 219 253 c 0
 230 253 239 244 239 233 c 0
 239 230 238 227 237 224 c 0
 222 193 202 174 180 153 c 0
 174 147 168 142 161 135 c 1
 171 120 225 36 226 35 c 0
 228 32 229 28 229 24 c 0
 229 13 220 4 209 4 c 0
 202 4 196 8 192 13 c 0
 191 14 137 99 133 105 c 1
 113 82 90 52 62 9 c 0
 58 3 52 0 45 0 c 0
 34 0 25 9 25 20 c 0
 25 24 26 28 28 31 c 0
 59 80 87 114 110 139 c 1
 96 159 79 180 55 209 c 0
 52 212 50 217 50 222 c 0
EndSplineSet
Validated: 1
EndChar

StartChar: divide
Encoding: 247 247 115
Width: 304
Flags: W
HStem: 0 65<113.584 172.824> 113 40<25.0066 253.906> 127 40<57.1719 278.993> 218 65<124.584 183.824>
VStem: 109 67<3.94003 60.039> 120 67<221.94 278.039>
LayerCount: 2
Fore
SplineSet
247 127 m 0xb0
 180 127 137 113 64 113 c 0
 58 113 52 113 45 113 c 0
 34 113 25 122 25 133 c 0
 25 144 34 153 45 153 c 0
 46 153 53 153 64 153 c 0xd0
 134 153 177 167 247 167 c 0
 251 167 256 167 260 167 c 0
 271 167 279 158 279 147 c 0
 279 136 270 127 259 127 c 2
 259 127 253 127 247 127 c 0xb0
147 65 m 0
 163 65 176 52 176 34 c 0
 176 11 156 0 140 0 c 0
 127 0 109 9 109 29 c 0x98
 109 48 126 65 147 65 c 0
158 283 m 0
 174 283 187 270 187 252 c 0
 187 229 167 218 151 218 c 0
 138 218 120 227 120 247 c 0x94
 120 266 137 283 158 283 c 0
EndSplineSet
Validated: 1
EndChar

StartChar: Oslash
Encoding: 216 216 116
Width: 287
Flags: W
HStem: -47 40<117.312 165.731> 254 40<113.734 175>
VStem: 28 40<27.8459 198.596> 217 40<74.7913 228.66>
LayerCount: 2
Fore
SplineSet
257 194 m 0
 257 148 244 68 221 27 c 0
 200 -12 182 -47 139 -47 c 0
 128 -47 116 -44 103 -40 c 0
 102 -40 100 -39 99 -39 c 0
 87 -62 75 -83 61 -100 c 0
 57 -105 51 -108 45 -108 c 0
 34 -108 25 -99 25 -88 c 0
 25 -83 26 -79 29 -76 c 0
 42 -59 55 -38 67 -14 c 1
 43 14 28 57 28 91 c 0
 28 136 43 190 51 213 c 0
 68 262 118 294 169 294 c 0
 175 294 183 292 192 292 c 1
 203 315 214 335 226 351 c 1
 226 351 231 359 242 359 c 0
 253 359 262 350 262 339 c 0
 262 335 260 330 258 327 c 0
 247 312 237 293 227 271 c 1
 242 257 257 232 257 194 c 0
169 254 m 2
 134 254 99 232 88 200 c 0
 81 181 68 127 68 91 c 0
 68 86 68 81 68 77 c 0
 70 66 76 45 86 27 c 1
 117 98 145 184 175 254 c 1
 169 254 l 2
117 -3 m 1
 126 -6 134 -7 139 -7 c 0
 154 -7 162 3 186 47 c 0
 203 78 217 151 217 194 c 0
 217 196 217 199 217 201 c 0
 217 210 213 221 208 230 c 1
 179 159 150 70 117 -3 c 1
EndSplineSet
Validated: 1
EndChar

StartChar: oslash
Encoding: 248 248 117
Width: 287
Flags: W
HStem: -47 40<117.312 165.731> 254 40<113.734 175>
VStem: 28 40<27.8459 198.596> 217 40<74.7913 228.66>
LayerCount: 2
Fore
SplineSet
257 194 m 0
 257 148 244 68 221 27 c 0
 200 -12 182 -47 139 -47 c 0
 128 -47 116 -44 103 -40 c 0
 102 -40 100 -39 99 -39 c 0
 87 -62 75 -83 61 -100 c 0
 57 -105 51 -108 45 -108 c 0
 34 -108 25 -99 25 -88 c 0
 25 -83 26 -79 29 -76 c 0
 42 -59 55 -38 67 -14 c 1
 43 14 28 57 28 91 c 0
 28 136 43 190 51 213 c 0
 68 262 118 294 169 294 c 0
 175 294 183 292 192 292 c 1
 203 315 214 335 226 351 c 1
 226 351 231 359 242 359 c 0
 253 359 262 350 262 339 c 0
 262 335 260 330 258 327 c 0
 247 312 237 293 227 271 c 1
 242 257 257 232 257 194 c 0
169 254 m 2
 134 254 99 232 88 200 c 0
 81 181 68 127 68 91 c 0
 68 86 68 81 68 77 c 0
 70 66 76 45 86 27 c 1
 117 98 145 184 175 254 c 1
 169 254 l 2
117 -3 m 1
 126 -6 134 -7 139 -7 c 0
 154 -7 162 3 186 47 c 0
 203 78 217 151 217 194 c 0
 217 196 217 199 217 201 c 0
 217 210 213 221 208 230 c 1
 179 159 150 70 117 -3 c 1
EndSplineSet
Validated: 1
EndChar

StartChar: SGmark
Encoding: 256 888 118
Width: 795
Flags: W
HStem: -225 59<288.86 500.602> 116 52<520 613> 462 60<297.377 501.524>
VStem: 25 60<42.4815 246.785> 713 57<45.3929 257.817>
LayerCount: 2
Fore
SplineSet
400 522 m 0
 605 523 770 352 770 147 c 0
 770 -58 604 -224 399 -225 c 0
 194 -226 25 -61 25 144 c 0
 25 351 193 521 400 522 c 0
399 462 m 0
 226 461 86 320 85 147 c 0
 84 -25 224 -167 396 -166 c 0
 571 -165 712 -24 713 151 c 0
 714 323 571 463 399 462 c 0
362 249 m 1
 327 213 l 1
 327 213 296 250 257 249 c 0
 233 248 204 238 204 218 c 0
 204 171 308 170 335 151 c 0
 381 118 377 51 341 24 c 0
 302 -5 251 -6 210 6 c 0
 174 16 137 64 137 64 c 1
 173 100 l 1
 173 100 207 62 236 54 c 0
 268 45 308 48 314 80 c 0
 320 110 289 113 267 121 c 0
 234 133 202 139 183 152 c 0
 167 163 146 201 153 230 c 0
 161 264 185 280 218 293 c 0
 243 303 277 298 311 288 c 0
 342 279 362 249 362 249 c 1
641 246 m 1
 605 208 l 1
 605 208 573 243 543 244 c 0
 496 246 474 238 452 200 c 0
 439 177 429 141 447 104 c 0
 465 67 491 50 524 50 c 0
 605 49 613 116 613 116 c 1
 520 116 l 1
 520 168 l 1
 670 167 l 1
 670 167 675 110 655 74 c 0
 636 40 599 6 549 0 c 0
 495 -7 451 10 418 46 c 0
 382 86 382 152 386 180 c 0
 396 244 450 291 517 298 c 0
 591 306 641 246 641 246 c 1
EndSplineSet
Validated: 33
EndChar
